<svg width="205" height="172" viewBox="0 0 205 172" fill="none" xmlns="http://www.w3.org/2000/svg">
<path d="M204.3 141.856C194.9 138.056 182.9 130.056 175.9 140.056C160.9 163.056 130.9 173.056 110.4 153.556C107.9 152.056 105.9 151.556 104 151.056C93.4004 149.756 86.9004 148.056 86.9004 146.156C86.9004 144.256 93.4004 142.456 104 141.256C105.8 141.456 107.7 141.656 109.9 143.556C115.9 150.256 125.9 154.256 134.9 155.256C149.9 155.256 154.9 141.256 163.9 131.256C173.9 119.256 192.9 126.256 201.9 137.656C203.5 139.556 204.3 141.056 204.3 141.856Z" fill="#B04A1E"/>
<path d="M122.1 172H42.8004C35.7004 172 29.9004 167.385 29.9004 161.736V104.77C29.9004 81.6971 53.4004 63 82.4004 63C111.4 63 134.9 81.6971 134.9 104.77V161.736C134.9 167.465 129.2 172 122.1 172Z" fill="#D86737"/>
<path d="M76.4456 125.008L43.1049 85.4801C39.202 80.8529 42.615 73.7884 48.6656 73.97L117.409 76.0323C123.448 76.2134 126.437 83.4457 122.287 87.8369L86.8842 125.302C84.0142 128.339 79.1398 128.202 76.4456 125.008Z" fill="#EBEBEB"/>
<path d="M52.2002 169.3C47.2002 169.3 43.2002 165.3 43.2002 160.3V114.3H61.2002V160.3C61.2002 165.3 57.2002 169.3 52.2002 169.3Z" fill="#B04A1E"/>
<path d="M111.2 168.3C106.2 168.3 102.2 164.3 102.2 159.3V113.3H120.2V159.3C120.2 164.3 116.2 168.3 111.2 168.3Z" fill="#B04A1E"/>
<path d="M83.2002 103.3C109.71 103.3 131.2 81.8095 131.2 55.2998C131.2 28.7901 109.71 7.2998 83.2002 7.2998C56.6905 7.2998 35.2002 28.7901 35.2002 55.2998C35.2002 81.8095 56.6905 103.3 83.2002 103.3Z" fill="#B04A1E"/>
<path d="M50.3996 26.6004L38.6996 38.3004L34.3996 22.3004L30.0996 6.40039L46.0996 10.7004L61.9996 14.9004L50.3996 26.6004Z" fill="#B04A1E"/>
<path d="M125.2 16.5V33L110.9 24.7L96.5996 16.5L110.9 8.2L125.2 0V16.5Z" fill="#B04A1E"/>
<path d="M114.6 18.5L107.7 14.5L115.2 9.5L122.7 4.5L122.1 13.5L121.5 22.6L114.6 18.5Z" fill="#DC9999"/>
<path d="M82.7002 61.2998H87.2002C90.0002 61.2998 91.6002 64.5998 89.8002 66.7998L88.4002 68.4998L85.2002 72.3998C83.9002 74.0998 81.3002 74.0998 80.0002 72.3998L76.9002 68.4998L75.5002 66.7998C73.7002 64.5998 75.3002 61.2998 78.1002 61.2998H82.7002Z" fill="#CB8B9E"/>
<path d="M47.0996 22.5004L41.7996 28.4004L37.8996 19.7004L34.0996 10.9004L43.1996 13.7004L52.3996 16.5004L47.0996 22.5004Z" fill="#DC9999"/>
<path d="M71.75 57H54.25C50.75 57 48 53.26 48 48.5C48 43.74 50.75 40 54.25 40H71.75C75.25 40 78 43.74 78 48.5C78 53.26 75.25 57 71.75 57Z" fill="white"/>
<path d="M110.167 57H93.8333C90.5667 57 88 53.26 88 48.5C88 43.74 90.5667 40 93.8333 40H110.167C113.433 40 116 43.74 116 48.5C116 53.26 113.433 57 110.167 57Z" fill="white"/>
<path d="M64 57C68.4183 57 72 53.4183 72 49C72 44.5817 68.4183 41 64 41C59.5817 41 56 44.5817 56 49C56 53.4183 59.5817 57 64 57Z" fill="#38B9C7"/>
<path d="M102 57C106.418 57 110 53.4183 110 49C110 44.5817 106.418 41 102 41C97.5817 41 94 44.5817 94 49C94 53.4183 97.5817 57 102 57Z" fill="#38B9C7"/>
<path d="M67.8004 76.5002C68.5736 76.5002 69.2004 75.8734 69.2004 75.1002C69.2004 74.327 68.5736 73.7002 67.8004 73.7002C67.0272 73.7002 66.4004 74.327 66.4004 75.1002C66.4004 75.8734 67.0272 76.5002 67.8004 76.5002Z" fill="#4D4D4D"/>
<path d="M61.7996 76.3004C62.4624 76.3004 62.9996 75.7631 62.9996 75.1004C62.9996 74.4376 62.4624 73.9004 61.7996 73.9004C61.1369 73.9004 60.5996 74.4376 60.5996 75.1004C60.5996 75.7631 61.1369 76.3004 61.7996 76.3004Z" fill="#4D4D4D"/>
<path d="M60.7996 71.4996C61.1862 71.4996 61.4996 71.1862 61.4996 70.7996C61.4996 70.413 61.1862 70.0996 60.7996 70.0996C60.413 70.0996 60.0996 70.413 60.0996 70.7996C60.0996 71.1862 60.413 71.4996 60.7996 71.4996Z" fill="#4D4D4D"/>
<path d="M68.7996 72.4996C69.1862 72.4996 69.4996 72.1862 69.4996 71.7996C69.4996 71.413 69.1862 71.0996 68.7996 71.0996C68.413 71.0996 68.0996 71.413 68.0996 71.7996C68.0996 72.1862 68.413 72.4996 68.7996 72.4996Z" fill="#4D4D4D"/>
<path d="M79.4 68.8C80.1732 68.8 80.8 68.1732 80.8 67.4C80.8 66.6268 80.1732 66 79.4 66C78.6268 66 78 66.6268 78 67.4C78 68.1732 78.6268 68.8 79.4 68.8Z" fill="#4D4D4D"/>
<path d="M86.4 68.8C87.1732 68.8 87.8 68.1732 87.8 67.4C87.8 66.6268 87.1732 66 86.4 66C85.6268 66 85 66.6268 85 67.4C85 68.1732 85.6268 68.8 86.4 68.8Z" fill="#4D4D4D"/>
<path d="M64.8996 71.8998C65.8937 71.8998 66.6996 71.0939 66.6996 70.0998C66.6996 69.1057 65.8937 68.2998 64.8996 68.2998C63.9055 68.2998 63.0996 69.1057 63.0996 70.0998C63.0996 71.0939 63.9055 71.8998 64.8996 71.8998Z" fill="#4D4D4D"/>
<path d="M64.9996 81.2004C66.0489 81.2004 66.8996 80.3497 66.8996 79.3004C66.8996 78.2511 66.0489 77.4004 64.9996 77.4004C63.9503 77.4004 63.0996 78.2511 63.0996 79.3004C63.0996 80.3497 63.9503 81.2004 64.9996 81.2004Z" fill="#4D4D4D"/>
<path d="M67.7 74.9996C67.7 74.9996 37.1 59.9996 1 78.9996" stroke="white" stroke-width="0.25" stroke-miterlimit="10" stroke-linecap="round" stroke-linejoin="round"/>
<path d="M65.2002 78.8996C65.2002 78.8996 46.6002 68.2996 23.2002 78.8996" stroke="white" stroke-width="0.25" stroke-miterlimit="10" stroke-linecap="round" stroke-linejoin="round"/>
<path d="M64.9996 70.2002C64.9996 70.2002 44.1996 56.3002 16.0996 66.6002" stroke="white" stroke-width="0.25" stroke-miterlimit="10" stroke-linecap="round" stroke-linejoin="round"/>
<path d="M99.7994 76.5002C100.573 76.5002 101.199 75.8734 101.199 75.1002C101.199 74.327 100.573 73.7002 99.7994 73.7002C99.0262 73.7002 98.3994 74.327 98.3994 75.1002C98.3994 75.8734 99.0262 76.5002 99.7994 76.5002Z" fill="#4D4D4D"/>
<path d="M105.8 76.3004C106.462 76.3004 107 75.7631 107 75.1004C107 74.4376 106.462 73.9004 105.8 73.9004C105.137 73.9004 104.6 74.4376 104.6 75.1004C104.6 75.7631 105.137 76.3004 105.8 76.3004Z" fill="#4D4D4D"/>
<path d="M106.8 71.5006C107.186 71.5006 107.5 71.1872 107.5 70.8006C107.5 70.414 107.186 70.1006 106.8 70.1006C106.413 70.1006 106.1 70.414 106.1 70.8006C106.1 71.1872 106.413 71.5006 106.8 71.5006Z" fill="#4D4D4D"/>
<path d="M98.7996 72.5006C99.1862 72.5006 99.4996 72.1872 99.4996 71.8006C99.4996 71.414 99.1862 71.1006 98.7996 71.1006C98.413 71.1006 98.0996 71.414 98.0996 71.8006C98.0996 72.1872 98.413 72.5006 98.7996 72.5006Z" fill="#4D4D4D"/>
<path d="M102.6 71.8998C103.594 71.8998 104.4 71.0939 104.4 70.0998C104.4 69.1057 103.594 68.2998 102.6 68.2998C101.606 68.2998 100.8 69.1057 100.8 70.0998C100.8 71.0939 101.606 71.8998 102.6 71.8998Z" fill="#4D4D4D"/>
<path d="M102.5 81.2004C103.549 81.2004 104.4 80.3497 104.4 79.3004C104.4 78.2511 103.549 77.4004 102.5 77.4004C101.45 77.4004 100.6 78.2511 100.6 79.3004C100.6 80.3497 101.45 81.2004 102.5 81.2004Z" fill="#4D4D4D"/>
<path d="M99.7998 75.0006C99.7998 75.0006 130.4 60.0006 166.5 79.0006" stroke="white" stroke-width="0.25" stroke-miterlimit="10" stroke-linecap="round" stroke-linejoin="round"/>
<path d="M102.3 78.9006C102.3 78.9006 120.9 68.3006 144.3 78.9006" stroke="white" stroke-width="0.25" stroke-miterlimit="10" stroke-linecap="round" stroke-linejoin="round"/>
<path d="M102.5 70.2002C102.5 70.2002 123.3 56.3002 151.4 66.6002" stroke="white" stroke-width="0.25" stroke-miterlimit="10" stroke-linecap="round" stroke-linejoin="round"/>
<path d="M64.5 53C65.3284 53 66 51.2091 66 49C66 46.7909 65.3284 45 64.5 45C63.6716 45 63 46.7909 63 49C63 51.2091 63.6716 53 64.5 53Z" fill="black"/>
<path d="M102.5 53C103.328 53 104 51.2091 104 49C104 46.7909 103.328 45 102.5 45C101.672 45 101 46.7909 101 49C101 51.2091 101.672 53 102.5 53Z" fill="black"/>
</svg>
