<svg width="225" height="112" viewBox="0 0 225 112" fill="none" xmlns="http://www.w3.org/2000/svg">
<g clip-path="url(#clip0)">
<path d="M55.2113 112H0V85.4986C0 74.0357 9.35962 64.676 20.8225 64.676H34.3362C45.8516 64.676 55.1587 74.0357 55.1587 85.4986V112H55.2113Z" fill="#C1272D"/>
<path d="M51.1098 53.108C51.0572 53.1605 37.8065 76.7699 28.9201 76.7699C19.9811 76.7699 8.04498 53.108 7.9924 53.108C7.88723 53.108 2.20836 21.2432 29.0253 21.2432C54.7905 21.2432 52.0563 51.5305 51.1098 53.108Z" fill="#F9E8D8"/>
<path d="M17.8253 46.7981C19.7129 46.7981 21.2431 45.2679 21.2431 43.3802C21.2431 41.4926 19.7129 39.9624 17.8253 39.9624C15.9377 39.9624 14.4075 41.4926 14.4075 43.3802C14.4075 45.2679 15.9377 46.7981 17.8253 46.7981Z" fill="black"/>
<path d="M40.6459 46.7981C42.5335 46.7981 44.0637 45.2679 44.0637 43.3802C44.0637 41.4926 42.5335 39.9624 40.6459 39.9624C38.7582 39.9624 37.228 41.4926 37.228 43.3802C37.228 45.2679 38.7582 46.7981 40.6459 46.7981Z" fill="black"/>
<path d="M47.5868 14.723H10.7793C5.6788 14.723 1.57739 18.8244 1.57739 23.9249C1.57739 29.0254 5.6788 33.1268 10.7793 33.1268H47.5868C52.6872 33.1268 56.7887 29.0254 56.7887 23.9249C56.7887 18.8244 52.6872 14.723 47.5868 14.723Z" fill="white"/>
<path d="M45.9185 38.1436L36.2666 35.563L35.5875 38.103L45.2394 40.6835L45.9185 38.1436Z" fill="black"/>
<path d="M13.1283 40.6807L22.7803 38.1001L22.1012 35.5601L12.4492 38.1407L13.1283 40.6807Z" fill="black"/>
<path d="M27.8685 19.9812C33.3862 19.9812 37.8592 15.5083 37.8592 9.99061C37.8592 4.47295 33.3862 0 27.8685 0C22.3509 0 17.8779 4.47295 17.8779 9.99061C17.8779 15.5083 22.3509 19.9812 27.8685 19.9812Z" fill="#C1272D"/>
<path opacity="0.4" d="M14.9536 58.3661C17.2769 58.3661 19.1602 56.4828 19.1602 54.1596C19.1602 51.8363 17.2769 49.953 14.9536 49.953C12.6304 49.953 10.7471 51.8363 10.7471 54.1596C10.7471 56.4828 12.6304 58.3661 14.9536 58.3661Z" fill="#C1272D"/>
<path opacity="0.4" d="M44.4258 58.3661C46.749 58.3661 48.6324 56.4828 48.6324 54.1596C48.6324 51.8363 46.749 49.953 44.4258 49.953C42.1026 49.953 40.2192 51.8363 40.2192 54.1596C40.2192 56.4828 42.1026 58.3661 44.4258 58.3661Z" fill="#C1272D"/>
<path opacity="0.4" d="M36.8075 66.7794H22.0845V63.6245C26.922 64.9916 31.9699 64.9916 36.8075 63.6245V66.7794Z" fill="#C1272D"/>
<ellipse cx="29.4875" cy="53.37" rx="8.52945" ry="8.52945" fill="#A1292E"/>
</g>
<rect width="15.7746" height="23.1362" rx="7.88732" transform="matrix(1 0 0 -1 48.9014 112)" fill="#E12F36"/>
<rect width="15.7746" height="9.99061" rx="4.99531" transform="matrix(1 0 0 -1 48.9014 98.8545)" fill="#EFCAA6"/>
<path d="M56.4863 95.1268C72.0011 99.284 86.0479 97.1693 87.8608 90.4034C89.6737 83.6376 78.5661 74.7828 63.0514 70.6256C47.5367 66.4684 33.4898 68.5832 31.6769 75.349C29.864 82.1148 40.9716 90.9697 56.4863 95.1268Z" fill="#8C6239"/>
<path d="M56.9488 93.4001C70.2838 96.9732 82.3564 95.1581 83.9138 89.3459C85.4711 83.5337 75.9235 75.9255 62.5885 72.3524C49.2535 68.7793 37.1809 70.5944 35.6235 76.4066C34.0661 82.2187 43.6138 89.827 56.9488 93.4001Z" fill="#8C4600"/>
<path d="M52.7675 78.1742C56.4988 79.174 59.8762 78.6681 60.3113 77.0443C60.7464 75.4205 58.0744 73.2937 54.3432 72.2939C50.6119 71.2941 47.2344 71.8 46.7993 73.4238C46.3643 75.0476 49.0363 77.1744 52.7675 78.1742Z" fill="#C92E34"/>
<path d="M70.6428 87.8908C74.374 88.8905 77.7515 88.3847 78.1866 86.7609C78.6217 85.1371 75.9496 83.0102 72.2184 82.0105C68.4872 81.0107 65.1097 81.5165 64.6746 83.1403C64.2395 84.7641 66.9115 86.891 70.6428 87.8908Z" fill="#179352"/>
<path d="M51.0556 89.6702C55.6203 90.8933 59.7518 90.2759 60.2836 88.2913C60.8153 86.3067 57.546 83.7063 52.9814 82.4832C48.4167 81.2601 44.2852 81.8774 43.7534 83.8621C43.2216 85.8467 46.4909 88.4471 51.0556 89.6702Z" fill="#1781C8"/>
<path d="M55 59.3793L78.4309 45.8514L78.4309 72.9071L55 59.3793Z" fill="white"/>
<rect x="73.7446" y="9.91406" width="150.999" height="65.0859" fill="white"/>
<path d="M92.6022 21.9452C92.1122 22.6752 91.5722 23.4002 90.9822 24.1202C90.4022 24.8402 89.7722 25.5602 89.0922 26.2802C89.4122 26.5502 89.7522 26.8652 90.1122 27.2252C90.4722 27.5852 90.8222 27.9802 91.1622 28.4102C91.5122 28.8302 91.8372 29.2802 92.1372 29.7602C92.4472 30.2402 92.7072 30.7302 92.9172 31.2302H91.5222C91.2722 30.7702 91.0022 30.3202 90.7122 29.8802C90.4222 29.4402 90.1122 29.0302 89.7822 28.6502C89.4622 28.2702 89.1272 27.9252 88.7772 27.6152C88.4372 27.2952 88.0922 27.0202 87.7422 26.7902V31.2302H86.5122V21.9452H87.7422V26.0852C88.3922 25.4152 89.0122 24.7152 89.6022 23.9852C90.2022 23.2552 90.7272 22.5752 91.1772 21.9452H92.6022ZM96.5772 25.3052C96.5772 25.6052 96.5672 25.9252 96.5472 26.2652C96.5372 26.5952 96.5122 26.9302 96.4722 27.2702C96.4422 27.6002 96.3972 27.9302 96.3372 28.2602C96.2772 28.5802 96.1972 28.8802 96.0972 29.1602C95.8972 29.7302 95.5922 30.2202 95.1822 30.6302C94.7722 31.0402 94.1872 31.2852 93.4272 31.3652L93.2472 30.3152C93.6872 30.2352 94.0322 30.0752 94.2822 29.8352C94.5422 29.5852 94.7472 29.2852 94.8972 28.9352C95.0272 28.6352 95.1222 28.2952 95.1822 27.9152C95.2522 27.5352 95.3022 27.1352 95.3322 26.7152C95.3622 26.2952 95.3772 25.8752 95.3772 25.4552C95.3772 25.0352 95.3772 24.6402 95.3772 24.2702H99.4872V31.2302H98.2422V25.3052H96.5772ZM104.377 30.3452C104.687 30.3452 104.962 30.3352 105.202 30.3152C105.452 30.2952 105.657 30.2702 105.817 30.2402V28.1702C105.657 28.1202 105.462 28.0802 105.232 28.0502C105.012 28.0202 104.777 28.0052 104.527 28.0052C104.297 28.0052 104.072 28.0252 103.852 28.0652C103.632 28.0952 103.437 28.1552 103.267 28.2452C103.097 28.3352 102.957 28.4552 102.847 28.6052C102.737 28.7452 102.682 28.9252 102.682 29.1452C102.682 29.5952 102.832 29.9102 103.132 30.0902C103.442 30.2602 103.857 30.3452 104.377 30.3452ZM104.257 24.1052C104.777 24.1052 105.212 24.1702 105.562 24.3002C105.922 24.4302 106.212 24.6102 106.432 24.8402C106.652 25.0702 106.807 25.3502 106.897 25.6802C106.987 26.0102 107.032 26.3702 107.032 26.7602V31.1102C106.742 31.1602 106.357 31.2202 105.877 31.2902C105.407 31.3602 104.922 31.3952 104.422 31.3952C104.042 31.3952 103.672 31.3602 103.312 31.2902C102.952 31.2302 102.632 31.1202 102.352 30.9602C102.072 30.7902 101.847 30.5602 101.677 30.2702C101.507 29.9802 101.422 29.6102 101.422 29.1602C101.422 28.7602 101.507 28.4252 101.677 28.1552C101.857 27.8752 102.082 27.6502 102.352 27.4802C102.632 27.3102 102.947 27.1902 103.297 27.1202C103.657 27.0402 104.017 27.0002 104.377 27.0002C104.867 27.0002 105.347 27.0552 105.817 27.1652V26.8202C105.817 26.6102 105.792 26.4102 105.742 26.2202C105.702 26.0202 105.617 25.8402 105.487 25.6802C105.367 25.5202 105.197 25.3952 104.977 25.3052C104.767 25.2052 104.492 25.1552 104.152 25.1552C103.722 25.1552 103.347 25.1852 103.027 25.2452C102.707 25.3052 102.462 25.3652 102.292 25.4252L102.142 24.4052C102.312 24.3252 102.592 24.2552 102.982 24.1952C103.382 24.1352 103.807 24.1052 104.257 24.1052ZM108.787 27.7652C108.787 27.1352 108.887 26.5902 109.087 26.1302C109.287 25.6702 109.562 25.2902 109.912 24.9902C110.262 24.6902 110.667 24.4702 111.127 24.3302C111.597 24.1802 112.097 24.1052 112.627 24.1052C112.967 24.1052 113.302 24.1302 113.632 24.1802C113.972 24.2202 114.332 24.3002 114.712 24.4202L114.427 25.4852C114.097 25.3652 113.792 25.2902 113.512 25.2602C113.242 25.2202 112.967 25.2002 112.687 25.2002C112.327 25.2002 111.987 25.2502 111.667 25.3502C111.347 25.4402 111.067 25.5902 110.827 25.8002C110.597 26.0002 110.412 26.2652 110.272 26.5952C110.132 26.9152 110.062 27.3052 110.062 27.7652C110.062 28.2052 110.127 28.5852 110.257 28.9052C110.387 29.2152 110.567 29.4752 110.797 29.6852C111.037 29.8852 111.322 30.0352 111.652 30.1352C111.982 30.2352 112.347 30.2852 112.747 30.2852C113.067 30.2852 113.372 30.2702 113.662 30.2402C113.962 30.2002 114.287 30.1202 114.637 30.0002L114.817 31.0352C114.467 31.1652 114.112 31.2552 113.752 31.3052C113.392 31.3652 113.002 31.3952 112.582 31.3952C112.022 31.3952 111.507 31.3202 111.037 31.1702C110.577 31.0102 110.177 30.7802 109.837 30.4802C109.507 30.1802 109.247 29.8052 109.057 29.3552C108.877 28.8952 108.787 28.3652 108.787 27.7652ZM116.287 27.7652C116.287 27.1352 116.387 26.5902 116.587 26.1302C116.787 25.6702 117.062 25.2902 117.412 24.9902C117.762 24.6902 118.167 24.4702 118.627 24.3302C119.097 24.1802 119.597 24.1052 120.127 24.1052C120.467 24.1052 120.802 24.1302 121.132 24.1802C121.472 24.2202 121.832 24.3002 122.212 24.4202L121.927 25.4852C121.597 25.3652 121.292 25.2902 121.012 25.2602C120.742 25.2202 120.467 25.2002 120.187 25.2002C119.827 25.2002 119.487 25.2502 119.167 25.3502C118.847 25.4402 118.567 25.5902 118.327 25.8002C118.097 26.0002 117.912 26.2652 117.772 26.5952C117.632 26.9152 117.562 27.3052 117.562 27.7652C117.562 28.2052 117.627 28.5852 117.757 28.9052C117.887 29.2152 118.067 29.4752 118.297 29.6852C118.537 29.8852 118.822 30.0352 119.152 30.1352C119.482 30.2352 119.847 30.2852 120.247 30.2852C120.567 30.2852 120.872 30.2702 121.162 30.2402C121.462 30.2002 121.787 30.1202 122.137 30.0002L122.317 31.0352C121.967 31.1652 121.612 31.2552 121.252 31.3052C120.892 31.3652 120.502 31.3952 120.082 31.3952C119.522 31.3952 119.007 31.3202 118.537 31.1702C118.077 31.0102 117.677 30.7802 117.337 30.4802C117.007 30.1802 116.747 29.8052 116.557 29.3552C116.377 28.8952 116.287 28.3652 116.287 27.7652ZM129.487 31.2302H128.242V28.1552H125.362V31.2302H124.117V24.2702H125.362V27.1052H128.242V24.2702H129.487V31.2302ZM133.252 27.7802C133.092 27.7802 132.937 27.7902 132.787 27.8102C132.647 27.8202 132.517 27.8502 132.397 27.9002V30.2852C132.477 30.3052 132.602 30.3252 132.772 30.3452C132.942 30.3552 133.092 30.3602 133.222 30.3602C133.552 30.3602 133.817 30.2602 134.017 30.0602C134.227 29.8502 134.332 29.5152 134.332 29.0552C134.332 28.6052 134.217 28.2802 133.987 28.0802C133.757 27.8802 133.512 27.7802 133.252 27.7802ZM131.227 24.2702H132.397V26.9252C132.507 26.8952 132.652 26.8652 132.832 26.8352C133.022 26.7952 133.217 26.7752 133.417 26.7752C133.697 26.7752 133.962 26.8202 134.212 26.9102C134.472 26.9902 134.697 27.1202 134.887 27.3002C135.087 27.4802 135.242 27.7152 135.352 28.0052C135.472 28.2952 135.532 28.6402 135.532 29.0402C135.532 29.8802 135.312 30.4802 134.872 30.8402C134.442 31.2002 133.882 31.3802 133.192 31.3802C132.842 31.3802 132.507 31.3552 132.187 31.3052C131.877 31.2652 131.557 31.1902 131.227 31.0802V24.2702ZM137.377 31.2302H136.207V24.2702H137.377V31.2302ZM144.622 24.2702V31.2302H143.407V25.9202C143.137 26.2602 142.852 26.6602 142.552 27.1202C142.262 27.5802 141.967 28.0552 141.667 28.5452C141.377 29.0252 141.097 29.5002 140.827 29.9702C140.557 30.4402 140.317 30.8602 140.107 31.2302H138.997V24.2702H140.197V29.2802C140.427 28.8902 140.677 28.4702 140.947 28.0202C141.217 27.5602 141.497 27.1052 141.787 26.6552C142.077 26.1952 142.367 25.7602 142.657 25.3502C142.947 24.9302 143.232 24.5702 143.512 24.2702H144.622ZM141.982 23.1452C141.422 23.1452 140.967 23.0052 140.617 22.7252C140.267 22.4352 140.052 22.0352 139.972 21.5252L140.917 21.2702C140.997 21.5602 141.122 21.7952 141.292 21.9752C141.462 22.1452 141.692 22.2302 141.982 22.2302C142.272 22.2302 142.502 22.1452 142.672 21.9752C142.842 21.7952 142.967 21.5602 143.047 21.2702L143.977 21.5252C143.897 22.0352 143.682 22.4352 143.332 22.7252C142.992 23.0052 142.542 23.1452 141.982 23.1452ZM159.427 30.1802H160.012V33.1652H158.842V31.2302H154.117V24.2702H155.362V30.1802H158.197V24.2702H159.427V30.1802ZM162.832 30.2852C162.932 30.3052 163.112 30.3252 163.372 30.3452C163.632 30.3552 163.892 30.3602 164.152 30.3602C164.412 30.3602 164.657 30.3452 164.887 30.3152C165.127 30.2752 165.332 30.2102 165.502 30.1202C165.682 30.0302 165.822 29.9102 165.922 29.7602C166.032 29.6102 166.087 29.4202 166.087 29.1902C166.087 28.9702 166.037 28.7852 165.937 28.6352C165.847 28.4852 165.722 28.3652 165.562 28.2752C165.402 28.1852 165.212 28.1252 164.992 28.0952C164.772 28.0552 164.537 28.0352 164.287 28.0352H162.832V30.2852ZM164.122 27.1202C164.602 27.1202 164.997 27.0502 165.307 26.9102C165.627 26.7602 165.787 26.4802 165.787 26.0702C165.787 25.8602 165.732 25.6952 165.622 25.5752C165.522 25.4452 165.382 25.3452 165.202 25.2752C165.032 25.2052 164.837 25.1602 164.617 25.1402C164.397 25.1202 164.177 25.1102 163.957 25.1102C163.747 25.1102 163.542 25.1152 163.342 25.1252C163.142 25.1352 162.972 25.1452 162.832 25.1552V27.1202H164.122ZM164.107 31.3502C163.567 31.3502 163.082 31.3252 162.652 31.2752C162.222 31.2252 161.877 31.1702 161.617 31.1102V24.3302C161.877 24.2702 162.222 24.2152 162.652 24.1652C163.082 24.1152 163.567 24.0902 164.107 24.0902C164.467 24.0902 164.822 24.1202 165.172 24.1802C165.522 24.2402 165.832 24.3452 166.102 24.4952C166.372 24.6452 166.587 24.8452 166.747 25.0952C166.917 25.3452 167.002 25.6602 167.002 26.0402C167.002 26.3902 166.917 26.6852 166.747 26.9252C166.577 27.1552 166.347 27.3402 166.057 27.4802C166.437 27.6202 166.742 27.8202 166.972 28.0802C167.202 28.3302 167.317 28.6952 167.317 29.1752C167.317 29.5952 167.232 29.9452 167.062 30.2252C166.902 30.5052 166.677 30.7302 166.387 30.9002C166.097 31.0602 165.757 31.1752 165.367 31.2452C164.977 31.3152 164.557 31.3502 164.107 31.3502ZM171.937 24.1052C172.877 24.1052 173.602 24.4002 174.112 24.9902C174.622 25.5702 174.877 26.4552 174.877 27.6452V28.0802H169.897C169.947 28.8002 170.182 29.3502 170.602 29.7302C171.032 30.1002 171.632 30.2852 172.402 30.2852C172.842 30.2852 173.217 30.2502 173.527 30.1802C173.837 30.1102 174.072 30.0352 174.232 29.9552L174.397 31.0052C174.247 31.0852 173.977 31.1702 173.587 31.2602C173.197 31.3502 172.757 31.3952 172.267 31.3952C171.667 31.3952 171.137 31.3052 170.677 31.1252C170.227 30.9352 169.852 30.6802 169.552 30.3602C169.252 30.0402 169.027 29.6602 168.877 29.2202C168.727 28.7702 168.652 28.2852 168.652 27.7652C168.652 27.1452 168.747 26.6052 168.937 26.1452C169.127 25.6852 169.377 25.3052 169.687 25.0052C169.997 24.7052 170.347 24.4802 170.737 24.3302C171.127 24.1802 171.527 24.1052 171.937 24.1052ZM173.617 27.0752C173.617 26.4852 173.462 26.0202 173.152 25.6802C172.842 25.3302 172.432 25.1552 171.922 25.1552C171.632 25.1552 171.367 25.2102 171.127 25.3202C170.897 25.4302 170.697 25.5752 170.527 25.7552C170.357 25.9352 170.222 26.1402 170.122 26.3702C170.022 26.6002 169.957 26.8352 169.927 27.0752H173.617ZM182.182 24.2702V25.3052H179.917V31.2302H178.687V25.3052H176.422V24.2702H182.182ZM187.447 24.4652C187.447 24.8352 187.442 25.1752 187.432 25.4852C187.422 25.7952 187.402 26.0902 187.372 26.3702C187.352 26.6502 187.327 26.9302 187.297 27.2102C187.267 27.4802 187.237 27.7652 187.207 28.0652H186.352C186.322 27.7652 186.292 27.4802 186.262 27.2102C186.232 26.9302 186.202 26.6502 186.172 26.3702C186.152 26.0902 186.137 25.7952 186.127 25.4852C186.117 25.1752 186.112 24.8352 186.112 24.4652V21.9452H187.447V24.4652ZM186.772 31.4102C186.502 31.4102 186.267 31.3202 186.067 31.1402C185.867 30.9502 185.767 30.7002 185.767 30.3902C185.767 30.0802 185.867 29.8352 186.067 29.6552C186.267 29.4652 186.502 29.3702 186.772 29.3702C187.052 29.3702 187.287 29.4652 187.477 29.6552C187.677 29.8352 187.777 30.0802 187.777 30.3902C187.777 30.7002 187.677 30.9502 187.477 31.1402C187.287 31.3202 187.052 31.4102 186.772 31.4102ZM201.112 31.3052C200.962 31.3052 200.787 31.3002 200.587 31.2902C200.387 31.2802 200.187 31.2652 199.987 31.2452C199.787 31.2352 199.587 31.2152 199.387 31.1852C199.187 31.1552 199.012 31.1202 198.862 31.0802V22.0802C199.012 22.0402 199.182 22.0052 199.372 21.9752C199.572 21.9452 199.772 21.9252 199.972 21.9152C200.182 21.8952 200.382 21.8802 200.572 21.8702C200.772 21.8602 200.952 21.8552 201.112 21.8552C201.572 21.8552 202.002 21.8952 202.402 21.9752C202.802 22.0552 203.147 22.1902 203.437 22.3802C203.737 22.5702 203.967 22.8202 204.127 23.1302C204.297 23.4402 204.382 23.8252 204.382 24.2852C204.382 24.5052 204.347 24.7202 204.277 24.9302C204.207 25.1302 204.107 25.3202 203.977 25.5002C203.857 25.6802 203.712 25.8402 203.542 25.9802C203.382 26.1102 203.207 26.2102 203.017 26.2802C203.527 26.4202 203.952 26.6802 204.292 27.0602C204.642 27.4302 204.817 27.9152 204.817 28.5152C204.817 29.4352 204.522 30.1302 203.932 30.6002C203.342 31.0702 202.402 31.3052 201.112 31.3052ZM200.092 26.8952V30.2102C200.112 30.2202 200.222 30.2352 200.422 30.2552C200.632 30.2652 200.892 30.2702 201.202 30.2702C201.512 30.2702 201.807 30.2452 202.087 30.1952C202.377 30.1452 202.632 30.0552 202.852 29.9252C203.072 29.7852 203.247 29.6052 203.377 29.3852C203.517 29.1652 203.587 28.8802 203.587 28.5302C203.587 28.2202 203.522 27.9602 203.392 27.7502C203.272 27.5402 203.107 27.3752 202.897 27.2552C202.697 27.1252 202.462 27.0352 202.192 26.9852C201.922 26.9252 201.642 26.8952 201.352 26.8952H200.092ZM200.092 25.8752H201.067C201.317 25.8752 201.567 25.8502 201.817 25.8002C202.067 25.7502 202.292 25.6702 202.492 25.5602C202.692 25.4502 202.852 25.3002 202.972 25.1102C203.092 24.9202 203.152 24.6802 203.152 24.3902C203.152 24.1202 203.097 23.8902 202.987 23.7002C202.877 23.5102 202.732 23.3552 202.552 23.2352C202.372 23.1152 202.162 23.0302 201.922 22.9802C201.692 22.9302 201.447 22.9052 201.187 22.9052C200.927 22.9052 200.697 22.9102 200.497 22.9202C200.307 22.9202 200.172 22.9302 200.092 22.9502V25.8752ZM208.252 27.7802C208.092 27.7802 207.937 27.7902 207.787 27.8102C207.647 27.8202 207.517 27.8502 207.397 27.9002V30.2852C207.477 30.3052 207.602 30.3252 207.772 30.3452C207.942 30.3552 208.092 30.3602 208.222 30.3602C208.552 30.3602 208.817 30.2602 209.017 30.0602C209.227 29.8502 209.332 29.5152 209.332 29.0552C209.332 28.6052 209.217 28.2802 208.987 28.0802C208.757 27.8802 208.512 27.7802 208.252 27.7802ZM206.227 24.2702H207.397V26.9252C207.507 26.8952 207.652 26.8652 207.832 26.8352C208.022 26.7952 208.217 26.7752 208.417 26.7752C208.697 26.7752 208.962 26.8202 209.212 26.9102C209.472 26.9902 209.697 27.1202 209.887 27.3002C210.087 27.4802 210.242 27.7152 210.352 28.0052C210.472 28.2952 210.532 28.6402 210.532 29.0402C210.532 29.8802 210.312 30.4802 209.872 30.8402C209.442 31.2002 208.882 31.3802 208.192 31.3802C207.842 31.3802 207.507 31.3552 207.187 31.3052C206.877 31.2652 206.557 31.1902 206.227 31.0802V24.2702ZM212.377 31.2302H211.207V24.2702H212.377V31.2302ZM99.4872 46.2302H98.2422V43.1552H95.3622V46.2302H94.1172V39.2702H95.3622V42.1052H98.2422V39.2702H99.4872V46.2302ZM104.377 45.3452C104.687 45.3452 104.962 45.3352 105.202 45.3152C105.452 45.2952 105.657 45.2702 105.817 45.2402V43.1702C105.657 43.1202 105.462 43.0802 105.232 43.0502C105.012 43.0202 104.777 43.0052 104.527 43.0052C104.297 43.0052 104.072 43.0252 103.852 43.0652C103.632 43.0952 103.437 43.1552 103.267 43.2452C103.097 43.3352 102.957 43.4552 102.847 43.6052C102.737 43.7452 102.682 43.9252 102.682 44.1452C102.682 44.5952 102.832 44.9102 103.132 45.0902C103.442 45.2602 103.857 45.3452 104.377 45.3452ZM104.257 39.1052C104.777 39.1052 105.212 39.1702 105.562 39.3002C105.922 39.4302 106.212 39.6102 106.432 39.8402C106.652 40.0702 106.807 40.3502 106.897 40.6802C106.987 41.0102 107.032 41.3702 107.032 41.7602V46.1102C106.742 46.1602 106.357 46.2202 105.877 46.2902C105.407 46.3602 104.922 46.3952 104.422 46.3952C104.042 46.3952 103.672 46.3602 103.312 46.2902C102.952 46.2302 102.632 46.1202 102.352 45.9602C102.072 45.7902 101.847 45.5602 101.677 45.2702C101.507 44.9802 101.422 44.6102 101.422 44.1602C101.422 43.7602 101.507 43.4252 101.677 43.1552C101.857 42.8752 102.082 42.6502 102.352 42.4802C102.632 42.3102 102.947 42.1902 103.297 42.1202C103.657 42.0402 104.017 42.0002 104.377 42.0002C104.867 42.0002 105.347 42.0552 105.817 42.1652V41.8202C105.817 41.6102 105.792 41.4102 105.742 41.2202C105.702 41.0202 105.617 40.8402 105.487 40.6802C105.367 40.5202 105.197 40.3952 104.977 40.3052C104.767 40.2052 104.492 40.1552 104.152 40.1552C103.722 40.1552 103.347 40.1852 103.027 40.2452C102.707 40.3052 102.462 40.3652 102.292 40.4252L102.142 39.4052C102.312 39.3252 102.592 39.2552 102.982 39.1952C103.382 39.1352 103.807 39.1052 104.257 39.1052ZM114.487 46.2302H113.242V40.3052H110.362V46.2302H109.117V39.2702H114.487V46.2302ZM122.452 42.7502C122.452 43.3002 122.372 43.8002 122.212 44.2502C122.062 44.6902 121.847 45.0702 121.567 45.3902C121.287 45.7102 120.952 45.9602 120.562 46.1402C120.172 46.3102 119.747 46.3952 119.287 46.3952C118.837 46.3952 118.417 46.3102 118.027 46.1402C117.647 45.9602 117.317 45.7102 117.037 45.3902C116.757 45.0702 116.537 44.6902 116.377 44.2502C116.227 43.8002 116.152 43.3002 116.152 42.7502C116.152 42.2002 116.227 41.7002 116.377 41.2502C116.537 40.8002 116.757 40.4202 117.037 40.1102C117.317 39.7902 117.647 39.5452 118.027 39.3752C118.417 39.1952 118.837 39.1052 119.287 39.1052C119.747 39.1052 120.172 39.1952 120.562 39.3752C120.952 39.5452 121.287 39.7902 121.567 40.1102C121.847 40.4202 122.062 40.8002 122.212 41.2502C122.372 41.7002 122.452 42.2002 122.452 42.7502ZM121.177 42.7502C121.177 41.9602 121.007 41.3402 120.667 40.8902C120.327 40.4302 119.867 40.2002 119.287 40.2002C118.717 40.2002 118.262 40.4302 117.922 40.8902C117.592 41.3402 117.427 41.9602 117.427 42.7502C117.427 43.5302 117.592 44.1502 117.922 44.6102C118.262 45.0602 118.717 45.2852 119.287 45.2852C119.867 45.2852 120.327 45.0602 120.667 44.6102C121.007 44.1502 121.177 43.5302 121.177 42.7502ZM124.837 41.1002C124.757 42.0102 124.712 42.9002 124.702 43.7702C124.702 44.6302 124.687 45.4502 124.657 46.2302H123.457C123.467 45.6802 123.487 45.1102 123.517 44.5202C123.557 43.9302 123.597 43.3352 123.637 42.7352C123.687 42.1352 123.737 41.5402 123.787 40.9502C123.847 40.3602 123.907 39.8002 123.967 39.2702H125.122C125.312 39.7502 125.537 40.3502 125.797 41.0702C126.057 41.7902 126.387 42.6502 126.787 43.6502C127.197 42.6502 127.532 41.7902 127.792 41.0702C128.062 40.3502 128.297 39.7502 128.497 39.2702H129.637C129.697 39.8002 129.752 40.3602 129.802 40.9502C129.862 41.5402 129.912 42.1352 129.952 42.7352C130.002 43.3352 130.042 43.9302 130.072 44.5202C130.102 45.1102 130.127 45.6802 130.147 46.2302H128.947C128.917 45.4502 128.892 44.6102 128.872 43.7102C128.862 42.8102 128.822 41.9402 128.752 41.1002C128.622 41.4102 128.502 41.7002 128.392 41.9702C128.292 42.2302 128.192 42.5002 128.092 42.7802C128.002 43.0602 127.902 43.3602 127.792 43.6802C127.682 43.9902 127.552 44.3552 127.402 44.7752H126.172C126.032 44.3552 125.907 43.9902 125.797 43.6802C125.687 43.3602 125.582 43.0602 125.482 42.7802C125.392 42.5002 125.292 42.2302 125.182 41.9702C125.082 41.7002 124.967 41.4102 124.837 41.1002ZM137.122 39.2702V46.2302H135.907V40.9202C135.637 41.2602 135.352 41.6602 135.052 42.1202C134.762 42.5802 134.467 43.0552 134.167 43.5452C133.877 44.0252 133.597 44.5002 133.327 44.9702C133.057 45.4402 132.817 45.8602 132.607 46.2302H131.497V39.2702H132.697V44.2802C132.927 43.8902 133.177 43.4702 133.447 43.0202C133.717 42.5602 133.997 42.1052 134.287 41.6552C134.577 41.1952 134.867 40.7602 135.157 40.3502C135.447 39.9302 135.732 39.5702 136.012 39.2702H137.122ZM144.487 46.2302H143.242V43.1552H140.362V46.2302H139.117V39.2702H140.362V42.1052H143.242V39.2702H144.487V46.2302ZM149.377 45.3452C149.687 45.3452 149.962 45.3352 150.202 45.3152C150.452 45.2952 150.657 45.2702 150.817 45.2402V43.1702C150.657 43.1202 150.462 43.0802 150.232 43.0502C150.012 43.0202 149.777 43.0052 149.527 43.0052C149.297 43.0052 149.072 43.0252 148.852 43.0652C148.632 43.0952 148.437 43.1552 148.267 43.2452C148.097 43.3352 147.957 43.4552 147.847 43.6052C147.737 43.7452 147.682 43.9252 147.682 44.1452C147.682 44.5952 147.832 44.9102 148.132 45.0902C148.442 45.2602 148.857 45.3452 149.377 45.3452ZM149.257 39.1052C149.777 39.1052 150.212 39.1702 150.562 39.3002C150.922 39.4302 151.212 39.6102 151.432 39.8402C151.652 40.0702 151.807 40.3502 151.897 40.6802C151.987 41.0102 152.032 41.3702 152.032 41.7602V46.1102C151.742 46.1602 151.357 46.2202 150.877 46.2902C150.407 46.3602 149.922 46.3952 149.422 46.3952C149.042 46.3952 148.672 46.3602 148.312 46.2902C147.952 46.2302 147.632 46.1202 147.352 45.9602C147.072 45.7902 146.847 45.5602 146.677 45.2702C146.507 44.9802 146.422 44.6102 146.422 44.1602C146.422 43.7602 146.507 43.4252 146.677 43.1552C146.857 42.8752 147.082 42.6502 147.352 42.4802C147.632 42.3102 147.947 42.1902 148.297 42.1202C148.657 42.0402 149.017 42.0002 149.377 42.0002C149.867 42.0002 150.347 42.0552 150.817 42.1652V41.8202C150.817 41.6102 150.792 41.4102 150.742 41.2202C150.702 41.0202 150.617 40.8402 150.487 40.6802C150.367 40.5202 150.197 40.3952 149.977 40.3052C149.767 40.2052 149.492 40.1552 149.152 40.1552C148.722 40.1552 148.347 40.1852 148.027 40.2452C147.707 40.3052 147.462 40.3652 147.292 40.4252L147.142 39.4052C147.312 39.3252 147.592 39.2552 147.982 39.1952C148.382 39.1352 148.807 39.1052 149.257 39.1052ZM156.937 39.1052C157.877 39.1052 158.602 39.4002 159.112 39.9902C159.622 40.5702 159.877 41.4552 159.877 42.6452V43.0802H154.897C154.947 43.8002 155.182 44.3502 155.602 44.7302C156.032 45.1002 156.632 45.2852 157.402 45.2852C157.842 45.2852 158.217 45.2502 158.527 45.1802C158.837 45.1102 159.072 45.0352 159.232 44.9552L159.397 46.0052C159.247 46.0852 158.977 46.1702 158.587 46.2602C158.197 46.3502 157.757 46.3952 157.267 46.3952C156.667 46.3952 156.137 46.3052 155.677 46.1252C155.227 45.9352 154.852 45.6802 154.552 45.3602C154.252 45.0402 154.027 44.6602 153.877 44.2202C153.727 43.7702 153.652 43.2852 153.652 42.7652C153.652 42.1452 153.747 41.6052 153.937 41.1452C154.127 40.6852 154.377 40.3052 154.687 40.0052C154.997 39.7052 155.347 39.4802 155.737 39.3302C156.127 39.1802 156.527 39.1052 156.937 39.1052ZM158.617 42.0752C158.617 41.4852 158.462 41.0202 158.152 40.6802C157.842 40.3302 157.432 40.1552 156.922 40.1552C156.632 40.1552 156.367 40.2102 156.127 40.3202C155.897 40.4302 155.697 40.5752 155.527 40.7552C155.357 40.9352 155.222 41.1402 155.122 41.3702C155.022 41.6002 154.957 41.8352 154.927 42.0752H158.617ZM167.182 39.2702V40.3052H164.917V46.2302H163.687V40.3052H161.422V39.2702H167.182ZM171.937 39.1052C172.877 39.1052 173.602 39.4002 174.112 39.9902C174.622 40.5702 174.877 41.4552 174.877 42.6452V43.0802H169.897C169.947 43.8002 170.182 44.3502 170.602 44.7302C171.032 45.1002 171.632 45.2852 172.402 45.2852C172.842 45.2852 173.217 45.2502 173.527 45.1802C173.837 45.1102 174.072 45.0352 174.232 44.9552L174.397 46.0052C174.247 46.0852 173.977 46.1702 173.587 46.2602C173.197 46.3502 172.757 46.3952 172.267 46.3952C171.667 46.3952 171.137 46.3052 170.677 46.1252C170.227 45.9352 169.852 45.6802 169.552 45.3602C169.252 45.0402 169.027 44.6602 168.877 44.2202C168.727 43.7702 168.652 43.2852 168.652 42.7652C168.652 42.1452 168.747 41.6052 168.937 41.1452C169.127 40.6852 169.377 40.3052 169.687 40.0052C169.997 39.7052 170.347 39.4802 170.737 39.3302C171.127 39.1802 171.527 39.1052 171.937 39.1052ZM173.617 42.0752C173.617 41.4852 173.462 41.0202 173.152 40.6802C172.842 40.3302 172.432 40.1552 171.922 40.1552C171.632 40.1552 171.367 40.2102 171.127 40.3202C170.897 40.4302 170.697 40.5752 170.527 40.7552C170.357 40.9352 170.222 41.1402 170.122 41.3702C170.022 41.6002 169.957 41.8352 169.927 42.0752H173.617ZM184.837 41.1002C184.757 42.0102 184.712 42.9002 184.702 43.7702C184.702 44.6302 184.687 45.4502 184.657 46.2302H183.457C183.467 45.6802 183.487 45.1102 183.517 44.5202C183.557 43.9302 183.597 43.3352 183.637 42.7352C183.687 42.1352 183.737 41.5402 183.787 40.9502C183.847 40.3602 183.907 39.8002 183.967 39.2702H185.122C185.312 39.7502 185.537 40.3502 185.797 41.0702C186.057 41.7902 186.387 42.6502 186.787 43.6502C187.197 42.6502 187.532 41.7902 187.792 41.0702C188.062 40.3502 188.297 39.7502 188.497 39.2702H189.637C189.697 39.8002 189.752 40.3602 189.802 40.9502C189.862 41.5402 189.912 42.1352 189.952 42.7352C190.002 43.3352 190.042 43.9302 190.072 44.5202C190.102 45.1102 190.127 45.6802 190.147 46.2302H188.947C188.917 45.4502 188.892 44.6102 188.872 43.7102C188.862 42.8102 188.822 41.9402 188.752 41.1002C188.622 41.4102 188.502 41.7002 188.392 41.9702C188.292 42.2302 188.192 42.5002 188.092 42.7802C188.002 43.0602 187.902 43.3602 187.792 43.6802C187.682 43.9902 187.552 44.3552 187.402 44.7752H186.172C186.032 44.3552 185.907 43.9902 185.797 43.6802C185.687 43.3602 185.582 43.0602 185.482 42.7802C185.392 42.5002 185.292 42.2302 185.182 41.9702C185.082 41.7002 184.967 41.4102 184.837 41.1002ZM196.987 46.2302H195.742V43.1552H192.862V46.2302H191.617V39.2702H192.862V42.1052H195.742V39.2702H196.987V46.2302ZM201.937 39.1052C202.877 39.1052 203.602 39.4002 204.112 39.9902C204.622 40.5702 204.877 41.4552 204.877 42.6452V43.0802H199.897C199.947 43.8002 200.182 44.3502 200.602 44.7302C201.032 45.1002 201.632 45.2852 202.402 45.2852C202.842 45.2852 203.217 45.2502 203.527 45.1802C203.837 45.1102 204.072 45.0352 204.232 44.9552L204.397 46.0052C204.247 46.0852 203.977 46.1702 203.587 46.2602C203.197 46.3502 202.757 46.3952 202.267 46.3952C201.667 46.3952 201.137 46.3052 200.677 46.1252C200.227 45.9352 199.852 45.6802 199.552 45.3602C199.252 45.0402 199.027 44.6602 198.877 44.2202C198.727 43.7702 198.652 43.2852 198.652 42.7652C198.652 42.1452 198.747 41.6052 198.937 41.1452C199.127 40.6852 199.377 40.3052 199.687 40.0052C199.997 39.7052 200.347 39.4802 200.737 39.3302C201.127 39.1802 201.527 39.1052 201.937 39.1052ZM203.617 42.0752C203.617 41.4852 203.462 41.0202 203.152 40.6802C202.842 40.3302 202.432 40.1552 201.922 40.1552C201.632 40.1552 201.367 40.2102 201.127 40.3202C200.897 40.4302 200.697 40.5752 200.527 40.7552C200.357 40.9352 200.222 41.1402 200.122 41.3702C200.022 41.6002 199.957 41.8352 199.927 42.0752H203.617ZM101.377 61.2302V51.9452H102.502V59.0852C102.802 58.3552 103.072 57.7152 103.312 57.1652C103.552 56.6052 103.797 56.0652 104.047 55.5452C104.307 55.0152 104.587 54.4702 104.887 53.9102C105.197 53.3502 105.557 52.6952 105.967 51.9452H107.227V61.2302H106.102V53.8202C105.822 54.3502 105.547 54.8802 105.277 55.4102C105.017 55.9302 104.747 56.4852 104.467 57.0752C104.187 57.6652 103.897 58.3002 103.597 58.9802C103.297 59.6502 102.977 60.4002 102.637 61.2302H101.377ZM112.912 60.2702C112.912 60.5702 112.812 60.8352 112.612 61.0652C112.412 61.2952 112.147 61.4102 111.817 61.4102C111.477 61.4102 111.207 61.2952 111.007 61.0652C110.807 60.8352 110.707 60.5702 110.707 60.2702C110.707 59.9602 110.807 59.6902 111.007 59.4602C111.207 59.2302 111.477 59.1152 111.817 59.1152C112.147 59.1152 112.412 59.2302 112.612 59.4602C112.812 59.6902 112.912 59.9602 112.912 60.2702ZM116.377 61.2302V51.9452H117.502V59.0852C117.802 58.3552 118.072 57.7152 118.312 57.1652C118.552 56.6052 118.797 56.0652 119.047 55.5452C119.307 55.0152 119.587 54.4702 119.887 53.9102C120.197 53.3502 120.557 52.6952 120.967 51.9452H122.227V61.2302H121.102V53.8202C120.822 54.3502 120.547 54.8802 120.277 55.4102C120.017 55.9302 119.747 56.4852 119.467 57.0752C119.187 57.6652 118.897 58.3002 118.597 58.9802C118.297 59.6502 117.977 60.4002 117.637 61.2302H116.377ZM127.912 60.2702C127.912 60.5702 127.812 60.8352 127.612 61.0652C127.412 61.2952 127.147 61.4102 126.817 61.4102C126.477 61.4102 126.207 61.2952 126.007 61.0652C125.807 60.8352 125.707 60.5702 125.707 60.2702C125.707 59.9602 125.807 59.6902 126.007 59.4602C126.207 59.2302 126.477 59.1152 126.817 59.1152C127.147 59.1152 127.412 59.2302 127.612 59.4602C127.812 59.6902 127.912 59.9602 127.912 60.2702ZM138.727 51.9452H139.852V60.1802H141.247V55.4702H142.372V60.1802H143.752V51.9452H144.877V61.2302H138.727V51.9452ZM152.122 54.2702V61.2302H150.907V55.9202C150.637 56.2602 150.352 56.6602 150.052 57.1202C149.762 57.5802 149.467 58.0552 149.167 58.5452C148.877 59.0252 148.597 59.5002 148.327 59.9702C148.057 60.4402 147.817 60.8602 147.607 61.2302H146.497V54.2702H147.697V59.2802C147.927 58.8902 148.177 58.4702 148.447 58.0202C148.717 57.5602 148.997 57.1052 149.287 56.6552C149.577 56.1952 149.867 55.7602 150.157 55.3502C150.447 54.9302 150.732 54.5702 151.012 54.2702H152.122ZM153.727 61.2302V54.2702H154.852V60.1802H156.247V55.8752H157.372V60.1802H158.752V54.2702H159.877V61.2302H153.727ZM164.122 57.4052C164.392 57.6052 164.697 57.8602 165.037 58.1702C165.377 58.4702 165.712 58.7952 166.042 59.1452C166.382 59.4952 166.702 59.8552 167.002 60.2252C167.302 60.5852 167.542 60.9202 167.722 61.2302H166.252C166.062 60.9202 165.827 60.6052 165.547 60.2852C165.267 59.9552 164.967 59.6402 164.647 59.3402C164.337 59.0402 164.022 58.7652 163.702 58.5152C163.392 58.2652 163.112 58.0552 162.862 57.8852V61.2302H161.617V54.2702H162.862V57.1802C163.412 56.7002 163.962 56.2252 164.512 55.7552C165.062 55.2752 165.557 54.7802 165.997 54.2702H167.452C167.022 54.7802 166.502 55.3052 165.892 55.8452C165.292 56.3852 164.702 56.9052 164.122 57.4052ZM174.622 54.2702V61.2302H173.407V55.9202C173.137 56.2602 172.852 56.6602 172.552 57.1202C172.262 57.5802 171.967 58.0552 171.667 58.5452C171.377 59.0252 171.097 59.5002 170.827 59.9702C170.557 60.4402 170.317 60.8602 170.107 61.2302H168.997V54.2702H170.197V59.2802C170.427 58.8902 170.677 58.4702 170.947 58.0202C171.217 57.5602 171.497 57.1052 171.787 56.6552C172.077 56.1952 172.367 55.7602 172.657 55.3502C172.947 54.9302 173.232 54.5702 173.512 54.2702H174.622ZM181.987 61.2302H180.742V58.1552H177.862V61.2302H176.617V54.2702H177.862V57.1052H180.742V54.2702H181.987V61.2302ZM186.877 60.3452C187.187 60.3452 187.462 60.3352 187.702 60.3152C187.952 60.2952 188.157 60.2702 188.317 60.2402V58.1702C188.157 58.1202 187.962 58.0802 187.732 58.0502C187.512 58.0202 187.277 58.0052 187.027 58.0052C186.797 58.0052 186.572 58.0252 186.352 58.0652C186.132 58.0952 185.937 58.1552 185.767 58.2452C185.597 58.3352 185.457 58.4552 185.347 58.6052C185.237 58.7452 185.182 58.9252 185.182 59.1452C185.182 59.5952 185.332 59.9102 185.632 60.0902C185.942 60.2602 186.357 60.3452 186.877 60.3452ZM186.757 54.1052C187.277 54.1052 187.712 54.1702 188.062 54.3002C188.422 54.4302 188.712 54.6102 188.932 54.8402C189.152 55.0702 189.307 55.3502 189.397 55.6802C189.487 56.0102 189.532 56.3702 189.532 56.7602V61.1102C189.242 61.1602 188.857 61.2202 188.377 61.2902C187.907 61.3602 187.422 61.3952 186.922 61.3952C186.542 61.3952 186.172 61.3602 185.812 61.2902C185.452 61.2302 185.132 61.1202 184.852 60.9602C184.572 60.7902 184.347 60.5602 184.177 60.2702C184.007 59.9802 183.922 59.6102 183.922 59.1602C183.922 58.7602 184.007 58.4252 184.177 58.1552C184.357 57.8752 184.582 57.6502 184.852 57.4802C185.132 57.3102 185.447 57.1902 185.797 57.1202C186.157 57.0402 186.517 57.0002 186.877 57.0002C187.367 57.0002 187.847 57.0552 188.317 57.1652V56.8202C188.317 56.6102 188.292 56.4102 188.242 56.2202C188.202 56.0202 188.117 55.8402 187.987 55.6802C187.867 55.5202 187.697 55.3952 187.477 55.3052C187.267 55.2052 186.992 55.1552 186.652 55.1552C186.222 55.1552 185.847 55.1852 185.527 55.2452C185.207 55.3052 184.962 55.3652 184.792 55.4252L184.642 54.4052C184.812 54.3252 185.092 54.2552 185.482 54.1952C185.882 54.1352 186.307 54.1052 186.757 54.1052ZM195.412 60.2702C195.412 60.5702 195.312 60.8352 195.112 61.0652C194.912 61.2952 194.647 61.4102 194.317 61.4102C193.977 61.4102 193.707 61.2952 193.507 61.0652C193.307 60.8352 193.207 60.5702 193.207 60.2702C193.207 59.9602 193.307 59.6902 193.507 59.4602C193.707 59.2302 193.977 59.1152 194.317 59.1152C194.647 59.1152 194.912 59.2302 195.112 59.4602C195.312 59.6902 195.412 59.9602 195.412 60.2702Z" fill="black"/>
<defs>
<clipPath id="clip0">
<rect width="56.7887" height="112" fill="white"/>
</clipPath>
</defs>
</svg>
