<svg width="1691" height="1070" viewBox="0 0 1691 1070" fill="none" xmlns="http://www.w3.org/2000/svg">
<path d="M1688 590V660H0V590H1688Z" fill="#152024"/>
<path fill-rule="evenodd" clip-rule="evenodd" d="M326.574 379.717H401.826V394.933H460.031V367.327H639.845V412.974H702V180H735.426V534.691H773.685V442.558H885.24V248.776H1018.34V380.703H1091.23V395.843H1147.61V368.376H1321.79V413.794H1382V441.884H1407.43L1407.43 534.483H1445.68V441.884H1557.24V247.123H1690.34V379.717V576H1374L702 576H0V178H34.5076V534.483H74.0042V441.884H189.168V247.123H326.574V379.717Z" fill="#171F21"/>
<rect x="901.57" y="767.673" width="25.3191" height="301.528" fill="#180800"/>
<rect x="1609" y="767.673" width="25.3191" height="301.528" fill="#180800"/>
<circle cx="851.699" cy="883.527" r="86.6988" fill="#001F17"/>
<circle cx="866.277" cy="796.828" r="66.7504" fill="#001F17"/>
<ellipse cx="914.229" cy="724.324" rx="52.5563" ry="53.3236" fill="#001F17"/>
<circle cx="976.76" cy="883.527" r="86.6988" fill="#001F17"/>
<circle cx="962.182" cy="796.828" r="66.7504" fill="#001F17"/>
<rect x="603.57" y="767.673" width="25.3191" height="301.528" fill="#180800"/>
<circle cx="553.699" cy="883.527" r="86.6988" fill="#001F17"/>
<circle cx="568.277" cy="796.828" r="66.7504" fill="#001F17"/>
<ellipse cx="616.229" cy="724.324" rx="52.5563" ry="53.3236" fill="#001F17"/>
<circle cx="678.76" cy="883.527" r="86.6988" fill="#001F17"/>
<circle cx="664.182" cy="796.828" r="66.7504" fill="#001F17"/>
<rect x="305.57" y="767.673" width="25.3191" height="301.528" fill="#180800"/>
<rect x="8" y="767.673" width="25.3191" height="301.528" fill="#180800"/>
<circle cx="255.699" cy="883.527" r="86.6988" fill="#001F17"/>
<circle cx="270.277" cy="796.828" r="66.7504" fill="#001F17"/>
<ellipse cx="318.229" cy="724.324" rx="52.5563" ry="53.3236" fill="#001F17"/>
<circle cx="380.76" cy="883.527" r="86.6988" fill="#001F17"/>
<circle cx="366.182" cy="796.828" r="66.7504" fill="#001F17"/>
<rect x="248" y="270" width="18" height="22" fill="#D8BA1B"/>
<rect x="373" y="493" width="18" height="22" fill="#D8BA1B"/>
<rect x="660" y="430" width="18" height="22" fill="#D8BA1B"/>
<rect x="795" y="462" width="18" height="22" fill="#D8BA1B"/>
<rect x="948" y="304" width="18" height="22" fill="#D8BA1B"/>
<rect x="909" y="366" width="18" height="22" fill="#D8BA1B"/>
<rect x="595" y="390" width="18" height="22" fill="#D8BA1B"/>
<rect x="595" y="507" width="18" height="22" fill="#D8BA1B"/>
<rect x="427" y="419" width="18" height="22" fill="#D8BA1B"/>
<rect x="1573" y="484" width="18" height="22" fill="#D8BA1B"/>
<rect x="1506" y="535" width="18" height="22" fill="#D8BA1B"/>
<path fill-rule="evenodd" clip-rule="evenodd" d="M0 959.224C7.50228 955.022 14.316 949.738 20.2295 943.582C36.0058 960.004 58.1894 970.226 82.7603 970.226C130.643 970.226 169.459 931.409 169.459 883.527C169.459 854.369 155.065 828.573 132.995 812.857C134.261 807.722 134.932 802.353 134.932 796.828C134.932 761.403 107.336 732.423 72.4686 730.213C72.678 728.279 72.7855 726.314 72.7855 724.324C72.7855 694.874 49.2552 671 20.2292 671C13.0603 671 6.22669 672.456 0 675.093V959.224Z" fill="#001F17"/>
<path fill-rule="evenodd" clip-rule="evenodd" d="M1690 725.725C1684.45 723.807 1678.57 722.6 1672.47 722.213C1672.68 720.279 1672.79 718.314 1672.79 716.324C1672.79 686.874 1649.26 663 1620.23 663C1591.2 663 1567.67 686.874 1567.67 716.324C1567.67 718.314 1567.78 720.279 1567.99 722.213C1533.12 724.423 1505.53 753.403 1505.53 788.828C1505.53 794.354 1506.2 799.722 1507.46 804.857C1485.39 820.573 1471 846.369 1471 875.527C1471 923.409 1509.82 962.226 1557.7 962.226C1582.27 962.226 1604.45 952.005 1620.23 935.582C1636.01 952.005 1658.19 962.226 1682.76 962.226C1685.2 962.226 1687.61 962.125 1690 961.928V725.725Z" fill="#001F17"/>
<path fill-rule="evenodd" clip-rule="evenodd" d="M387.285 0C393.57 5.00586 400.964 8.82959 409.221 11.042C411.42 11.6309 413.623 12.0908 415.822 12.4253C415.935 46.397 438.644 77.4443 473.034 86.6592C501.187 94.2021 529.875 85.1611 548.729 65.5244C552.449 68.21 556.712 70.2769 561.408 71.5347C566.221 72.8247 571.065 73.1514 575.736 72.6328C570.712 93.0967 582.957 113.917 603.409 119.396C619.577 123.729 636.097 117.194 645.213 104.27C650.266 111.44 657.764 116.949 666.899 119.396C673.72 121.224 680.603 121.118 686.966 119.414C683.52 134.448 692.571 149.631 707.591 153.656C722.958 157.773 738.752 148.654 742.869 133.288C746.987 117.922 737.868 102.127 722.501 98.0103C719.209 97.1279 715.897 96.8535 712.685 97.1177C713.391 95.4561 713.99 93.7256 714.471 91.9316C720.022 71.2109 707.726 49.9126 687.005 44.3604C670.837 40.0283 654.317 46.563 645.201 59.4878C640.148 52.3169 632.65 46.8081 623.515 44.3604C618.702 43.0708 613.857 42.7441 609.186 43.2622C613.448 25.9053 605.285 8.29199 590.229 0H387.285Z" fill="#C4C4C4"/>
</svg>
