<svg width="40" height="18" viewBox="0 0 40 18" fill="none" xmlns="http://www.w3.org/2000/svg">
<path d="M39.0182 9.16185C39.0182 14.4788 31.8199 17.26 20.2044 17.26C8.58882 17.26 0.817871 14.2334 0.817871 8.91644C0.817871 3.59947 8.83422 0.900097 20.4498 0.900097C32.0653 0.818297 39.0182 3.76308 39.0182 9.16185Z" fill="#E2C83E"/>
<path d="M20.2045 17.9959C7.60735 17.9959 0 14.5603 0 8.83436C0 3.1902 7.44376 0 20.4499 0C32.7198 0 39.8364 3.35379 39.8364 9.16156C39.8364 14.8875 32.8834 17.9959 20.2045 17.9959ZM20.4499 1.63599C8.67075 1.63599 1.63599 4.33539 1.63599 8.83436C1.63599 13.4969 8.75255 16.3599 20.2045 16.3599C31.6564 16.3599 38.2004 13.7423 38.2004 9.07975C38.2004 4.41718 31.5746 1.63599 20.4499 1.63599Z" fill="black"/>
<path d="M19.959 10.1429C27.3228 10.1429 33.2924 8.93434 33.2924 7.44351C33.2924 5.95269 27.3228 4.74414 19.959 4.74414C12.5953 4.74414 6.62573 5.95269 6.62573 7.44351C6.62573 8.93434 12.5953 10.1429 19.959 10.1429Z" fill="#BD9725"/>
<path d="M19.9592 10.961C18.4868 10.961 5.80786 10.8792 5.80786 7.44364C5.80786 4.00806 18.4868 3.92627 19.9592 3.92627C21.4316 3.92627 34.1105 4.00806 34.1105 7.44364C34.0287 10.8792 21.3498 10.961 19.9592 10.961ZM7.52565 7.44364C8.26185 8.17983 12.679 9.32502 19.9592 9.32502C27.2393 9.32502 31.6565 8.17983 32.3927 7.44364C31.6565 6.70744 27.2393 5.56226 19.9592 5.56226C12.679 5.56226 8.26185 6.70744 7.52565 7.44364Z" fill="black"/>
</svg>
