<svg width="1680" height="1050" viewBox="0 0 1680 1050" fill="none" xmlns="http://www.w3.org/2000/svg">
<g clip-path="url(#clip0)">
<rect width="1680" height="1050" fill="white"/>
<rect x="-4" width="1684" height="1060" fill="#74D3FC"/>
<rect x="864.57" y="766.673" width="25.3191" height="301.528" fill="#A73737"/>
<circle cx="814.699" cy="882.527" r="86.6988" fill="#16A200"/>
<circle cx="829.277" cy="795.828" r="66.7504" fill="#16A200"/>
<ellipse cx="877.229" cy="723.324" rx="52.5563" ry="53.3236" fill="#16A200"/>
<circle cx="939.76" cy="882.527" r="86.6988" fill="#16A200"/>
<circle cx="925.182" cy="795.828" r="66.7504" fill="#16A200"/>
<rect x="566.57" y="766.673" width="25.3191" height="301.528" fill="#A73737"/>
<circle cx="516.699" cy="882.527" r="86.6988" fill="#16A200"/>
<circle cx="531.277" cy="795.828" r="66.7504" fill="#16A200"/>
<ellipse cx="579.229" cy="723.324" rx="52.5563" ry="53.3236" fill="#16A200"/>
<circle cx="641.76" cy="882.527" r="86.6988" fill="#16A200"/>
<circle cx="627.182" cy="795.828" r="66.7504" fill="#16A200"/>
<rect x="268.57" y="766.673" width="25.3191" height="301.528" fill="#A53636"/>
<circle cx="218.699" cy="882.527" r="86.6988" fill="#16A200"/>
<circle cx="233.277" cy="795.828" r="66.7504" fill="#16A200"/>
<ellipse cx="281.229" cy="723.324" rx="52.5563" ry="53.3236" fill="#16A200"/>
<circle cx="343.76" cy="882.527" r="86.6988" fill="#16A200"/>
<circle cx="329.182" cy="795.828" r="66.7504" fill="#16A200"/>
<circle cx="-79.3012" cy="882.527" r="86.6988" fill="#16A200"/>
<circle cx="-64.7233" cy="795.828" r="66.7504" fill="#16A200"/>
<ellipse cx="-16.7708" cy="723.324" rx="52.5563" ry="53.3236" fill="#16A200"/>
<circle cx="45.7598" cy="882.527" r="86.6988" fill="#16A200"/>
<circle cx="31.182" cy="795.828" r="66.7504" fill="#16A200"/>
<rect x="1570.57" y="758.673" width="25.3191" height="301.528" fill="#A73737"/>
<circle cx="1520.7" cy="874.527" r="86.6988" fill="#16A200"/>
<circle cx="1535.28" cy="787.828" r="66.7504" fill="#16A200"/>
<ellipse cx="1583.23" cy="715.324" rx="52.5563" ry="53.3236" fill="#16A200"/>
<circle cx="1645.76" cy="874.527" r="86.6988" fill="#16A200"/>
<circle cx="1631.18" cy="787.828" r="66.7504" fill="#16A200"/>
<circle cx="1507" cy="192" r="276" fill="#FEE97B"/>
</g>
<defs>
<clipPath id="clip0">
<rect width="1680" height="1050" fill="white"/>
</clipPath>
</defs>
</svg>
