<svg width="1680" height="1050" viewBox="0 0 1680 1050" fill="none" xmlns="http://www.w3.org/2000/svg">
<g clip-path="url(#clip0)">
<path d="M1680 0H0V1050H1680V0Z" fill="white"/>
<path d="M1680 0H-4V1060H1680V0Z" fill="#74D3FC"/>
<path d="M889.889 766.673H864.57V1068.2H889.889V766.673Z" fill="#A73737"/>
<path d="M814.699 969.226C862.581 969.226 901.398 930.409 901.398 882.527C901.398 834.644 862.581 795.828 814.699 795.828C766.816 795.828 728 834.644 728 882.527C728 930.409 766.816 969.226 814.699 969.226Z" fill="#16A200"/>
<path d="M829.277 862.578C866.142 862.578 896.027 832.693 896.027 795.828C896.027 758.963 866.142 729.078 829.277 729.078C792.412 729.078 762.526 758.963 762.526 795.828C762.526 832.693 792.412 862.578 829.277 862.578Z" fill="#16A200"/>
<path d="M877.229 776.648C906.255 776.648 929.785 752.774 929.785 723.324C929.785 693.874 906.255 670 877.229 670C848.203 670 824.673 693.874 824.673 723.324C824.673 752.774 848.203 776.648 877.229 776.648Z" fill="#16A200"/>
<path d="M939.76 969.226C987.643 969.226 1026.46 930.409 1026.46 882.527C1026.46 834.644 987.643 795.828 939.76 795.828C891.878 795.828 853.062 834.644 853.062 882.527C853.062 930.409 891.878 969.226 939.76 969.226Z" fill="#16A200"/>
<path d="M925.182 862.578C962.047 862.578 991.932 832.693 991.932 795.828C991.932 758.963 962.047 729.078 925.182 729.078C888.317 729.078 858.432 758.963 858.432 795.828C858.432 832.693 888.317 862.578 925.182 862.578Z" fill="#16A200"/>
<path d="M591.889 766.673H566.57V1068.2H591.889V766.673Z" fill="#A73737"/>
<path d="M516.699 969.226C564.581 969.226 603.398 930.409 603.398 882.527C603.398 834.644 564.581 795.828 516.699 795.828C468.816 795.828 430 834.644 430 882.527C430 930.409 468.816 969.226 516.699 969.226Z" fill="#16A200"/>
<path d="M531.277 862.578C568.142 862.578 598.027 832.693 598.027 795.828C598.027 758.963 568.142 729.078 531.277 729.078C494.412 729.078 464.526 758.963 464.526 795.828C464.526 832.693 494.412 862.578 531.277 862.578Z" fill="#16A200"/>
<path d="M579.229 776.648C608.255 776.648 631.785 752.774 631.785 723.324C631.785 693.874 608.255 670 579.229 670C550.203 670 526.673 693.874 526.673 723.324C526.673 752.774 550.203 776.648 579.229 776.648Z" fill="#16A200"/>
<path d="M641.76 969.226C689.643 969.226 728.459 930.409 728.459 882.527C728.459 834.644 689.643 795.828 641.76 795.828C593.878 795.828 555.062 834.644 555.062 882.527C555.062 930.409 593.878 969.226 641.76 969.226Z" fill="#16A200"/>
<path d="M627.182 862.578C664.047 862.578 693.932 832.693 693.932 795.828C693.932 758.963 664.047 729.078 627.182 729.078C590.317 729.078 560.432 758.963 560.432 795.828C560.432 832.693 590.317 862.578 627.182 862.578Z" fill="#16A200"/>
<path d="M293.889 766.673H268.57V1068.2H293.889V766.673Z" fill="#A53636"/>
<path d="M218.699 969.226C266.581 969.226 305.398 930.409 305.398 882.527C305.398 834.644 266.581 795.828 218.699 795.828C170.816 795.828 132 834.644 132 882.527C132 930.409 170.816 969.226 218.699 969.226Z" fill="#16A200"/>
<path d="M233.277 862.578C270.142 862.578 300.027 832.693 300.027 795.828C300.027 758.963 270.142 729.078 233.277 729.078C196.412 729.078 166.526 758.963 166.526 795.828C166.526 832.693 196.412 862.578 233.277 862.578Z" fill="#16A200"/>
<path d="M281.229 776.648C310.255 776.648 333.785 752.774 333.785 723.324C333.785 693.874 310.255 670 281.229 670C252.203 670 228.673 693.874 228.673 723.324C228.673 752.774 252.203 776.648 281.229 776.648Z" fill="#16A200"/>
<path d="M343.76 969.226C391.643 969.226 430.459 930.409 430.459 882.527C430.459 834.644 391.643 795.828 343.76 795.828C295.878 795.828 257.062 834.644 257.062 882.527C257.062 930.409 295.878 969.226 343.76 969.226Z" fill="#16A200"/>
<path d="M329.182 862.578C366.047 862.578 395.932 832.693 395.932 795.828C395.932 758.963 366.047 729.078 329.182 729.078C292.317 729.078 262.432 758.963 262.432 795.828C262.432 832.693 292.317 862.578 329.182 862.578Z" fill="#16A200"/>
<path d="M-79.3012 969.226C-31.4188 969.226 7.3976 930.409 7.3976 882.527C7.3976 834.644 -31.4188 795.828 -79.3012 795.828C-127.184 795.828 -166 834.644 -166 882.527C-166 930.409 -127.184 969.226 -79.3012 969.226Z" fill="#16A200"/>
<path d="M-64.7232 862.578C-27.858 862.578 2.02716 832.693 2.02716 795.828C2.02716 758.963 -27.858 729.078 -64.7232 729.078C-101.588 729.078 -131.474 758.963 -131.474 795.828C-131.474 832.693 -101.588 862.578 -64.7232 862.578Z" fill="#16A200"/>
<path d="M-16.7708 776.648C12.2552 776.648 35.7855 752.774 35.7855 723.324C35.7855 693.874 12.2552 670 -16.7708 670C-45.7969 670 -69.3271 693.874 -69.3271 723.324C-69.3271 752.774 -45.7969 776.648 -16.7708 776.648Z" fill="#16A200"/>
<path d="M45.7593 969.226C93.6418 969.226 132.458 930.409 132.458 882.527C132.458 834.644 93.6418 795.828 45.7593 795.828C-2.12308 795.828 -40.9395 834.644 -40.9395 882.527C-40.9395 930.409 -2.12308 969.226 45.7593 969.226Z" fill="#16A200"/>
<path d="M31.182 862.578C68.0473 862.578 97.9324 832.693 97.9324 795.828C97.9324 758.963 68.0473 729.078 31.182 729.078C-5.68319 729.078 -35.5684 758.963 -35.5684 795.828C-35.5684 832.693 -5.68319 862.578 31.182 862.578Z" fill="#16A200"/>
<path d="M1595.89 758.673H1570.57V1060.2H1595.89V758.673Z" fill="#A73737"/>
<path d="M1520.7 961.226C1568.58 961.226 1607.4 922.409 1607.4 874.527C1607.4 826.644 1568.58 787.828 1520.7 787.828C1472.82 787.828 1434 826.644 1434 874.527C1434 922.409 1472.82 961.226 1520.7 961.226Z" fill="#16A200"/>
<path d="M1535.28 854.578C1572.15 854.578 1602.03 824.693 1602.03 787.828C1602.03 750.963 1572.15 721.078 1535.28 721.078C1498.41 721.078 1468.53 750.963 1468.53 787.828C1468.53 824.693 1498.41 854.578 1535.28 854.578Z" fill="#16A200"/>
<path d="M1583.23 768.648C1612.26 768.648 1635.79 744.774 1635.79 715.324C1635.79 685.874 1612.26 662 1583.23 662C1554.2 662 1530.67 685.874 1530.67 715.324C1530.67 744.774 1554.2 768.648 1583.23 768.648Z" fill="#16A200"/>
<path d="M1645.76 961.226C1693.64 961.226 1732.46 922.409 1732.46 874.527C1732.46 826.644 1693.64 787.828 1645.76 787.828C1597.88 787.828 1559.06 826.644 1559.06 874.527C1559.06 922.409 1597.88 961.226 1645.76 961.226Z" fill="#16A200"/>
<path d="M1631.18 854.578C1668.05 854.578 1697.93 824.693 1697.93 787.828C1697.93 750.963 1668.05 721.078 1631.18 721.078C1594.31 721.078 1564.43 750.963 1564.43 787.828C1564.43 824.693 1594.31 854.578 1631.18 854.578Z" fill="#16A200"/>
</g>
<defs>
<clipPath id="clip0">
<rect width="1680" height="1050" fill="white"/>
</clipPath>
</defs>
</svg>
