<svg width="507" height="263" viewBox="0 0 507 263" fill="none" xmlns="http://www.w3.org/2000/svg">
<path d="M313.666 39.9829H252.287V260.409H313.666V39.9829Z" fill="#A25200"/>
<path d="M315.928 262.668H250.025V37.7241H315.928V262.668ZM254.549 258.15H311.405V42.242H254.549V258.15Z" fill="#642200"/>
<path d="M252.468 39.9829H191.089V260.409H252.468V39.9829Z" fill="#A25200"/>
<path d="M254.729 262.668H188.827V37.7241H254.729V262.668ZM193.35 258.15H250.206V42.242H193.35V258.15Z" fill="#642200"/>
<path d="M279.743 148.818H252.151V151.709H279.743V148.818Z" fill="#642200"/>
<path d="M279.743 206.917H252.151V209.809H279.743V206.917Z" fill="#642200"/>
<path d="M222.751 151.705L250.342 151.705L250.342 148.813L222.751 148.813L222.751 151.705Z" fill="#642200"/>
<path d="M222.751 209.813L250.342 209.813L250.342 206.921L222.751 206.921L222.751 209.813Z" fill="#642200"/>
<path d="M226.776 209.809L226.776 148.818L218.789 148.818L218.789 209.809L226.776 209.809Z" fill="#CCCCCC"/>
<path d="M286.72 209.809L286.72 148.818L278.733 148.818L278.733 209.809L286.72 209.809Z" fill="#CCCCCC"/>
<path d="M506.08 57.8737H0.800293L66.612 0H440.224L473.152 28.9368L506.08 57.8737Z" fill="#D86737"/>
<path d="M506.08 85.2065H495.949L427.921 64.9666L363.24 85.2065L312.807 64.9666L253.418 85.2065L183.128 64.4696L116.638 85.2065L59.0583 64.0178L7.13269 85.2065H0.800293V57.8735H506.08V85.2065Z" fill="#361212"/>
<path d="M43.4517 70.4029V57.9275H78.9188V71.4009L59.4369 64.4147L43.4517 70.4029Z" fill="#C4C4C4"/>
<path d="M43.4517 57.9275L99.8993 0.0410156H127.873L78.9188 57.9275H43.4517Z" fill="white"/>
<path d="M461.564 57.9275L406.115 0.0410156H378.141L425.597 57.9275H461.564Z" fill="white"/>
<path d="M125.376 57.9275L170.334 0.0410156H198.308L158.845 57.9275H125.376Z" fill="white"/>
<path d="M226.282 57.9275L245.265 0.0410156H267.244L278.234 57.9275H226.282Z" fill="white"/>
<path d="M380.639 57.9275L335.681 0.0410156H307.707L347.17 57.9275H380.639Z" fill="white"/>
<path d="M126.375 82.3795L125.376 57.9275H158.845V72.3991L126.375 82.3795Z" fill="#C4C4C4"/>
<path d="M347.17 78.8863V57.9275H380.639V79.8843L363.155 85.3735L347.17 78.8863Z" fill="#C4C4C4"/>
<path d="M425.598 65.9118V57.9275H461.564V75.3931L428.095 65.4127L425.598 65.9118Z" fill="#C4C4C4"/>
<path d="M226.282 77.8883V57.9275H278.234V77.8883L252.758 86.3716L226.282 77.8883Z" fill="#C4C4C4"/>
</svg>
