<svg width="38" height="51" viewBox="0 0 38 51" fill="none" xmlns="http://www.w3.org/2000/svg">
<path opacity="0.5" d="M18.2095 0L34.9981 23.7511C36.9241 26.4701 37.9674 29.679 37.9915 32.9512L37.9995 33.5045C38.0236 36.5791 37.1488 39.5826 35.4796 42.1829L34.9259 43.0524C32.406 46.9648 28.273 49.6521 23.5462 50.4425L21.6603 50.7586C19.654 51.0906 17.6076 51.0827 15.6013 50.7191L15.3044 50.6638C10.6177 49.8102 6.48479 47.115 3.90872 43.2262L2.70494 41.4084C0.963489 38.7764 0.0245467 35.7334 0.000471273 32.6351C-0.0236042 29.513 0.875212 26.4621 2.59259 23.8381L18.2095 0Z" fill="#0396A7"/>
</svg>
