<svg width="80" height="105" viewBox="0 0 80 105" fill="none" xmlns="http://www.w3.org/2000/svg">
<rect opacity="0.77" x="80" y="30" width="75" height="80" rx="1" transform="rotate(90 80 30)" fill="#C4C4C4"/>
<path d="M40.3809 7.9375C41.6178 7.9375 42.6009 8.27279 43.3301 8.94336C44.0658 9.60742 44.4596 10.5254 44.5117 11.6973H42.7734C42.7083 11.0007 42.4674 10.4635 42.0508 10.0859C41.6341 9.70833 41.0775 9.51953 40.3809 9.51953C39.2936 9.51953 38.457 10.0404 37.8711 11.082C37.3633 11.974 37.0833 13.1882 37.0312 14.7246C37.9036 13.6113 39.0169 13.0547 40.3711 13.0547C41.6992 13.0547 42.7669 13.4844 43.5742 14.3438C44.388 15.1966 44.7949 16.3229 44.7949 17.7227C44.7949 19.1224 44.3522 20.2487 43.4668 21.1016C42.5879 21.9544 41.429 22.3809 39.9902 22.3809C38.4538 22.3809 37.2689 21.7884 36.4355 20.6035C35.6087 19.4121 35.1953 17.7194 35.1953 15.5254C35.1953 13.097 35.6478 11.2253 36.5527 9.91016C37.4512 8.59505 38.7272 7.9375 40.3809 7.9375ZM37.2461 17.7227C37.2461 18.6276 37.5098 19.3665 38.0371 19.9395C38.571 20.5124 39.2546 20.7988 40.0879 20.7988C40.9212 20.7988 41.6016 20.5124 42.1289 19.9395C42.6628 19.3665 42.9297 18.6276 42.9297 17.7227C42.9297 16.8177 42.6628 16.0788 42.1289 15.5059C41.6016 14.9264 40.9212 14.6367 40.0879 14.6367C39.2546 14.6367 38.571 14.9264 38.0371 15.5059C37.5098 16.0788 37.2461 16.8177 37.2461 17.7227Z" fill="white"/>
</svg>
