<svg width="80" height="105" viewBox="0 0 80 105" fill="none" xmlns="http://www.w3.org/2000/svg">
<rect opacity="0.77" x="80" y="30" width="75" height="80" rx="1" transform="rotate(90 80 30)" fill="#C4C4C4"/>
<path d="M42.5586 11.7559C42.5586 11.0918 42.3047 10.5514 41.7969 10.1348C41.2956 9.71159 40.651 9.5 39.8633 9.5C39.0299 9.5 38.3919 9.75716 37.9492 10.2715C37.5065 10.7793 37.2624 11.541 37.2168 12.5566H35.5078C35.5078 11.0853 35.8919 9.94922 36.6602 9.14844C37.4349 8.34115 38.5286 7.9375 39.9414 7.9375C41.276 7.9375 42.3503 8.27279 43.1641 8.94336C43.9844 9.60742 44.3945 10.4863 44.3945 11.5801C44.3945 12.6673 43.9844 13.5462 43.1641 14.2168C43.0078 14.347 42.8385 14.4642 42.6562 14.5684C42.9948 14.7181 43.2943 14.8971 43.5547 15.1055C44.4336 15.7956 44.873 16.7266 44.873 17.8984C44.873 19.2135 44.4173 20.291 43.5059 21.1309C42.5944 21.9642 41.4225 22.3809 39.9902 22.3809C38.4147 22.3809 37.2266 22.0033 36.4258 21.248C35.625 20.4863 35.1888 19.3242 35.1172 17.7617H36.9629C37.0671 18.8555 37.3568 19.64 37.832 20.1152C38.3073 20.584 39.0462 20.8184 40.0488 20.8184C40.9147 20.8184 41.6243 20.571 42.1777 20.0762C42.7311 19.5749 43.0078 18.9336 43.0078 18.1523C43.0078 17.332 42.7409 16.681 42.207 16.1992C41.7513 15.7826 41.1654 15.5482 40.4492 15.4961C40.1172 15.4766 39.8014 15.4668 39.502 15.4668C39.209 15.4668 39.0137 15.4798 38.916 15.5059V13.9629C39.0592 13.9954 39.2806 14.0117 39.5801 14.0117C39.8796 14.0117 40.1758 13.9922 40.4688 13.9531C41.0352 13.8815 41.4941 13.696 41.8457 13.3965C42.321 13.0059 42.5586 12.459 42.5586 11.7559Z" fill="white"/>
</svg>
