<svg width="80" height="108" viewBox="0 0 80 108" fill="none" xmlns="http://www.w3.org/2000/svg">
<rect opacity="0.77" x="80" y="33" width="75" height="80" rx="1" transform="rotate(90 80 33)" fill="#C4C4C4"/>
<path d="M44.7168 17.4785C44.7168 18.9173 44.2643 20.0957 43.3594 21.0137C42.4609 21.9251 41.3053 22.3809 39.8926 22.3809C38.4863 22.3809 37.3568 22.0293 36.5039 21.3262C35.651 20.623 35.1758 19.653 35.0781 18.416H36.9043C37.002 19.1973 37.3177 19.8027 37.8516 20.2324C38.3854 20.6556 39.0918 20.8672 39.9707 20.8672C40.8171 20.8672 41.5072 20.571 42.041 19.9785C42.5814 19.3861 42.8516 18.6243 42.8516 17.6934C42.8516 16.7168 42.5716 15.9421 42.0117 15.3691C41.4518 14.7897 40.6934 14.5 39.7363 14.5C39.222 14.5 38.7207 14.6237 38.2324 14.8711C37.7507 15.1185 37.3861 15.4342 37.1387 15.8184L35.6543 15.7207L36.6699 8.2207H43.9551V9.92969H37.9883L37.3828 13.7773L37.4414 13.7383C38.2161 13.2044 39.0332 12.9375 39.8926 12.9375C41.3704 12.9375 42.5456 13.3477 43.418 14.168C44.2839 14.9818 44.7168 16.0853 44.7168 17.4785Z" fill="white"/>
</svg>
