<svg width="80" height="105" viewBox="0 0 80 105" fill="none" xmlns="http://www.w3.org/2000/svg">
<rect opacity="0.77" x="80" y="30" width="75" height="80" rx="1" transform="rotate(90 80 30)" fill="#C4C4C4"/>
<path d="M44.5801 12.0781C44.5801 13.1133 44.3132 13.9661 43.7793 14.6367C43.252 15.3008 42.2559 16.0365 40.791 16.8438C39.2025 17.7161 38.1185 18.5137 37.5391 19.2363C37.2982 19.5488 37.0996 19.9004 36.9434 20.291H44.5801V22H34.9512C34.9512 20.5221 35.319 19.3145 36.0547 18.377C36.7904 17.4329 38.1706 16.4043 40.1953 15.291C41.1784 14.7441 41.849 14.2428 42.207 13.7871C42.5651 13.3314 42.7441 12.7454 42.7441 12.0293C42.7441 11.2806 42.4772 10.6686 41.9434 10.1934C41.4095 9.7181 40.7259 9.48047 39.8926 9.48047C39.0202 9.48047 38.3333 9.77995 37.832 10.3789C37.3372 10.9714 37.0736 11.8145 37.041 12.9082H35.332C35.306 11.3587 35.7194 10.1445 36.5723 9.26562C37.4251 8.38021 38.6133 7.9375 40.1367 7.9375C41.4388 7.9375 42.5065 8.32487 43.3398 9.09961C44.1667 9.86784 44.5801 10.8607 44.5801 12.0781Z" fill="white"/>
</svg>
