<svg width="538" height="968" viewBox="0 0 538 968" fill="none" xmlns="http://www.w3.org/2000/svg">
<path d="M252.677 738.713H205.049V935.465H252.677V738.713Z" fill="#A25200"/>
<path d="M254.939 937.724H202.787V736.454H254.939V937.724ZM207.31 933.206H250.416V740.972H207.31V933.206Z" fill="#A22200"/>
<path d="M447.127 712.961V886.853H89.211V712.961H447.127ZM455.269 704.829H81.0693V894.985H455.269V704.829Z" fill="#E6E6E6"/>
<path d="M328.666 738.713H267.287V959.139H328.666V738.713Z" fill="#A25200"/>
<path d="M330.928 961.398H265.025V736.454H330.928V961.398ZM269.549 956.88H326.405V740.972H269.549V956.88Z" fill="#642200"/>
<path d="M267.468 738.713H206.089V959.139H267.468V738.713Z" fill="#A25200"/>
<path d="M269.729 961.398H203.827V736.454H269.729V961.398ZM208.35 956.88H265.206V740.972H208.35V956.88Z" fill="#642200"/>
<path d="M318.851 183.515H218.075V282.275H318.851V183.515Z" fill="#E6E6E6"/>
<path d="M318.851 282.275H218.075V290.814H318.851V282.275Z" fill="#646470"/>
<path d="M412.797 359.892H315.232V465.203H412.797V359.892Z" fill="#E6E6E6"/>
<path d="M412.797 465.203H315.232V474.329H412.797V465.203Z" fill="#646470"/>
<path d="M219.523 359.892H121.958V465.203H219.523V359.892Z" fill="#E6E6E6"/>
<path d="M219.523 465.203H121.958V474.329H219.523V465.203Z" fill="#646470"/>
<path d="M412.797 511.239H315.232V616.55H412.797V511.239Z" fill="#E6E6E6"/>
<path d="M412.797 616.55H315.232V625.676H412.797V616.55Z" fill="#646470"/>
<path d="M219.523 511.239H121.958V616.55H219.523V511.239Z" fill="#E6E6E6"/>
<path d="M219.523 616.55H121.958V625.676H219.523V616.55Z" fill="#646470"/>
<path d="M46.7693 316.294H0V333.688H46.7693V316.294Z" fill="#CCCCCC"/>
<path d="M85.8544 262.171H39.085V279.564H85.8544V262.171Z" fill="#CCCCCC"/>
<path d="M123.939 209.944H77.1699V227.338H123.939V209.944Z" fill="#CCCCCC"/>
<path d="M162.979 157.673H116.209V175.067H162.979V157.673Z" fill="#CCCCCC"/>
<path d="M200.063 105.447H153.294V122.84H200.063V105.447Z" fill="#CCCCCC"/>
<path d="M239.148 53.175H192.379V70.5688H239.148V53.175Z" fill="#CCCCCC"/>
<path d="M490.738 333.712L537.507 333.712L537.507 316.318L490.738 316.318L490.738 333.712Z" fill="#CCCCCC"/>
<path d="M452.63 279.58L499.4 279.58L499.4 262.186L452.63 262.186L452.63 279.58Z" fill="#CCCCCC"/>
<path d="M413.567 227.315L460.336 227.315L460.336 209.922L413.567 209.922L413.567 227.315Z" fill="#CCCCCC"/>
<path d="M375.505 175.097L422.274 175.097L422.274 157.703L375.505 157.703L375.505 175.097Z" fill="#CCCCCC"/>
<path d="M337.442 122.832L384.211 122.832L384.211 105.439L337.442 105.439L337.442 122.832Z" fill="#CCCCCC"/>
<path d="M299.334 70.6133L346.104 70.6133L346.104 53.2195L299.334 53.2195L299.334 70.6133Z" fill="#CCCCCC"/>
<path d="M330.928 0H209.21V17.3937H330.928V0Z" fill="#CCCCCC"/>
<path d="M239.47 150.038H218.121V180.623H239.47V150.038Z" fill="#CCCCCC"/>
<path d="M279.726 150.038H258.376V180.623H279.726V150.038Z" fill="#CCCCCC"/>
<path d="M318.76 150.038H298.632V180.623H318.76V150.038Z" fill="#CCCCCC"/>
<path d="M143.172 345.344H121.823V357.091H143.172V345.344Z" fill="#CCCCCC"/>
<path d="M219.342 345.344H197.992V357.091H219.342V345.344Z" fill="#CCCCCC"/>
<path d="M143.172 496.918H121.823V508.664H143.172V496.918Z" fill="#CCCCCC"/>
<path d="M219.342 496.918H197.992V508.664H219.342V496.918Z" fill="#CCCCCC"/>
<path d="M336.808 496.918H315.458V508.664H336.808V496.918Z" fill="#CCCCCC"/>
<path d="M412.977 496.918H391.628V508.664H412.977V496.918Z" fill="#CCCCCC"/>
<path d="M336.808 345.344H315.458V357.091H336.808V345.344Z" fill="#CCCCCC"/>
<path d="M412.977 345.344H391.628V357.091H412.977V345.344Z" fill="#CCCCCC"/>
<path d="M294.743 847.548H267.151V850.439H294.743V847.548Z" fill="#642200"/>
<path d="M294.743 905.647H267.151V908.539H294.743V905.647Z" fill="#642200"/>
<path d="M237.751 850.435L265.342 850.435L265.342 847.543L237.751 847.543L237.751 850.435Z" fill="#642200"/>
<path d="M237.751 908.543L265.342 908.543L265.342 905.651L237.751 905.651L237.751 908.543Z" fill="#642200"/>
<path d="M241.776 908.539L241.776 847.548L233.789 847.548L233.789 908.539L241.776 908.539Z" fill="#CCCCCC"/>
<path d="M301.72 908.539L301.72 847.548L293.733 847.548L293.733 908.539L301.72 908.539Z" fill="#CCCCCC"/>
<path d="M13.1455 362.605L13.1455 381.083H48.5165V362.605H13.1455Z" fill="#CCCCCC"/>
<path d="M13.1069 420.969L13.1069 439.447H48.478V420.969H13.1069Z" fill="#CCCCCC"/>
<path d="M13.1138 479.333L13.1138 497.811H48.4847V479.333H13.1138Z" fill="#CCCCCC"/>
<path d="M13.1201 537.697L13.1201 556.175H48.4914V537.697H13.1201Z" fill="#CCCCCC"/>
<path d="M13.1265 596.061L13.1265 614.539H48.4975V596.061H13.1265Z" fill="#CCCCCC"/>
<path d="M489.612 362.604V381.082H524.983V362.604H489.612Z" fill="#CCCCCC"/>
<path d="M489.574 420.968V439.446H524.945V420.968H489.574Z" fill="#CCCCCC"/>
<path d="M489.58 479.332V497.81H524.951V479.332H489.58Z" fill="#CCCCCC"/>
<path d="M489.586 537.696V556.174H524.958V537.696H489.586Z" fill="#CCCCCC"/>
<path d="M13.1455 662.59L13.1455 681.068H48.5165V662.59H13.1455Z" fill="#CCCCCC"/>
<path d="M13.1069 720.954L13.1069 739.432H48.478V720.954H13.1069Z" fill="#CCCCCC"/>
<path d="M490 663V681H525V663H490Z" fill="#CCCCCC"/>
<path d="M489.574 720.953V739.431H524.945V720.953H489.574Z" fill="#CCCCCC"/>
<path d="M81.5093 889.763H12.5093V894.733H81.5093V889.763Z" fill="white"/>
<path d="M524.509 889.753H455V894.722H524.509V889.753Z" fill="white"/>
<path d="M81.5093 860.753H12.5093V865.722H81.5093V860.753Z" fill="white"/>
<path d="M524.509 860.753H455V865.722H524.509V860.753Z" fill="white"/>
<path d="M203.509 916.774H12.5093V921.743H203.509V916.774Z" fill="white"/>
<path d="M524.509 916.774H330.509V921.743H524.509V916.774Z" fill="white"/>
<path d="M203.509 944.785H12.5093V949.754H203.509V944.785Z" fill="white"/>
<path d="M524.509 944.785H330.509V949.754H524.509V944.785Z" fill="white"/>
<path d="M455.314 642.382H81.25V701.034H455.314V642.382Z" fill="#E6E6E6"/>
<path d="M521.08 756.604H15.8003L81.612 698.73H455.224L488.152 727.667L521.08 756.604Z" fill="#D86737"/>
<path d="M521.08 783.936H510.949L442.921 763.697L378.24 783.936L327.807 763.697L268.418 783.936L198.128 763.2L131.638 783.936L74.0583 762.748L22.1327 783.936H15.8003V756.604H521.08V783.936Z" fill="#361212"/>
<path d="M58.4517 769.133V756.657H93.9188V770.131L74.4369 763.145L58.4517 769.133Z" fill="#C4C4C4"/>
<path d="M455.314 693.489H81.25V698.911H455.314V693.489Z" fill="#646470"/>
<path d="M58.4517 756.657L114.899 698.771H142.873L93.9188 756.657H58.4517Z" fill="white"/>
<path d="M476.564 756.657L421.115 698.771H393.141L440.597 756.657H476.564Z" fill="white"/>
<path d="M140.376 756.657L185.334 698.771H213.308L173.845 756.657H140.376Z" fill="white"/>
<path d="M241.282 756.657L260.265 698.771H282.244L293.234 756.657H241.282Z" fill="white"/>
<path d="M395.639 756.657L350.681 698.771H322.707L362.17 756.657H395.639Z" fill="white"/>
<path d="M141.375 781.109L140.376 756.657H173.845V771.129L141.375 781.109Z" fill="#C4C4C4"/>
<path d="M362.17 777.616V756.657H395.639V778.614L378.155 784.104L362.17 777.616Z" fill="#C4C4C4"/>
<path d="M440.598 764.642V756.657H476.564V774.123L443.095 764.143L440.598 764.642Z" fill="#C4C4C4"/>
<path d="M241.282 776.618V756.657H293.234V776.618L267.758 785.102L241.282 776.618Z" fill="#C4C4C4"/>
<rect x="437.599" y="576.511" width="87.9183" height="24.951" fill="#003C43"/>
<rect x="437.599" y="606.452" width="87.9183" height="24.9509" fill="#003C43"/>
<ellipse cx="484.555" cy="581.501" rx="14.9861" ry="14.9706" fill="#003C43"/>
<path d="M525.519 956.764H12.9941V967.743H525.519V956.764Z" fill="#CCCCCC"/>
<path d="M160.2 658.4H158.5C158.4 658.4 158.4 658.3 158.4 658.2C158.4 658.1 158.4 658 158.5 658H159C159.1 658 159.1 658 159.1 657.9V650.8C159.1 650.8 159.1 650.8 159.1 650.7C159.1 650.7 159.1 650.7 159 650.7H158.5C158.4 650.7 158.4 650.6 158.4 650.5C158.4 650.4 158.4 650.3 158.5 650.3H160.2L162.4 650.2C163.2 650.2 163.8 650.4 164.3 650.9C164.8 651.4 165.1 651.9 165.1 652.6C165.1 653.3 164.8 653.9 164.3 654.3C163.8 654.7 163.1 655 162.2 655H161.2V657.8C161.2 657.9 161.2 657.9 161.3 657.9H162.2C162.3 657.9 162.3 658 162.3 658.1C162.3 658.2 162.3 658.3 162.2 658.3L160.2 658.4ZM161.3 654.8H161.6C161.9 654.8 162.1 654.7 162.3 654.5C162.5 654.3 162.6 654.1 162.7 653.8C162.8 653.5 162.8 653.2 162.8 652.8C162.8 652.2 162.7 651.7 162.5 651.3C162.3 650.9 162 650.8 161.6 650.8H161.4C161.4 650.8 161.4 650.8 161.3 650.8C161.3 650.8 161.3 650.8 161.3 650.9V654.8Z" fill="black"/>
<path d="M167.5 658.4H165.8C165.7 658.4 165.7 658.3 165.7 658.2C165.7 658.1 165.7 658 165.8 658H166.3C166.4 658 166.4 658 166.4 657.9V650.8C166.4 650.8 166.4 650.8 166.4 650.7C166.4 650.7 166.4 650.7 166.3 650.7H165.8C165.7 650.7 165.7 650.6 165.7 650.5C165.7 650.4 165.7 650.3 165.8 650.3H167.5L171.5 650.2C171.6 650.2 171.6 650.2 171.6 650.3L171.7 652.7C171.7 652.8 171.6 652.8 171.5 652.8C171.4 652.8 171.3 652.8 171.3 652.7V652.2C171.2 651.2 170.7 650.7 169.8 650.7H168.8C168.7 650.7 168.7 650.7 168.7 650.8V654.1H169.2C169.5 654.1 169.7 654 169.8 653.8C169.9 653.6 170 653.4 170 653.1V652.9C170 652.8 170.1 652.8 170.2 652.8C170.3 652.8 170.4 652.8 170.4 652.9V654.3V655.7C170.4 655.8 170.3 655.8 170.2 655.8C170.1 655.8 170 655.8 170 655.7V655.5C170 655.2 169.9 655 169.8 654.8C169.7 654.6 169.4 654.5 169.2 654.5H168.7V657.8C168.7 657.9 168.7 657.9 168.8 657.9C168.9 657.9 168.9 658 169 658H170.1C171.1 658 171.6 657.4 171.7 656.4V655.8C171.7 655.7 171.8 655.7 171.9 655.7C172 655.7 172.1 655.7 172.1 655.8L172 658.4C172 658.5 172 658.5 171.9 658.5L167.5 658.4Z" fill="black"/>
<path d="M176.5 658.6C176.1 658.6 175.7 658.5 175.4 658.4C175 658.3 174.7 658.1 174.4 657.8C174.1 657.6 173.8 657.3 173.6 656.9C173.4 656.6 173.2 656.2 173 655.7C172.9 655.2 172.8 654.8 172.8 654.3C172.8 653.7 172.9 653.1 173.1 652.6C173.3 652.1 173.6 651.6 174 651.2C174.4 650.8 174.8 650.5 175.2 650.3C175.7 650.1 176.1 650 176.6 650C176.8 650 177.1 650 177.3 650.1C177.5 650.2 177.7 650.2 177.8 650.2C177.9 650.2 178 650.3 178.2 650.4C178.4 650.5 178.5 650.5 178.6 650.5C178.7 650.5 178.8 650.4 178.8 650.3V650.2C178.8 650.1 178.9 650 179 650C179.1 650 179.1 650 179.2 650.1L179.3 652.9C179.3 653 179.2 653 179.1 653C179 653 178.9 653 178.9 652.9V652.4C178.9 651.8 178.6 651.3 178.3 650.9C178 650.5 177.5 650.3 176.9 650.3C176.6 650.3 176.4 650.3 176.2 650.4C176 650.5 175.9 650.6 175.7 650.8C175.6 651 175.5 651.2 175.4 651.5C175.3 651.8 175.3 652.2 175.2 652.6C175.2 653 175.2 653.5 175.2 654.1C175.2 654.7 175.2 655.2 175.2 655.6C175.2 656 175.3 656.4 175.4 656.7C175.5 657 175.6 657.2 175.7 657.4C175.8 657.6 176 657.7 176.2 657.8C176.4 657.9 176.6 657.9 176.9 657.9C177.4 657.9 177.8 657.7 178.2 657.3C178.6 656.9 178.8 656.3 178.8 655.7V655.2C178.8 655.1 178.9 655.1 179 655.1C179.1 655.1 179.2 655.1 179.2 655.2L179.1 658.2C179.1 658.3 179 658.3 178.9 658.3C178.8 658.3 178.8 658.3 178.8 658.3V658.2V658.1C178.8 658 178.7 657.9 178.6 657.9C178.5 657.9 178.4 657.9 178.2 658C178 658.1 177.8 658.2 177.7 658.2C177.6 658.2 177.4 658.3 177.2 658.3C176.9 658.6 176.7 658.6 176.5 658.6Z" fill="black"/>
<path d="M183.3 658.4H181.5C181.4 658.4 181.4 658.3 181.4 658.2C181.4 658.1 181.4 658 181.5 658H182.1C182.2 658 182.2 658 182.2 657.9V650.8C182.2 650.7 182.2 650.7 182.1 650.7H181.6C181.4 650.7 181.2 650.8 181.1 650.9C180.9 651 180.8 651.1 180.7 651.3C180.6 651.4 180.5 651.6 180.5 651.8C180.4 652 180.4 652.1 180.4 652.3L180.3 652.9C180.3 653 180.2 653 180.1 653C180 653 179.9 653 179.9 652.9L180 650.4C180 650.3 180 650.3 180.1 650.3L183.3 650.4L186.5 650.3C186.6 650.3 186.6 650.3 186.6 650.4L186.7 652.9C186.7 653 186.6 653 186.5 653C186.4 653 186.3 653 186.3 652.9L186.2 652.3C186.2 652.1 186.1 652 186.1 651.8C186 651.6 186 651.5 185.9 651.3C185.8 651.2 185.7 651 185.5 650.9C185.3 650.8 185.2 650.7 185 650.7H184.5C184.4 650.7 184.4 650.7 184.4 650.8V658C184.4 658.1 184.4 658.1 184.5 658.1H185.1C185.2 658.1 185.2 658.2 185.2 658.3C185.2 658.4 185.2 658.5 185.1 658.5L183.3 658.4Z" fill="black"/>
<path d="M191.2 658.6C190.7 658.6 190.2 658.5 189.7 658.3C189.2 658.1 188.8 657.8 188.4 657.4C188 657 187.7 656.6 187.5 656C187.3 655.5 187.2 654.9 187.2 654.3C187.2 653.7 187.3 653.1 187.5 652.6C187.7 652.1 188 651.6 188.4 651.3C188.8 651 189.2 650.6 189.7 650.4C190.2 650.2 190.7 650.1 191.2 650.1C191.7 650.1 192.2 650.2 192.7 650.4C193.2 650.6 193.6 650.9 194 651.3C194.4 651.7 194.7 652.1 194.9 652.6C195.1 653.1 195.2 653.7 195.2 654.3C195.2 654.9 195.1 655.5 194.9 656C194.7 656.5 194.4 657 194 657.4C193.6 657.8 193.2 658.1 192.7 658.3C192.3 658.5 191.8 658.6 191.2 658.6ZM191.2 658.2C191.4 658.2 191.5 658.2 191.6 658.2C191.7 658.2 191.9 658.1 192 658.1C192.1 658 192.2 658 192.3 657.9C192.4 657.8 192.4 657.7 192.5 657.6C192.6 657.5 192.6 657.3 192.6 657.2C192.6 657.1 192.7 656.9 192.7 656.7C192.7 656.5 192.7 656.3 192.8 656.1C192.8 655.9 192.8 655.6 192.8 655.4C192.8 655.2 192.8 654.9 192.8 654.6C192.8 654.2 192.8 653.9 192.8 653.6C192.8 653.3 192.8 653 192.7 652.7C192.7 652.4 192.6 652.2 192.6 652C192.6 651.8 192.5 651.6 192.4 651.5C192.3 651.3 192.2 651.2 192.1 651.1C192 651 191.8 650.9 191.7 650.9C191.5 650.8 191.4 650.8 191.1 650.8C190.8 650.8 190.7 650.8 190.6 650.9C190.5 651 190.3 651 190.2 651.1C190.1 651.2 190 651.3 189.9 651.5C189.8 651.7 189.8 651.8 189.7 652C189.6 652.2 189.6 652.4 189.6 652.7C189.6 653 189.6 653.3 189.5 653.6C189.5 653.9 189.5 654.2 189.5 654.6C189.5 655 189.5 655.3 189.5 655.5C189.5 655.8 189.5 656 189.5 656.3C189.5 656.6 189.5 656.8 189.6 657C189.6 657.2 189.7 657.4 189.7 657.5C189.8 657.7 189.8 657.8 189.9 657.9C190 658 190.1 658.1 190.2 658.2C190.3 658.3 190.4 658.3 190.6 658.4C190.9 658.2 191 658.2 191.2 658.2Z" fill="black"/>
<path d="M197.7 658.4H196C195.9 658.4 195.9 658.3 195.9 658.2C195.9 658.1 195.9 658 196 658H196.5C196.6 658 196.6 658 196.6 657.9V650.8C196.6 650.8 196.6 650.8 196.6 650.7C196.6 650.7 196.6 650.7 196.5 650.7H196C195.9 650.7 195.9 650.6 195.9 650.5C195.9 650.4 195.9 650.3 196 650.3H197.7L199.9 650.2C200.7 650.2 201.3 650.4 201.8 650.9C202.3 651.4 202.6 651.9 202.6 652.6C202.6 653.3 202.3 653.9 201.8 654.3C201.3 654.7 200.6 655 199.7 655H198.7V657.8C198.7 657.9 198.7 657.9 198.8 657.9H199.6C199.7 657.9 199.7 658 199.7 658.1C199.7 658.2 199.7 658.3 199.6 658.3L197.7 658.4ZM198.8 654.8H199.1C199.4 654.8 199.6 654.7 199.8 654.5C200 654.3 200.1 654.1 200.2 653.8C200.3 653.5 200.3 653.2 200.3 652.8C200.3 652.2 200.2 651.7 200 651.3C199.8 650.9 199.5 650.8 199.1 650.8H198.9C198.9 650.8 198.9 650.8 198.8 650.8C198.8 650.8 198.8 650.8 198.8 650.9V654.8Z" fill="black"/>
<path d="M202.9 658.4H202C201.9 658.4 201.9 658.3 201.9 658.2C201.9 658.1 201.9 658 202 658H202.4C202.6 658 202.7 657.9 202.7 657.8L205.2 650.4C205.3 650.2 205.4 650.1 205.7 650.1C206 650.1 206.1 650.2 206.2 650.4L208.7 657.9C208.7 658 208.7 658 208.8 658H209.3C209.4 658 209.4 658.1 209.4 658.2C209.4 658.3 209.4 658.4 209.3 658.4H207.6H205.8C205.7 658.4 205.7 658.3 205.7 658.2C205.7 658.1 205.7 658 205.8 658H206.5C206.6 658 206.6 658 206.6 657.9C206.6 657.9 206.6 657.8 206.5 657.7L205.8 655.6H204L203.3 657.6C203.3 657.6 203.3 657.6 203.3 657.7C203.3 657.8 203.3 657.8 203.3 657.8C203.3 657.8 203.3 657.8 203.3 657.9C203.3 658 203.3 658 203.4 658L203.5 658.1H204.1C204.2 658.1 204.2 658.2 204.2 658.3C204.2 658.4 204.2 658.5 204.1 658.5L202.9 658.4ZM204.2 655.2H205.7L205 653L204.2 655.2Z" fill="black"/>
<path d="M216.001 658.4H214.301C214.201 658.3 214.201 658.3 214.201 658.2C214.201 658.1 214.201 658 214.301 658H214.801C214.901 658 214.901 658 214.901 657.9V654.5H212.501V657.9C212.501 658 212.501 658 212.601 658H213.101C213.201 658 213.201 658.1 213.201 658.2C213.201 658.3 213.201 658.4 213.101 658.4H211.401H209.701C209.601 658.4 209.601 658.3 209.601 658.2C209.601 658.1 209.601 658 209.701 658H210.201C210.301 658 210.301 658 210.301 657.9V650.8C210.301 650.8 210.301 650.8 210.301 650.7C210.301 650.7 210.301 650.7 210.201 650.7H209.701C209.601 650.7 209.601 650.6 209.601 650.5C209.601 650.4 209.601 650.3 209.701 650.3H211.401H213.101C213.201 650.3 213.201 650.4 213.201 650.5C213.201 650.6 213.201 650.7 213.101 650.7H212.601C212.601 650.7 212.601 650.7 212.501 650.7C212.501 650.7 212.501 650.7 212.501 650.8V654.1H214.901V650.8C214.901 650.8 214.901 650.8 214.901 650.7C214.901 650.7 214.901 650.7 214.801 650.7H214.301C214.201 650.7 214.201 650.6 214.201 650.5C214.201 650.4 214.201 650.3 214.301 650.3H216.001H217.701C217.801 650.3 217.801 650.4 217.801 650.5C217.801 650.6 217.801 650.7 217.701 650.7H217.201C217.201 650.7 217.101 650.7 217.101 650.8V658C217.101 658.1 217.101 658.1 217.201 658.1H217.701C217.801 658.1 217.801 658.2 217.801 658.3C217.801 658.4 217.801 658.5 217.701 658.5L216.001 658.4Z" fill="black"/>
<path d="M221.2 660.1C221.1 660.1 221 660.1 221 660V658.1C221 658 221 658 221.1 658H221.6C221.8 657.8 222 657.5 222.1 657.2C222.2 656.9 222.3 656.4 222.4 655.9C222.6 654.6 222.7 653.1 222.8 651.2C222.8 651 222.8 650.8 222.7 650.7C222.6 650.6 222.5 650.6 222.2 650.6H221.7C221.6 650.6 221.6 650.5 221.6 650.4C221.6 650.3 221.6 650.2 221.7 650.2H223.4H226.3H228C228.1 650.2 228.1 650.3 228.1 650.4C228.1 650.5 228.1 650.6 228 650.6H227.5C227.5 650.6 227.5 650.6 227.4 650.6C227.4 650.6 227.4 650.6 227.4 650.7V657.8C227.4 657.9 227.4 657.9 227.5 657.9H228.3C228.4 657.9 228.4 657.9 228.4 658V659.9C228.4 660 228.3 660 228.2 660C228.1 660 228 660 228 659.9V659.6C228 659.2 227.8 658.8 227.6 658.6C227.3 658.4 226.9 658.3 226.3 658.3H223.1C222.5 658.3 222.1 658.4 221.8 658.6C221.5 658.8 221.4 659.1 221.4 659.6V659.9C221.3 660.1 221.3 660.1 221.2 660.1ZM222.3 657.9H225.2C225.2 657.9 225.2 657.9 225.3 657.9C225.3 657.9 225.3 657.9 225.3 657.8V650.9C225.3 650.8 225.3 650.8 225.2 650.8H223.7C223.5 650.8 223.4 650.8 223.3 650.9C223.2 651 223.2 651.1 223.2 651.3C223.1 653.2 223 654.7 222.8 655.7C222.7 656.2 222.7 656.6 222.6 657C222.6 657.4 222.4 657.7 222.3 657.9Z" fill="black"/>
<path d="M230 658.6C229.6 658.6 229.2 658.5 229 658.2C228.8 658 228.7 657.6 228.7 657.2C228.7 656.9 228.8 656.7 228.9 656.5C229.1 656.3 229.3 656.3 229.5 656.3C229.7 656.3 229.9 656.4 230 656.5C230.1 656.6 230.2 656.8 230.2 657C230.2 657.1 230.2 657.3 230.1 657.4C230 657.5 230 657.6 229.9 657.6C229.8 657.7 229.8 657.7 229.7 657.8C229.6 657.9 229.6 657.9 229.6 658C229.6 658.1 229.6 658.1 229.7 658.2C229.8 658.3 229.9 658.3 230 658.3C230.1 658.3 230.2 658.3 230.3 658.2C230.4 658.2 230.5 658.1 230.5 658C230.6 657.9 230.6 657.8 230.7 657.8C230.8 657.7 230.8 657.6 230.8 657.5C230.8 657.4 230.9 657.3 230.9 657.2C230.9 657.1 231 657 231 656.8C231 656.6 231 656.5 231.1 656.4C231.1 656.3 231.1 656.2 231.2 656C231.3 654.8 231.4 653.3 231.5 651.4C231.5 651.2 231.5 651 231.4 650.9C231.3 650.8 231.2 650.8 230.9 650.8H230.4C230.3 650.8 230.3 650.7 230.3 650.6C230.3 650.5 230.3 650.4 230.4 650.4H232.1H234.6H236.2C236.3 650.4 236.3 650.5 236.3 650.6C236.3 650.7 236.3 650.8 236.2 650.8H235.7C235.7 650.8 235.6 650.8 235.6 650.9V658.1C235.6 658.2 235.6 658.2 235.7 658.2H236.2C236.3 658.2 236.3 658.3 236.3 658.4C236.3 658.5 236.3 658.6 236.2 658.6H234.5H232.8C232.7 658.6 232.7 658.5 232.7 658.4C232.7 658.3 232.7 658.2 232.8 658.2H233.3C233.3 658.2 233.4 658.2 233.4 658.1V651.1C233.4 651 233.4 651 233.3 651H232.3C232.1 651 232 651 231.9 651.1C231.8 651.2 231.8 651.3 231.8 651.5C231.7 653.4 231.7 655 231.5 656.1C231.5 656.3 231.5 656.4 231.4 656.5C231.4 656.6 231.4 656.8 231.3 656.9C231.2 657 231.2 657.2 231.2 657.3C231.2 657.4 231.1 657.5 231.1 657.7C231.1 657.8 231 658 231 658C230.9 658.1 230.9 658.2 230.8 658.3C230.7 658.4 230.6 658.5 230.6 658.5C230.5 658.6 230.4 658.6 230.3 658.6C230.2 658.6 230.1 658.6 230 658.6Z" fill="black"/>
<path d="M237.7 658.6C237.3 658.6 237.1 658.5 236.8 658.4C236.6 658.3 236.5 658.1 236.5 657.9V657.8L236.6 657.7C236.7 657.7 236.7 657.7 236.8 657.8C236.9 657.9 236.9 657.9 236.9 658C237 658.1 237.1 658.1 237.2 658.1C237.3 658.1 237.4 658.1 237.5 658C237.6 657.9 237.6 657.8 237.6 657.7C237.6 657.6 237.6 657.4 237.5 657.1C237.4 656.8 237.4 656.5 237.4 656.2C237.4 655.7 237.6 655.3 238 655C238.4 654.7 238.9 654.5 239.5 654.5C239.6 654.5 239.6 654.5 239.6 654.4C239.6 654.3 239.6 654.3 239.5 654.3C239.2 654.3 239 654.3 238.7 654.2C238.5 654.1 238.2 654 238 653.9C237.8 653.8 237.6 653.6 237.5 653.3C237.4 653.1 237.3 652.8 237.3 652.5C237.3 651.9 237.5 651.4 238 651C238.5 650.6 239 650.4 239.7 650.4C239.8 650.4 240.2 650.4 240.9 650.4C241.7 650.4 242.1 650.4 242.1 650.4H243.8C243.9 650.4 243.9 650.5 243.9 650.6C243.9 650.7 243.9 650.8 243.8 650.8H243.3C243.3 650.8 243.3 650.8 243.2 650.8C243.2 650.8 243.2 650.8 243.2 650.9V658.1C243.2 658.2 243.2 658.2 243.3 658.2H243.8C243.9 658.2 243.9 658.3 243.9 658.4C243.9 658.5 243.9 658.6 243.8 658.6H242.1H240.3C240.2 658.5 240.2 658.5 240.2 658.4C240.2 658.3 240.2 658.2 240.3 658.2H241C241 658.2 241.1 658.2 241.1 658.1V654.7H240.8C240.7 654.7 240.5 654.7 240.4 654.7C240.3 654.7 240.2 654.8 240.1 654.8C240 654.9 239.9 654.9 239.8 655.1C239.7 655.3 239.7 655.4 239.6 655.5C239.6 655.7 239.5 655.9 239.5 656.2C239.5 656.6 239.5 657 239.4 657.2C239.3 657.5 239.2 657.8 239.1 658C238.9 658.2 238.7 658.4 238.5 658.5C238.4 658.6 238.1 658.6 237.7 658.6ZM241 654.2H241.2V650.8C241.2 650.7 241.2 650.7 241.1 650.7C240.2 650.7 239.8 651.3 239.8 652.5C239.8 653.1 239.9 653.5 240.1 653.8C240.3 654.1 240.6 654.2 241 654.2Z" fill="black"/>
<path d="M247.6 658.5C247.5 658.5 247.5 658.4 247.5 658.3C247.5 658.2 247.5 658.1 247.6 658.1H248.1C248.2 658.1 248.2 658.1 248.2 658V650.8C248.2 650.8 248.2 650.8 248.2 650.7C248.2 650.7 248.2 650.7 248.1 650.7H247.6C247.5 650.7 247.5 650.6 247.5 650.5C247.5 650.4 247.5 650.3 247.6 650.3H249.3L253 650.2C253.1 650.2 253.1 650.2 253.1 650.3L253.2 652.7C253.2 652.8 253.1 652.8 253 652.8C252.9 652.8 252.8 652.8 252.8 652.7V652.3C252.8 651.8 252.6 651.4 252.3 651.2C252 650.9 251.7 650.8 251.2 650.8H250.4C250.3 650.8 250.3 650.8 250.3 650.9V658.1C250.3 658.2 250.3 658.2 250.4 658.2H251.2C251.3 658.2 251.3 658.3 251.3 658.4C251.3 658.5 251.3 658.6 251.2 658.6H249.3L247.6 658.5Z" fill="black"/>
<path d="M255.6 658.4H253.9C253.8 658.4 253.8 658.3 253.8 658.2C253.8 658.1 253.8 658 253.9 658H254.4C254.5 658 254.5 658 254.5 657.9V650.8C254.5 650.8 254.5 650.8 254.5 650.7C254.5 650.7 254.5 650.7 254.4 650.7H253.9C253.8 650.7 253.8 650.6 253.8 650.5C253.8 650.4 253.8 650.3 253.9 650.3H255.6L257.8 650.2C258.6 650.2 259.2 650.4 259.7 650.9C260.2 651.4 260.5 651.9 260.5 652.6C260.5 653.3 260.2 653.9 259.7 654.3C259.2 654.7 258.5 655 257.6 655H256.6V657.8C256.6 657.9 256.6 657.9 256.7 657.9H257.5C257.6 657.9 257.6 658 257.6 658.1C257.6 658.2 257.6 658.3 257.5 658.3L255.6 658.4ZM256.7 654.8H257C257.3 654.8 257.5 654.7 257.7 654.5C257.9 654.3 258 654.1 258.1 653.8C258.2 653.5 258.2 653.2 258.2 652.8C258.2 652.2 258.1 651.7 257.9 651.3C257.7 650.9 257.4 650.8 257 650.8H256.8C256.8 650.8 256.8 650.8 256.7 650.8C256.7 650.8 256.7 650.8 256.7 650.9V654.8Z" fill="black"/>
<path d="M262.801 658.6C262.401 658.6 262.201 658.5 262.001 658.2C261.801 658 261.701 657.7 261.701 657.3C261.701 657 261.801 656.8 261.901 656.7C262.001 656.5 262.201 656.5 262.401 656.5C262.601 656.5 262.701 656.6 262.801 656.7C262.901 656.8 263.001 657 263.001 657.1C263.001 657.2 263.001 657.3 262.901 657.4C262.901 657.5 262.801 657.5 262.801 657.6C262.701 657.6 262.701 657.7 262.701 657.8C262.701 657.9 262.601 657.9 262.601 658C262.601 658.2 262.701 658.3 262.901 658.3C263.301 658.3 263.601 658 263.901 657.3C263.901 657.3 263.901 657.2 264.001 657.1C264.101 657 264.101 656.9 264.101 656.9L261.301 651L261.201 650.9H260.701C260.601 650.9 260.601 650.8 260.601 650.7C260.601 650.6 260.601 650.5 260.701 650.5H262.601H264.301C264.401 650.5 264.401 650.6 264.401 650.7C264.401 650.8 264.401 650.9 264.301 650.9H263.701C263.601 650.9 263.601 650.9 263.601 651C263.601 651 263.601 651.1 263.701 651.3L265.101 654.4L266.301 651.4C266.401 651.2 266.401 651.1 266.401 651.1V651H266.301H265.701C265.601 651 265.601 650.9 265.601 650.8C265.601 650.7 265.601 650.6 265.701 650.6H266.801H267.801C267.901 650.6 267.901 650.7 267.901 650.8C267.901 650.9 267.901 651 267.801 651H267.401C267.301 651 267.201 651.1 267.101 651.2L264.701 657.2C264.401 657.8 264.201 658.3 263.901 658.5C263.501 658.5 263.201 658.6 262.801 658.6Z" fill="black"/>
<path d="M271.301 658.6C270.901 658.6 270.501 658.5 270.201 658.4C269.801 658.3 269.501 658.1 269.201 657.8C268.901 657.6 268.601 657.3 268.401 656.9C268.201 656.6 268.001 656.2 267.801 655.7C267.701 655.2 267.601 654.8 267.601 654.3C267.601 653.7 267.701 653.1 267.901 652.6C268.101 652.1 268.401 651.6 268.801 651.2C269.201 650.8 269.601 650.5 270.001 650.3C270.501 650.1 270.901 650 271.401 650C271.601 650 271.901 650 272.101 650.1C272.301 650.2 272.501 650.2 272.601 650.2C272.701 650.2 272.801 650.3 273.001 650.4C273.201 650.5 273.301 650.5 273.401 650.5C273.501 650.5 273.601 650.4 273.601 650.3V650.2C273.601 650.1 273.701 650 273.801 650C273.901 650 273.901 650 274.001 650.1L274.101 652.9C274.101 653 274.001 653 273.901 653C273.801 653 273.701 653 273.701 652.9V652.4C273.701 651.8 273.401 651.3 273.101 650.9C272.801 650.5 272.301 650.3 271.701 650.3C271.401 650.3 271.201 650.3 271.001 650.4C270.801 650.5 270.701 650.6 270.501 650.8C270.401 651 270.301 651.2 270.201 651.5C270.101 651.8 270.101 652.2 270.001 652.6C270.001 653 270.001 653.5 270.001 654.1C270.001 654.7 270.001 655.2 270.001 655.6C270.001 656 270.101 656.4 270.201 656.7C270.301 657 270.401 657.2 270.501 657.4C270.601 657.6 270.801 657.7 271.001 657.8C271.201 657.9 271.401 657.9 271.701 657.9C272.201 657.9 272.601 657.7 273.001 657.3C273.401 656.9 273.601 656.3 273.601 655.7V655.2C273.601 655.1 273.701 655.1 273.801 655.1C273.901 655.1 274.001 655.1 274.001 655.2L273.901 658.2C273.901 658.3 273.801 658.3 273.701 658.3C273.601 658.3 273.601 658.3 273.601 658.3V658.2V658.1C273.601 658 273.501 657.9 273.401 657.9C273.301 657.9 273.201 657.9 273.001 658C272.801 658.1 272.601 658.2 272.501 658.2C272.401 658.2 272.201 658.3 272.001 658.3C271.801 658.6 271.501 658.6 271.301 658.6Z" fill="black"/>
<path d="M278.1 658.4H276.3C276.2 658.4 276.2 658.3 276.2 658.2C276.2 658.1 276.2 658 276.3 658H277C277.1 658 277.1 658 277.1 657.9V650.8C277.1 650.7 277.1 650.7 277 650.7H276.5C276.3 650.7 276.1 650.8 276 650.9C275.9 651 275.7 651.1 275.6 651.3C275.5 651.4 275.4 651.6 275.4 651.8C275.3 652 275.3 652.1 275.3 652.3L275.2 652.9C275.2 653 275.1 653 275 653C274.9 653 274.8 653 274.8 652.9L274.9 650.4C274.9 650.3 274.9 650.3 275 650.3L278.2 650.4L281.4 650.3C281.5 650.3 281.5 650.3 281.5 650.4L281.6 652.9C281.6 653 281.5 653 281.4 653C281.3 653 281.2 653 281.2 652.9L281.1 652.3C281.1 652.1 281 652 281 651.8C280.9 651.6 280.9 651.5 280.8 651.3C280.7 651.2 280.6 651 280.4 650.9C280.2 650.8 280.1 650.7 279.9 650.7H279.4C279.3 650.7 279.3 650.7 279.3 650.8V658C279.3 658.1 279.3 658.1 279.4 658.1H280C280.1 658.1 280.1 658.2 280.1 658.3C280.1 658.4 280.1 658.5 280 658.5L278.1 658.4Z" fill="black"/>
<path d="M288.4 658.4H286.7C286.6 658.3 286.6 658.3 286.6 658.2C286.6 658.1 286.6 658 286.7 658H287.2C287.3 658 287.3 658 287.3 657.9V654.5H284.9V657.9C284.9 658 284.9 658 285 658H285.5C285.6 658 285.6 658.1 285.6 658.2C285.6 658.3 285.6 658.4 285.5 658.4H283.8H282.1C282 658.4 282 658.3 282 658.2C282 658.1 282 658 282.1 658H282.6C282.7 658 282.7 658 282.7 657.9V650.8C282.7 650.8 282.7 650.8 282.7 650.7C282.7 650.7 282.7 650.7 282.6 650.7H282.2C282.1 650.7 282.1 650.6 282.1 650.5C282.1 650.4 282.1 650.3 282.2 650.3H283.9H285.6C285.7 650.3 285.7 650.4 285.7 650.5C285.7 650.6 285.7 650.7 285.6 650.7H285.1C285.1 650.7 285.1 650.7 285 650.7C285 650.7 285 650.7 285 650.8V654.1H287.4V650.8C287.4 650.8 287.4 650.8 287.4 650.7C287.4 650.7 287.4 650.7 287.3 650.7H286.8C286.7 650.7 286.7 650.6 286.7 650.5C286.7 650.4 286.7 650.3 286.8 650.3H288.5H290.2C290.3 650.3 290.3 650.4 290.3 650.5C290.3 650.6 290.3 650.7 290.2 650.7H289.7C289.6 650.7 289.6 650.7 289.6 650.8V658C289.6 658.1 289.6 658.1 289.7 658.1H290.2C290.3 658.1 290.3 658.2 290.3 658.3C290.3 658.4 290.3 658.5 290.2 658.5L288.4 658.4Z" fill="black"/>
<path d="M291.1 658.5C291 658.5 291 658.4 291 658.3C291 658.2 291 658.1 291.1 658.1H291.6C291.7 658.1 291.7 658.1 291.7 658V650.8C291.7 650.8 291.7 650.8 291.7 650.7C291.7 650.7 291.7 650.7 291.6 650.7H291.1C291 650.7 291 650.6 291 650.5C291 650.4 291 650.3 291.1 650.3H292.8H294.7C294.8 650.3 294.8 650.4 294.8 650.5C294.8 650.6 294.8 650.7 294.7 650.7H294C294 650.7 293.9 650.7 293.9 650.8V653.6H294.9C295.8 653.6 296.5 653.8 297 654.3C297.5 654.7 297.8 655.3 297.8 656C297.8 656.7 297.5 657.3 297 657.8C296.5 658.3 295.8 658.5 295.1 658.5L292.9 658.4L291.1 658.5ZM293.9 658.1H294.1C294.5 658.1 294.8 657.9 295 657.5C295.2 657.1 295.3 656.6 295.3 656C295.3 655.4 295.2 654.9 295 654.5C294.8 654.1 294.5 654 294.1 654H293.8L293.9 658.1C293.9 658.1 293.9 658 293.9 658.1ZM299.3 658.5H297.6C297.5 658.5 297.5 658.4 297.5 658.3C297.5 658.2 297.5 658.1 297.6 658.1H298.1C298.2 658.1 298.2 658.1 298.2 658V650.8C298.2 650.7 298.2 650.7 298.1 650.7H297.6C297.5 650.7 297.5 650.6 297.5 650.5C297.5 650.4 297.5 650.3 297.6 650.3H299.3H301C301.1 650.3 301.1 650.4 301.1 650.5C301.1 650.6 301.1 650.7 301 650.7H300.5C300.5 650.7 300.4 650.7 300.4 650.8V658C300.4 658.1 300.4 658.1 300.5 658.1H301C301.1 658.1 301.1 658.2 301.1 658.3C301.1 658.4 301.1 658.5 301 658.5H299.3Z" fill="black"/>
<path d="M302.5 658.4H301.3C301.2 658.4 301.2 658.3 301.2 658.2C301.2 658.1 301.2 658 301.3 658H301.9C302 658 302.2 657.9 302.2 657.8L304.3 654.6L302.2 650.8L302.1 650.7H301.6C301.5 650.7 301.5 650.6 301.5 650.5C301.5 650.4 301.5 650.3 301.6 650.3H303.6H305.1C305.2 650.3 305.2 650.4 305.2 650.5C305.2 650.6 305.2 650.7 305.1 650.7H304.7C304.6 650.7 304.6 650.7 304.6 650.8C304.6 650.8 304.7 650.9 304.8 651.1L305.9 653.3L307.4 651C307.5 650.9 307.5 650.9 307.5 650.8V650.7H307.4H306.9C306.8 650.7 306.8 650.6 306.8 650.5C306.8 650.4 306.8 650.3 306.9 650.3H307.8H308.9C309 650.3 309 650.4 309 650.5C309 650.6 309 650.7 308.9 650.7H308.4C308.2 650.7 308.1 650.8 308.1 650.9L306.2 653.8L308.5 658C308.5 658.1 308.6 658.1 308.6 658.1H309.1C309.2 658.1 309.2 658.2 309.2 658.3C309.2 658.4 309.2 658.5 309.1 658.5H307H305.3C305.2 658.4 305.2 658.4 305.2 658.3C305.2 658.2 305.2 658.1 305.3 658.1H306C306.1 658.1 306.1 658.1 306.1 658C306.1 658 306.1 657.9 306 657.8L304.6 655.2L302.9 657.9C302.9 658 302.8 658 302.8 658.1V658.2H302.9H303.6C303.7 658.3 303.7 658.3 303.7 658.4C303.7 658.5 303.7 658.6 303.6 658.6L302.5 658.4Z" fill="black"/>
<path d="M318.2 658.6C317.9 658.6 317.6 658.6 317.3 658.5C317.1 658.4 316.9 658.3 316.7 658.2C316.5 658.1 316.4 657.9 316.3 657.7C316.2 657.5 316.2 657.3 316.1 657C316.1 656.8 316.1 656.5 316.1 656.1C316.1 655.4 316 655 315.8 654.7C315.6 654.4 315.4 654.3 315 654.3H314.8V657.9C314.8 658 314.8 658 314.9 658H315.4C315.5 658 315.5 658.1 315.5 658.2C315.5 658.3 315.5 658.4 315.4 658.4H313.7H312C311.9 658.4 311.9 658.3 311.9 658.2C311.9 658.1 311.9 658 312 658H312.5C312.6 658 312.6 658 312.6 657.9V650.8C312.6 650.8 312.6 650.8 312.6 650.7C312.6 650.7 312.6 650.7 312.5 650.7H312C311.9 650.7 311.9 650.6 311.9 650.5C311.9 650.4 311.9 650.3 312 650.3H313.7H315.4C315.5 650.3 315.5 650.4 315.5 650.5C315.5 650.6 315.5 650.7 315.4 650.7H314.9C314.9 650.7 314.9 650.7 314.8 650.7C314.8 650.7 314.8 650.7 314.8 650.8V653.9H315.1C315.5 653.9 315.8 653.8 316 653.6C316.2 653.4 316.3 653 316.3 652.6V651.9C316.3 651.4 316.4 651 316.6 650.7C316.8 650.4 317.1 650.3 317.5 650.3C317.8 650.3 318 650.4 318.2 650.6C318.4 650.8 318.5 651 318.5 651.2C318.5 651.4 318.4 651.6 318.3 651.7C318.2 651.9 318 651.9 317.8 651.9C317.7 651.9 317.6 651.9 317.5 651.8C317.4 651.7 317.3 651.7 317.3 651.6C317.3 651.5 317.2 651.4 317.2 651.4C317.2 651.3 317.1 651.3 317.1 651.2C317.1 651.1 317 651.1 317 651.1C316.9 651.1 316.9 651.1 316.8 651.2C316.8 651.2 316.7 651.3 316.7 651.4C316.7 651.5 316.7 651.6 316.6 651.7C316.6 651.8 316.6 651.9 316.6 652.1V652.6C316.6 653.4 316.3 653.9 315.7 654.1C315.7 654.1 315.6 654.1 315.6 654.2C315.6 654.2 315.6 654.3 315.7 654.3C316.1 654.3 316.5 654.4 316.8 654.5C317.1 654.6 317.4 654.7 317.5 654.9C317.7 655.1 317.8 655.3 317.9 655.5C318 655.7 318 656 318 656.2C318 656.4 318 656.7 318 657C318 657.3 318 657.5 318 657.7C318 658.2 318.1 658.4 318.4 658.4C318.5 658.4 318.7 658.3 318.8 658.2C318.9 658.1 319 658 319.1 658H319.2V658.1C319.2 658.3 319.1 658.4 318.9 658.6C318.7 658.8 318.6 658.6 318.2 658.6Z" fill="black"/>
<path d="M320.8 658.6C320.4 658.6 320 658.5 319.8 658.2C319.6 658 319.5 657.6 319.5 657.2C319.5 656.9 319.6 656.7 319.7 656.5C319.9 656.3 320.1 656.3 320.3 656.3C320.5 656.3 320.7 656.4 320.8 656.5C320.9 656.6 321 656.8 321 657C321 657.1 321 657.3 320.9 657.4C320.8 657.5 320.8 657.6 320.7 657.6C320.6 657.7 320.6 657.7 320.5 657.8C320.4 657.9 320.4 657.9 320.4 658C320.4 658.1 320.4 658.1 320.5 658.2C320.6 658.3 320.7 658.3 320.8 658.3C320.9 658.3 321 658.3 321.1 658.2C321.2 658.2 321.3 658.1 321.3 658C321.4 657.9 321.4 657.8 321.5 657.8C321.6 657.7 321.6 657.6 321.6 657.5C321.6 657.4 321.7 657.3 321.7 657.2C321.7 657.1 321.8 657 321.8 656.8C321.8 656.6 321.8 656.5 321.9 656.4C321.9 656.3 321.9 656.2 322 656C322.1 654.8 322.2 653.3 322.3 651.4C322.3 651.2 322.3 651 322.2 650.9C322.1 650.8 322 650.8 321.7 650.8H321.2C321.1 650.8 321.1 650.7 321.1 650.6C321.1 650.5 321.1 650.4 321.2 650.4H322.9H325.4H327C327.1 650.4 327.1 650.5 327.1 650.6C327.1 650.7 327.1 650.8 327 650.8H326.5C326.4 650.8 326.4 650.8 326.4 650.9V658.1C326.4 658.2 326.4 658.2 326.5 658.2H327C327.1 658.2 327.1 658.3 327.1 658.4C327.1 658.5 327.1 658.6 327 658.6H325.3H323.6C323.5 658.6 323.5 658.5 323.5 658.4C323.5 658.3 323.5 658.2 323.6 658.2H324.1C324.2 658.2 324.2 658.2 324.2 658.1V651.1C324.2 651 324.2 651 324.1 651H323.1C322.9 651 322.8 651 322.7 651.1C322.6 651.2 322.6 651.3 322.6 651.5C322.5 653.4 322.5 655 322.3 656.1C322.3 656.3 322.3 656.4 322.2 656.5C322.2 656.6 322.2 656.8 322.1 656.9C322 657 322 657.2 322 657.3C322 657.4 321.9 657.5 321.9 657.7C321.9 657.8 321.8 658 321.8 658C321.7 658.1 321.7 658.2 321.6 658.3C321.5 658.4 321.4 658.5 321.4 658.5C321.3 658.6 321.2 658.6 321.1 658.6C321.1 658.6 321 658.6 320.8 658.6Z" fill="black"/>
<path d="M331.8 658.6C331.3 658.6 330.8 658.5 330.3 658.3C329.8 658.1 329.4 657.8 329 657.4C328.6 657 328.3 656.6 328.1 656C327.9 655.5 327.8 654.9 327.8 654.3C327.8 653.7 327.9 653.1 328.1 652.6C328.3 652.1 328.6 651.6 329 651.3C329.4 651 329.8 650.6 330.3 650.4C330.8 650.2 331.3 650.1 331.8 650.1C332.3 650.1 332.8 650.2 333.3 650.4C333.8 650.6 334.2 650.9 334.6 651.3C335 651.7 335.3 652.1 335.5 652.6C335.7 653.1 335.8 653.7 335.8 654.3C335.8 654.9 335.7 655.5 335.5 656C335.3 656.5 335 657 334.6 657.4C334.2 657.8 333.8 658.1 333.3 658.3C332.9 658.5 332.3 658.6 331.8 658.6ZM331.8 658.2C332 658.2 332.1 658.2 332.2 658.2C332.3 658.2 332.5 658.1 332.6 658.1C332.7 658 332.8 658 332.9 657.9C333 657.8 333.1 657.7 333.1 657.6C333.2 657.5 333.2 657.3 333.2 657.2C333.2 657 333.3 656.9 333.3 656.7C333.3 656.5 333.3 656.3 333.4 656.1C333.4 655.9 333.4 655.6 333.4 655.4C333.4 655.2 333.4 654.9 333.4 654.6C333.4 654.2 333.4 653.9 333.4 653.6C333.4 653.3 333.4 653 333.3 652.7C333.3 652.4 333.2 652.2 333.2 652C333.1 651.8 333.1 651.6 333 651.5C332.9 651.3 332.8 651.2 332.7 651.1C332.6 651 332.4 650.9 332.3 650.9C332.1 650.8 332 650.8 331.8 650.8C331.6 650.8 331.4 650.8 331.3 650.9C331.2 651 331 651 330.9 651.1C330.8 651.2 330.7 651.3 330.6 651.5C330.5 651.7 330.5 651.8 330.4 652C330.4 652.2 330.3 652.4 330.3 652.7C330.3 653 330.3 653.3 330.2 653.6C330.2 653.9 330.2 654.2 330.2 654.6C330.2 655 330.2 655.3 330.2 655.5C330.2 655.8 330.2 656 330.2 656.3C330.2 656.6 330.2 656.8 330.3 657C330.3 657.2 330.4 657.4 330.4 657.5C330.5 657.7 330.5 657.8 330.6 657.9C330.7 658 330.8 658.1 330.9 658.2C331 658.3 331.1 658.3 331.3 658.4C331.4 658.2 331.6 658.2 331.8 658.2Z" fill="black"/>
<path d="M338 658.6C337.6 658.6 337.4 658.5 337.2 658.2C337 658 336.9 657.7 336.9 657.3C336.9 657 337 656.8 337.1 656.7C337.2 656.5 337.4 656.5 337.6 656.5C337.8 656.5 337.9 656.6 338 656.7C338.1 656.8 338.2 657 338.2 657.1C338.2 657.2 338.2 657.3 338.1 657.4C338.1 657.5 338 657.5 338 657.6C337.9 657.6 337.9 657.7 337.9 657.8C337.9 657.9 337.8 657.9 337.8 658C337.8 658.2 337.9 658.3 338.1 658.3C338.5 658.3 338.8 658 339.1 657.3C339.1 657.3 339.1 657.2 339.2 657.1C339.3 657 339.3 656.9 339.3 656.9L336.5 651L336.4 650.9H335.9C335.8 650.9 335.8 650.8 335.8 650.7C335.8 650.6 335.8 650.5 335.9 650.5H337.8H339.5C339.6 650.5 339.6 650.6 339.6 650.7C339.6 650.8 339.6 650.9 339.5 650.9H338.9C338.8 650.9 338.8 650.9 338.8 651C338.8 651 338.8 651.1 338.9 651.3L340.3 654.4L341.5 651.4C341.6 651.2 341.6 651.1 341.6 651.1V651H341.5H340.9C340.8 651 340.8 650.9 340.8 650.8C340.8 650.7 340.8 650.6 340.9 650.6H342H343C343.1 650.6 343.1 650.7 343.1 650.8C343.1 650.9 343.1 651 343 651H342.6C342.5 651 342.4 651.1 342.3 651.2L339.9 657.2C339.6 657.8 339.4 658.3 339.1 658.5C338.8 658.7 338.4 658.6 338 658.6Z" fill="black"/>
<path d="M349.4 658.4H347.7C347.6 658.3 347.6 658.3 347.6 658.2C347.6 658.1 347.6 658 347.7 658H348.2C348.3 658 348.3 658 348.3 657.9V654.5H345.9V657.9C345.9 658 345.9 658 346 658H346.5C346.6 658 346.6 658.1 346.6 658.2C346.6 658.3 346.6 658.4 346.5 658.4H344.8H343.1C343 658.4 343 658.3 343 658.2C343 658.1 343 658 343.1 658H343.6C343.7 658 343.7 658 343.7 657.9V650.8C343.7 650.8 343.7 650.8 343.7 650.7C343.7 650.7 343.7 650.7 343.6 650.7H343.2C343.1 650.7 343.1 650.6 343.1 650.5C343.1 650.4 343.1 650.3 343.2 650.3H344.9H346.6C346.7 650.3 346.7 650.4 346.7 650.5C346.7 650.6 346.7 650.7 346.6 650.7H346.1C346.1 650.7 346.1 650.7 346 650.7C346 650.7 346 650.7 346 650.8V654.1H348.4V650.8C348.4 650.8 348.4 650.8 348.4 650.7C348.4 650.7 348.4 650.7 348.3 650.7H347.8C347.7 650.7 347.7 650.6 347.7 650.5C347.7 650.4 347.7 650.3 347.8 650.3H349.5H351.2C351.3 650.3 351.3 650.4 351.3 650.5C351.3 650.6 351.3 650.7 351.2 650.7H350.7C350.6 650.7 350.6 650.7 350.6 650.8V658C350.6 658.1 350.6 658.1 350.7 658.1H351.2C351.3 658.1 351.3 658.2 351.3 658.3C351.3 658.4 351.3 658.5 351.2 658.5L349.4 658.4Z" fill="black"/>
<path d="M355.9 658.6C355.4 658.6 354.9 658.5 354.4 658.3C353.9 658.1 353.5 657.8 353.1 657.4C352.7 657 352.4 656.6 352.2 656C352 655.5 351.9 654.9 351.9 654.3C351.9 653.7 352 653.1 352.2 652.6C352.4 652.1 352.7 651.6 353.1 651.3C353.5 651 353.9 650.6 354.4 650.4C354.9 650.2 355.4 650.1 355.9 650.1C356.4 650.1 356.9 650.2 357.4 650.4C357.9 650.6 358.3 650.9 358.7 651.3C359.1 651.7 359.4 652.1 359.6 652.6C359.8 653.1 359.9 653.7 359.9 654.3C359.9 654.9 359.8 655.5 359.6 656C359.4 656.5 359.1 657 358.7 657.4C358.3 657.8 357.9 658.1 357.4 658.3C357 658.5 356.5 658.6 355.9 658.6ZM355.9 658.2C356.1 658.2 356.2 658.2 356.3 658.2C356.4 658.2 356.6 658.1 356.7 658.1C356.8 658 356.9 658 357 657.9C357.1 657.8 357.2 657.7 357.2 657.6C357.3 657.5 357.3 657.3 357.3 657.2C357.3 657 357.4 656.9 357.4 656.7C357.4 656.5 357.4 656.3 357.5 656.1C357.5 655.9 357.5 655.6 357.5 655.4C357.5 655.2 357.5 654.9 357.5 654.6C357.5 654.2 357.5 653.9 357.5 653.6C357.5 653.3 357.5 653 357.4 652.7C357.4 652.4 357.3 652.2 357.3 652C357.2 651.8 357.2 651.6 357.1 651.5C357 651.3 356.9 651.2 356.8 651.1C356.7 651 356.5 650.9 356.4 650.9C356.2 650.8 356.1 650.8 355.9 650.8C355.7 650.8 355.5 650.8 355.4 650.9C355.3 651 355.1 651 355 651.1C354.9 651.2 354.8 651.3 354.7 651.5C354.6 651.7 354.6 651.8 354.5 652C354.5 652.2 354.4 652.4 354.4 652.7C354.4 653 354.4 653.3 354.3 653.6C354.3 653.9 354.3 654.2 354.3 654.6C354.3 655 354.3 655.3 354.3 655.5C354.3 655.8 354.3 656 354.3 656.3C354.3 656.6 354.3 656.8 354.4 657C354.4 657.2 354.5 657.4 354.5 657.5C354.6 657.7 354.6 657.8 354.7 657.9C354.8 658 354.9 658.1 355 658.2C355.1 658.3 355.2 658.3 355.4 658.4C355.6 658.2 355.7 658.2 355.9 658.2Z" fill="black"/>
<path d="M362.401 658.4H360.701C360.601 658.4 360.601 658.3 360.601 658.2C360.601 658.1 360.601 658 360.701 658H361.201C361.301 658 361.301 658 361.301 657.9V650.8C361.301 650.8 361.301 650.8 361.301 650.7C361.301 650.7 361.301 650.7 361.201 650.7H360.701C360.601 650.7 360.601 650.6 360.601 650.5C360.601 650.4 360.601 650.3 360.701 650.3H362.401L364.801 650.2C365.501 650.2 366.101 650.4 366.501 650.8C366.901 651.2 367.201 651.6 367.201 652.2C367.201 652.5 367.101 652.7 367.001 653C366.901 653.3 366.701 653.4 366.501 653.6C366.301 653.8 366.101 653.9 365.801 654C365.601 654.1 365.301 654.2 365.101 654.2C365.001 654.2 365.001 654.2 365.001 654.3C365.001 654.4 365.001 654.4 365.101 654.4C365.401 654.4 365.701 654.5 365.901 654.6C366.201 654.7 366.401 654.8 366.601 655C366.801 655.2 367.001 655.4 367.101 655.6C367.201 655.9 367.301 656.2 367.301 656.5C367.301 657.1 367.101 657.6 366.601 658C366.101 658.4 365.501 658.5 364.801 658.5L362.401 658.4ZM363.501 654.2H363.701C364.101 654.2 364.401 654.1 364.601 653.8C364.801 653.5 364.901 653.1 364.901 652.5C364.901 651.9 364.801 651.4 364.601 651.2C364.401 650.9 364.101 650.8 363.701 650.8C363.601 650.8 363.601 650.8 363.601 650.9V654.2H363.501ZM363.501 654.5V658H363.601C364.101 658 364.401 657.9 364.701 657.6C364.901 657.3 365.001 656.8 365.001 656.2C365.001 655.6 364.901 655.1 364.701 654.9C364.501 654.7 364.201 654.5 363.701 654.5H363.501V654.5Z" fill="black"/>
<path d="M139.5 688C138.7 688 137.9 687.9 137.3 687.7C136.7 687.5 136.2 687.3 135.8 687C135.4 686.7 135.1 686.3 134.9 685.8C134.7 685.3 134.5 684.7 134.5 684.1C134.4 683.5 134.4 682.8 134.4 682C134.4 680.4 134.2 679.2 133.7 678.6C133.3 677.9 132.6 677.6 131.7 677.6H131.2V686.5C131.2 686.6 131.3 686.7 131.4 686.7H132.7C132.9 686.8 133 687 133 687.2C133 687.4 132.9 687.6 132.7 687.7L128.5 687.6L124.3 687.7C124.1 687.6 124 687.4 124 687.2C124 687 124.1 686.8 124.3 686.7H125.6C125.7 686.7 125.8 686.6 125.8 686.5V668.8C125.8 668.7 125.8 668.7 125.7 668.7L125.6 668.6H124.4C124.2 668.5 124.1 668.3 124.1 668.1C124.1 667.9 124.2 667.7 124.4 667.6L128.6 667.7L132.8 667.6C133 667.7 133.1 667.9 133.1 668.1C133.1 668.4 133 668.5 132.8 668.6H131.4C131.3 668.6 131.3 668.6 131.3 668.7L131.2 668.8V676.4H132C133 676.4 133.8 676.1 134.3 675.5C134.8 674.9 135.1 674.1 135.1 673L135.2 671.3C135.3 670 135.5 669 136 668.4C136.5 667.7 137.3 667.4 138.3 667.4C139 667.4 139.6 667.6 140 668C140.4 668.4 140.6 668.9 140.6 669.5C140.6 670 140.5 670.5 140.2 670.8C139.9 671.1 139.5 671.4 139 671.4C138.7 671.4 138.4 671.3 138.2 671.2C138 671.1 137.8 670.9 137.7 670.7C137.6 670.5 137.5 670.3 137.5 670.1C137.4 669.9 137.4 669.7 137.3 669.6C137.2 669.5 137.1 669.4 137 669.4C136.8 669.4 136.7 669.4 136.6 669.5C136.5 669.6 136.4 669.8 136.3 670C136.2 670.2 136.2 670.5 136.2 670.7C136.2 670.9 136.1 671.3 136.1 671.7L136 673C135.9 675 135.2 676.3 133.8 676.7C133.7 676.7 133.6 676.8 133.6 676.9C133.6 677 133.7 677 133.8 677C134.8 677 135.7 677.1 136.5 677.4C137.3 677.6 137.9 678 138.3 678.4C138.8 678.8 139.1 679.3 139.3 679.9C139.5 680.4 139.6 681 139.6 681.7C139.6 682.3 139.6 682.9 139.5 683.7C139.4 684.4 139.4 685 139.4 685.3C139.4 686.5 139.8 687.1 140.5 687.1C140.8 687.1 141.2 686.9 141.4 686.6C141.6 686.3 141.8 686.1 142 686.1C142.1 686.1 142.2 686.1 142.3 686.2C142.4 686.3 142.4 686.4 142.4 686.5C142.4 686.9 142.1 687.3 141.6 687.6C141.2 687.9 140.4 688 139.5 688Z" fill="black"/>
<path d="M147.2 687.5L143.1 687.6C142.9 687.5 142.8 687.3 142.8 687.1C142.8 686.9 142.9 686.7 143.1 686.6H144.4C144.5 686.6 144.6 686.5 144.6 686.4V668.8C144.6 668.7 144.6 668.7 144.5 668.7L144.4 668.6H143.1C142.9 668.5 142.8 668.3 142.8 668.1C142.8 667.9 142.9 667.7 143.1 667.6L147.3 667.7L152.7 667.6C154.6 667.6 156.2 668.2 157.4 669.3C158.6 670.4 159.2 671.9 159.2 673.6C159.2 675.4 158.6 676.8 157.3 677.9C156 679 154.3 679.5 152.2 679.5H149.8V686.4C149.8 686.5 149.9 686.6 150 686.6H151.9C152.1 686.7 152.2 686.9 152.2 687.1C152.2 687.3 152.1 687.5 151.9 687.6L147.2 687.5ZM149.9 678.5H150.5C151.2 678.5 151.7 678.3 152.1 677.8C152.5 677.3 152.9 676.8 153 676.1C153.2 675.4 153.3 674.5 153.3 673.6C153.3 672.1 153.1 670.9 152.6 670C152.1 669.1 151.4 668.7 150.5 668.7H150C149.9 668.7 149.9 668.7 149.9 668.8L149.8 668.9V678.5H149.9Z" fill="black"/>
<path d="M164.8 687.9C163.9 687.9 163.3 687.6 162.7 687C162.2 686.4 161.9 685.7 161.9 684.8C161.9 684.2 162.1 683.7 162.4 683.3C162.7 682.9 163.2 682.7 163.7 682.7C164.2 682.7 164.5 682.8 164.8 683.1C165.1 683.4 165.2 683.8 165.2 684.2C165.2 684.5 165.1 684.7 165 684.9C164.9 685.1 164.8 685.3 164.6 685.4C164.5 685.5 164.3 685.6 164.2 685.8C164.1 685.9 164 686.1 164 686.2C164 686.6 164.3 686.8 164.8 686.8C165.7 686.8 166.5 686 167.3 684.3C167.3 684.2 167.4 684.1 167.5 683.9C167.6 683.7 167.7 683.5 167.7 683.4L161.2 668.8C161.1 668.7 161.1 668.6 161 668.6H159.7C159.5 668.5 159.4 668.3 159.4 668.1C159.4 667.9 159.5 667.7 159.7 667.6L164.3 667.7L168.5 667.6C168.7 667.7 168.8 667.9 168.8 668.1C168.8 668.4 168.7 668.5 168.5 668.6H167C166.9 668.6 166.8 668.7 166.8 668.8C166.8 668.9 166.9 669.1 167.1 669.5L170.5 677L173.4 669.7C173.6 669.3 173.7 669.1 173.7 669C173.7 668.9 173.7 668.8 173.6 668.7C173.5 668.6 173.5 668.6 173.4 668.6H171.8C171.6 668.5 171.5 668.3 171.5 668.1C171.5 667.9 171.6 667.7 171.8 667.6L174.4 667.7L177 667.6C177.2 667.7 177.3 667.9 177.3 668.1C177.3 668.4 177.2 668.6 177 668.6H175.9C175.6 668.6 175.3 668.8 175.2 669.1L169.2 683.7C168.6 685.2 168 686.3 167.3 686.9C166.6 687.6 165.8 687.9 164.8 687.9Z" fill="black"/>
<path d="M188.5 687.6C188.3 687.5 188.2 687.3 188.2 687.1C188.2 686.9 188.3 686.7 188.5 686.6H189.9C190 686.6 190.1 686.5 190.1 686.4V678.3C188.8 679.1 187.3 679.6 185.7 679.6C183.7 679.6 182.1 679.1 181.1 678.2C180.1 677.3 179.5 675.8 179.5 673.7V668.8C179.5 668.7 179.5 668.7 179.4 668.7L179.3 668.6H178C177.8 668.5 177.7 668.3 177.7 668.1C177.7 667.9 177.8 667.7 178 667.6L182.2 667.7L186.4 667.6C186.6 667.7 186.7 667.9 186.7 668.1C186.7 668.4 186.6 668.5 186.4 668.6H185.1C185 668.6 185 668.6 185 668.7L184.9 668.8V674.4C184.9 675.6 185.1 676.5 185.4 677.1C185.7 677.7 186.3 678 187.2 678C188.1 678 189.1 677.7 190.2 677.1V668.8C190.2 668.7 190.2 668.7 190.1 668.7L190 668.6H188.7C188.5 668.5 188.4 668.3 188.4 668.1C188.4 667.9 188.5 667.7 188.7 667.6L192.9 667.7L197.1 667.6C197.3 667.7 197.4 667.9 197.4 668.1C197.4 668.4 197.3 668.5 197.1 668.6H195.8C195.7 668.6 195.6 668.7 195.6 668.8V686.4C195.6 686.5 195.7 686.6 195.8 686.6H197.1C197.3 686.7 197.4 686.9 197.4 687.1C197.4 687.3 197.3 687.5 197.1 687.6L192.9 687.5L188.5 687.6Z" fill="black"/>
<path d="M199.2 687.6C199 687.5 198.9 687.3 198.9 687.1C198.9 686.9 199 686.7 199.2 686.6H200.5C200.6 686.6 200.7 686.5 200.7 686.4V668.8C200.7 668.7 200.7 668.7 200.6 668.7L200.5 668.6H199.2C199 668.5 198.9 668.3 198.9 668.1C198.9 667.9 199 667.7 199.2 667.6L203.4 667.7L207.6 667.6C207.8 667.7 207.9 667.9 207.9 668.1C207.9 668.4 207.8 668.5 207.6 668.6H206.2C206.1 668.6 206.1 668.6 206.1 668.7L206 668.8V683L212.3 669.3V668.8C212.3 668.7 212.2 668.6 212.1 668.6H210.8C210.6 668.5 210.5 668.3 210.5 668.1C210.5 667.8 210.6 667.7 210.8 667.6L215 667.7L219.2 667.6C219.4 667.7 219.5 667.9 219.5 668.1C219.5 668.4 219.4 668.6 219.2 668.6H217.9C217.8 668.6 217.7 668.7 217.7 668.8V686.4C217.7 686.5 217.8 686.6 217.9 686.6H219.2C219.4 686.7 219.5 686.9 219.5 687.1C219.5 687.3 219.4 687.5 219.2 687.6L215 687.5L210.8 687.6C210.6 687.5 210.5 687.3 210.5 687.1C210.5 686.8 210.6 686.7 210.8 686.6H212.2C212.3 686.6 212.4 686.5 212.4 686.4V672.1L206.1 685.8V686.3C206.1 686.4 206.2 686.5 206.3 686.5H207.6C207.8 686.6 207.9 686.8 207.9 687C207.9 687.2 207.8 687.4 207.6 687.5L203.4 687.4L199.2 687.6Z" fill="black"/>
<path d="M236.8 687.5L232.6 687.6C232.4 687.5 232.3 687.3 232.3 687.1C232.3 686.9 232.4 686.7 232.6 686.6H233.9C234 686.6 234.1 686.5 234.1 686.4V678.1H228.3V686.4C228.3 686.5 228.4 686.6 228.5 686.6H229.8C230 686.7 230.1 686.9 230.1 687.1C230.1 687.3 230 687.5 229.8 687.6L225.6 687.5L221.4 687.6C221.2 687.5 221.1 687.3 221.1 687.1C221.1 686.9 221.2 686.7 221.4 686.6H222.7C222.8 686.6 222.9 686.5 222.9 686.4V668.8C222.9 668.7 222.9 668.7 222.8 668.7L222.7 668.6H221.4C221.2 668.5 221.1 668.3 221.1 668.1C221.1 667.9 221.2 667.7 221.4 667.6L225.6 667.7L229.8 667.6C230 667.7 230.1 667.9 230.1 668.1C230.1 668.4 230 668.5 229.8 668.6H228.5C228.4 668.6 228.4 668.6 228.4 668.7L228.3 668.8V676.8H234.1V668.8C234.1 668.7 234.1 668.7 234 668.7L233.9 668.6H232.6C232.4 668.5 232.3 668.3 232.3 668.1C232.3 667.9 232.4 667.7 232.6 667.6L236.8 667.7L241 667.6C241.2 667.7 241.3 667.9 241.3 668.1C241.3 668.4 241.2 668.5 241 668.6H239.7C239.6 668.6 239.5 668.7 239.5 668.8V686.4C239.5 686.5 239.6 686.6 239.7 686.6H241C241.2 686.7 241.3 686.9 241.3 687.1C241.3 687.3 241.2 687.5 241 687.6L236.8 687.5Z" fill="black"/>
<path d="M244 687.5L241.9 687.6C241.7 687.5 241.6 687.3 241.6 687.1C241.6 686.8 241.7 686.7 241.9 686.6H242.8C243.2 686.6 243.4 686.4 243.5 686.1L249.6 668C249.7 667.6 250.1 667.3 250.7 667.3C251.3 667.3 251.7 667.5 251.8 668L258 686.3C258 686.4 258.1 686.5 258.2 686.5H259.5C259.7 686.6 259.8 686.8 259.8 687C259.8 687.2 259.7 687.4 259.5 687.5L255.3 687.4L250.8 687.5C250.6 687.4 250.5 687.2 250.5 687C250.5 686.8 250.6 686.6 250.8 686.5H252.5C252.6 686.5 252.7 686.4 252.7 686.3C252.7 686.2 252.7 686 252.6 685.8L251 680.6H246.7L245 685.5C245 685.6 245 685.6 244.9 685.7C244.8 685.8 244.9 685.8 244.8 685.9V686C244.8 686.1 244.8 686.2 244.9 686.3C245 686.4 245.1 686.4 245.2 686.4H246.6C246.8 686.5 246.9 686.7 246.9 686.9C246.9 687.1 246.8 687.3 246.6 687.4L244 687.5ZM247.1 679.6H250.7L249 674.1L247.1 679.6Z" fill="black"/>
<path d="M266.1 687.5L264 687.6C263.8 687.5 263.7 687.3 263.7 687.1C263.7 686.8 263.8 686.7 264 686.6H264.9C265.3 686.6 265.5 686.4 265.6 686.1L271.7 668C271.8 667.6 272.2 667.3 272.8 667.3C273.4 667.3 273.8 667.5 273.9 668L280.1 686.3C280.1 686.4 280.2 686.5 280.3 686.5H281.6C281.8 686.6 281.9 686.8 281.9 687C281.9 687.2 281.8 687.4 281.6 687.5L277.4 687.4L272.9 687.5C272.7 687.4 272.6 687.2 272.6 687C272.6 686.8 272.7 686.6 272.9 686.5H274.6C274.7 686.5 274.8 686.4 274.8 686.3C274.8 686.2 274.8 686 274.7 685.8L273.1 680.6H268.7L267 685.5C267 685.6 267 685.6 266.9 685.7C266.8 685.8 266.9 685.8 266.8 685.9V686C266.8 686.1 266.8 686.2 266.9 686.3C267 686.4 267.1 686.4 267.2 686.4H268.6C268.8 686.5 268.9 686.7 268.9 686.9C268.9 687.1 268.8 687.3 268.6 687.4L266.1 687.5ZM269.2 679.6H272.8L271.1 674.1L269.2 679.6Z" fill="black"/>
<path d="M286.9 687.5L282.8 687.6C282.6 687.5 282.5 687.3 282.5 687.1C282.5 686.9 282.6 686.7 282.8 686.6H284.1C284.2 686.6 284.3 686.5 284.3 686.4V668.8C284.3 668.7 284.3 668.7 284.2 668.7L284.1 668.6H282.8C282.6 668.5 282.5 668.3 282.5 668.1C282.5 667.9 282.6 667.7 282.8 667.6L287 667.7L292.4 667.6C294.3 667.6 295.9 668.2 297.1 669.3C298.3 670.4 298.9 671.9 298.9 673.6C298.9 675.4 298.3 676.8 297 677.9C295.7 679 294 679.5 291.9 679.5H289.5V686.4C289.5 686.5 289.6 686.6 289.7 686.6H291.6C291.8 686.7 291.9 686.9 291.9 687.1C291.9 687.3 291.8 687.5 291.6 687.6L286.9 687.5ZM289.6 678.5H290.2C290.9 678.5 291.4 678.3 291.8 677.8C292.2 677.3 292.6 676.8 292.7 676.1C292.9 675.4 293 674.5 293 673.6C293 672.1 292.8 670.9 292.3 670C291.8 669.1 291.1 668.7 290.2 668.7H289.7C289.6 668.7 289.6 668.7 289.6 668.8L289.5 668.9V678.5H289.6Z" fill="black"/>
<path d="M301 687.9C299.9 687.9 299.1 687.6 298.6 687C298.1 686.4 297.8 685.6 297.8 684.5C297.8 683.7 298 683.2 298.4 682.7C298.8 682.3 299.3 682.1 299.9 682.1C300.4 682.1 300.8 682.3 301.1 682.6C301.4 682.9 301.5 683.3 301.5 683.7C301.5 684.1 301.4 684.4 301.3 684.6C301.2 684.9 301 685.1 300.8 685.2C300.6 685.3 300.5 685.5 300.3 685.6C300.2 685.8 300.1 685.9 300.1 686.1C300.1 686.3 300.2 686.4 300.3 686.6C300.4 686.8 300.7 686.8 300.9 686.8C301.1 686.8 301.4 686.8 301.6 686.7C301.8 686.6 302 686.5 302.2 686.3C302.4 686.1 302.5 685.9 302.6 685.7C302.7 685.5 302.8 685.2 302.9 684.9C303 684.6 303.1 684.3 303.2 684.1C303.3 683.9 303.3 683.5 303.4 683.1C303.5 682.7 303.5 682.4 303.5 682.2C303.5 682 303.6 681.7 303.6 681.3C304 678.4 304.2 674.6 304.3 670C304.3 669.4 304.2 669 304 668.8C303.8 668.6 303.4 668.5 302.9 668.5H301.8C301.6 668.4 301.5 668.2 301.5 668C301.5 667.8 301.6 667.6 301.8 667.5L305.9 667.6H312.1L316.1 667.5C316.3 667.6 316.4 667.8 316.4 668C316.4 668.3 316.3 668.4 316.1 668.5H314.8C314.7 668.5 314.6 668.6 314.6 668.7V686.3C314.6 686.4 314.7 686.5 314.8 686.5H316.1C316.3 686.6 316.4 686.8 316.4 687C316.4 687.2 316.3 687.4 316.1 687.5L311.9 687.4L307.7 687.5C307.5 687.4 307.4 687.2 307.4 687C307.4 686.7 307.5 686.6 307.7 686.5H309C309.1 686.5 309.2 686.4 309.2 686.3V669C309.2 668.9 309.1 668.8 309 668.8H306.5C306 668.8 305.7 668.9 305.6 669C305.4 669.2 305.4 669.5 305.3 669.9C305.2 674.7 304.9 678.4 304.6 681.2C304.5 681.7 304.5 682 304.5 682.3C304.5 682.6 304.4 682.9 304.3 683.3C304.2 683.7 304.2 684.1 304.1 684.3C304 684.5 303.9 684.9 303.8 685.2C303.7 685.5 303.6 685.8 303.4 686C303.3 686.2 303.1 686.4 302.9 686.7C302.7 686.9 302.5 687.1 302.3 687.2C302.1 687.3 301.8 687.4 301.6 687.5C301.6 687.9 301.3 687.9 301 687.9Z" fill="black"/>
<path d="M322.7 687.5L318.5 687.6C318.3 687.5 318.2 687.3 318.2 687.1C318.2 686.9 318.3 686.7 318.5 686.6H319.8C319.9 686.6 320 686.5 320 686.4V668.8C320 668.7 320 668.7 319.9 668.7L319.8 668.6H318.5C318.3 668.5 318.2 668.3 318.2 668.1C318.2 667.9 318.3 667.7 318.5 667.6L322.7 667.7L332.5 667.6C332.6 667.6 332.7 667.7 332.7 667.8L333 673.6C332.9 673.8 332.7 673.9 332.5 673.9C332.3 673.9 332.1 673.8 332 673.6L331.9 672.5C331.6 670.1 330.4 668.8 328.1 668.7L325.6 668.6C325.5 668.6 325.4 668.7 325.4 668.8V677L326.6 676.9C327.3 676.9 327.8 676.6 328.2 676.2C328.6 675.8 328.7 675.2 328.7 674.5V674.1C328.8 673.9 328.9 673.8 329.2 673.8C329.5 673.8 329.6 673.9 329.7 674.1L329.6 677.4L329.7 680.8C329.6 681 329.5 681.1 329.2 681.1C328.9 681.1 328.8 681 328.7 680.8V680.3C328.7 679.6 328.5 679 328.2 678.6C327.8 678.2 327.3 678 326.6 677.9L325.4 677.8V685.9C325.4 686 325.4 686.2 325.5 686.3C325.6 686.4 325.7 686.5 325.9 686.5L328.6 686.4C331 686.3 332.3 685 332.5 682.4L332.6 680.9C332.7 680.7 332.9 680.6 333.1 680.6C333.3 680.6 333.5 680.7 333.6 680.9L333.4 687.3C333.4 687.4 333.3 687.5 333.2 687.5H322.7Z" fill="black"/>
<path d="M350.9 688C350.1 688 349.3 687.9 348.7 687.7C348.1 687.5 347.6 687.3 347.2 687C346.8 686.7 346.5 686.3 346.3 685.8C346.1 685.3 345.9 684.7 345.9 684.1C345.8 683.5 345.8 682.8 345.8 682C345.8 680.4 345.6 679.2 345.1 678.6C344.7 677.9 344 677.6 343.1 677.6H342.6V686.5C342.6 686.6 342.7 686.7 342.8 686.7H344.1C344.3 686.8 344.4 687 344.4 687.2C344.4 687.4 344.3 687.6 344.1 687.7L339.9 687.6L335.7 687.7C335.5 687.6 335.4 687.4 335.4 687.2C335.4 687 335.5 686.8 335.7 686.7H337C337.1 686.7 337.2 686.6 337.2 686.5V668.8C337.2 668.7 337.2 668.7 337.1 668.7L337 668.6H335.7C335.5 668.5 335.4 668.3 335.4 668.1C335.4 667.9 335.5 667.7 335.7 667.6L339.9 667.7L344.1 667.6C344.3 667.7 344.4 667.9 344.4 668.1C344.4 668.4 344.3 668.5 344.1 668.6H342.8C342.7 668.6 342.7 668.6 342.7 668.7L342.6 668.8V676.4H343.4C344.4 676.4 345.2 676.1 345.7 675.5C346.2 674.9 346.5 674.1 346.5 673L346.6 671.3C346.7 670 346.9 669 347.4 668.4C347.9 667.7 348.7 667.4 349.7 667.4C350.4 667.4 351 667.6 351.4 668C351.8 668.4 352 668.9 352 669.5C352 670 351.9 670.5 351.6 670.8C351.3 671.2 350.9 671.4 350.4 671.4C350.1 671.4 349.8 671.3 349.6 671.2C349.4 671.1 349.2 670.9 349.1 670.7C349 670.5 348.9 670.3 348.9 670.1C348.9 669.9 348.8 669.7 348.7 669.6C348.6 669.5 348.5 669.4 348.4 669.4C348.2 669.4 348.1 669.4 348 669.5C347.9 669.6 347.8 669.8 347.7 670C347.6 670.2 347.6 670.5 347.6 670.7C347.6 670.9 347.5 671.3 347.5 671.7L347.4 673C347.3 675 346.6 676.3 345.2 676.7C345.1 676.7 345 676.8 345 676.9C345 677 345.1 677 345.2 677C346.2 677 347.1 677.1 347.9 677.4C348.7 677.6 349.3 678 349.7 678.4C350.2 678.8 350.5 679.3 350.7 679.9C350.9 680.5 351 681 351 681.7C351 682.3 351 682.9 350.9 683.7C350.8 684.4 350.8 685 350.8 685.3C350.8 686.5 351.2 687.1 351.9 687.1C352.2 687.1 352.6 686.9 352.8 686.6C353 686.3 353.2 686.1 353.4 686.1C353.5 686.1 353.6 686.1 353.7 686.2C353.8 686.3 353.8 686.4 353.8 686.5C353.8 686.9 353.5 687.3 353 687.6C352.6 687.9 351.8 688 350.9 688Z" fill="black"/>
<path d="M354.5 687.6C354.3 687.5 354.2 687.3 354.2 687.1C354.2 686.9 354.3 686.7 354.5 686.6H355.8C355.9 686.6 356 686.5 356 686.4V668.8C356 668.7 356 668.7 355.9 668.7L355.8 668.6H354.5C354.3 668.5 354.2 668.3 354.2 668.1C354.2 667.9 354.3 667.7 354.5 667.6L358.7 667.7L362.9 667.6C363.1 667.7 363.2 667.9 363.2 668.1C363.2 668.4 363.1 668.5 362.9 668.6H361.6C361.5 668.6 361.5 668.6 361.5 668.7L361.4 668.8V683L367.7 669.3V668.8C367.7 668.7 367.6 668.6 367.5 668.6H366.2C366 668.5 365.9 668.3 365.9 668.1C365.9 667.8 366 667.7 366.2 667.6L370.4 667.7L374.6 667.6C374.8 667.7 374.9 667.9 374.9 668.1C374.9 668.4 374.8 668.6 374.6 668.6H373.3C373.2 668.6 373.1 668.7 373.1 668.8V686.4C373.1 686.5 373.2 686.6 373.3 686.6H374.6C374.8 686.7 374.9 686.9 374.9 687.1C374.9 687.3 374.8 687.5 374.6 687.6L370.4 687.5L366.2 687.6C366 687.5 365.9 687.3 365.9 687.1C365.9 686.8 366 686.7 366.2 686.6H367.5C367.6 686.6 367.7 686.5 367.7 686.4V672.1L361.4 685.8V686.3C361.4 686.4 361.5 686.5 361.6 686.5H362.9C363.1 686.6 363.2 686.8 363.2 687C363.2 687.2 363.1 687.4 362.9 687.5L358.7 687.4L354.5 687.6Z" fill="black"/>
<path d="M392.1 687.5L387.9 687.6C387.7 687.5 387.6 687.3 387.6 687.1C387.6 686.9 387.7 686.7 387.9 686.6H389.2C389.3 686.6 389.4 686.5 389.4 686.4V678.1H383.6V686.4C383.6 686.5 383.7 686.6 383.8 686.6H385.1C385.3 686.7 385.4 686.9 385.4 687.1C385.4 687.3 385.3 687.5 385.1 687.6L380.9 687.5L376.7 687.6C376.5 687.5 376.4 687.3 376.4 687.1C376.4 686.9 376.5 686.7 376.7 686.6H378C378.1 686.6 378.2 686.5 378.2 686.4V668.8C378.2 668.7 378.2 668.7 378.1 668.7L378 668.6H376.7C376.5 668.5 376.4 668.3 376.4 668.1C376.4 667.9 376.5 667.7 376.7 667.6L380.9 667.7L385.1 667.6C385.3 667.7 385.4 667.9 385.4 668.1C385.4 668.4 385.3 668.5 385.1 668.6H383.8C383.7 668.6 383.7 668.6 383.7 668.7L383.6 668.8V676.8H389.4V668.8C389.4 668.7 389.4 668.7 389.3 668.7L389.2 668.6H387.9C387.7 668.5 387.6 668.3 387.6 668.1C387.6 667.9 387.7 667.7 387.9 667.6L392.1 667.7L396.3 667.6C396.5 667.7 396.6 667.9 396.6 668.1C396.6 668.4 396.5 668.5 396.3 668.6H395C394.9 668.6 394.8 668.7 394.8 668.8V686.4C394.8 686.5 394.9 686.6 395 686.6H396.3C396.5 686.7 396.6 686.9 396.6 687.1C396.6 687.3 396.5 687.5 396.3 687.6L392.1 687.5Z" fill="black"/>
<path d="M399.3 687.5L397.2 687.6C397 687.5 396.9 687.3 396.9 687.1C396.9 686.8 397 686.7 397.2 686.6H398.1C398.5 686.6 398.7 686.4 398.8 686.1L404.9 668C405 667.6 405.4 667.3 406 667.3C406.6 667.3 407 667.5 407.1 668L413.3 686.3C413.3 686.4 413.4 686.5 413.5 686.5H414.8C415 686.6 415.1 686.8 415.1 687C415.1 687.2 415 687.4 414.8 687.5L410.6 687.4L406.1 687.5C405.9 687.4 405.8 687.2 405.8 687C405.8 686.8 405.9 686.6 406.1 686.5H407.8C407.9 686.5 408 686.4 408 686.3C408 686.2 408 686 407.9 685.8L406.3 680.6H401.9L400.2 685.5C400.2 685.6 400.2 685.6 400.1 685.7C400.1 685.8 400.1 685.8 400 685.9V686C400 686.1 400 686.2 400.1 686.3C400.2 686.4 400.3 686.4 400.4 686.4H401.8C402 686.5 402.1 686.7 402.1 686.9C402.1 687.1 402 687.3 401.8 687.4L399.3 687.5ZM402.4 679.6H406L404.3 674.1L402.4 679.6Z" fill="black"/>
<path d="M444.482 595.183C444.014 595.183 443.635 595.02 443.347 594.692C443.064 594.365 442.922 593.953 442.922 593.455C442.922 593.118 443.01 592.847 443.186 592.642C443.367 592.432 443.606 592.327 443.904 592.327C444.158 592.327 444.353 592.407 444.49 592.568C444.626 592.725 444.695 592.92 444.695 593.154C444.695 593.301 444.665 593.433 444.607 593.55C444.548 593.662 444.482 593.748 444.409 593.806C444.336 593.865 444.27 593.931 444.211 594.004C444.153 594.077 444.123 594.15 444.123 594.224C444.123 594.473 444.28 594.597 444.592 594.597C445.1 594.597 445.559 594.116 445.969 593.154C446.003 593.086 446.079 592.905 446.196 592.612L442.49 584.578C442.456 584.514 442.412 584.482 442.358 584.482H441.604C441.506 584.429 441.457 584.333 441.457 584.197C441.457 584.05 441.506 583.95 441.604 583.896L444.05 583.962L446.299 583.896C446.401 583.955 446.453 584.055 446.453 584.197C446.453 584.329 446.401 584.424 446.299 584.482H445.398C445.32 584.482 445.281 584.519 445.281 584.592C445.281 584.617 445.337 584.746 445.449 584.98L447.441 589.448L449.133 585.054C449.226 584.819 449.272 584.695 449.272 584.68C449.272 584.622 449.255 584.575 449.221 584.541C449.187 584.502 449.143 584.482 449.089 584.482H448.159C448.052 584.429 447.998 584.333 447.998 584.197C447.998 584.05 448.052 583.95 448.159 583.896L449.646 583.962L451.103 583.896C451.201 583.945 451.25 584.045 451.25 584.197C451.25 584.338 451.201 584.434 451.103 584.482H450.422C450.256 584.482 450.132 584.563 450.049 584.724L446.782 592.898C446.45 593.728 446.111 594.316 445.764 594.663C445.422 595.01 444.995 595.183 444.482 595.183ZM451.821 595.198C451.25 595.198 450.815 595.029 450.517 594.692C450.22 594.351 450.071 593.904 450.071 593.352C450.071 592.942 450.171 592.627 450.371 592.407C450.576 592.188 450.845 592.078 451.177 592.078C451.45 592.078 451.655 592.163 451.792 592.334C451.934 592.505 452.004 592.712 452.004 592.957C452.004 593.152 451.968 593.323 451.894 593.469C451.821 593.616 451.741 593.723 451.653 593.792C451.565 593.86 451.484 593.936 451.411 594.019C451.338 594.102 451.301 594.185 451.301 594.268C451.301 594.37 451.345 594.458 451.433 594.531C451.526 594.604 451.65 594.641 451.807 594.641C451.963 594.641 452.104 594.607 452.231 594.539C452.363 594.465 452.473 594.377 452.561 594.275C452.654 594.172 452.739 594.031 452.817 593.85C452.895 593.669 452.956 593.506 453 593.359C453.049 593.208 453.096 593.013 453.14 592.773C453.188 592.529 453.223 592.334 453.242 592.188C453.267 592.041 453.293 591.843 453.323 591.594C453.508 590.037 453.638 587.932 453.711 585.281C453.711 584.958 453.655 584.746 453.542 584.644C453.435 584.536 453.232 584.482 452.934 584.482H452.275C452.173 584.424 452.121 584.324 452.121 584.182C452.121 584.05 452.173 583.955 452.275 583.896L454.509 583.948H458.076L460.266 583.896C460.369 583.945 460.42 584.041 460.42 584.182C460.42 584.333 460.369 584.434 460.266 584.482H459.446C459.416 584.482 459.39 584.495 459.365 584.519C459.346 584.539 459.336 584.563 459.336 584.592V594.341C459.336 594.409 459.372 594.443 459.446 594.443H460.266C460.369 594.492 460.42 594.587 460.42 594.729C460.42 594.866 460.369 594.966 460.266 595.029L458.017 594.971L455.754 595.029C455.652 594.956 455.6 594.856 455.6 594.729C455.6 594.597 455.652 594.502 455.754 594.443H456.582C456.65 594.443 456.684 594.409 456.684 594.341V584.739C456.684 584.67 456.65 584.636 456.582 584.636H455.007C454.748 584.636 454.575 584.683 454.487 584.775C454.399 584.863 454.35 585.032 454.341 585.281C454.267 587.957 454.133 590.056 453.938 591.58C453.904 591.863 453.874 592.092 453.85 592.268C453.826 592.439 453.789 592.654 453.74 592.913C453.696 593.167 453.647 593.374 453.594 593.535C453.545 593.696 453.481 593.875 453.403 594.07C453.33 594.265 453.245 594.424 453.147 594.546C453.049 594.663 452.937 594.778 452.81 594.89C452.683 594.998 452.537 595.076 452.371 595.125C452.204 595.173 452.021 595.198 451.821 595.198ZM462.947 595.183C462.58 595.183 462.27 595.061 462.017 594.817C461.767 594.568 461.643 594.258 461.643 593.887C461.643 593.53 461.767 593.232 462.017 592.993C462.27 592.749 462.58 592.627 462.947 592.627C463.308 592.627 463.613 592.749 463.862 592.993C464.116 593.232 464.243 593.53 464.243 593.887C464.243 594.258 464.116 594.568 463.862 594.817C463.613 595.061 463.308 595.183 462.947 595.183ZM469.187 595.029C469.089 594.971 469.04 594.871 469.04 594.729C469.04 594.587 469.089 594.492 469.187 594.443H470.015C470.083 594.443 470.117 594.409 470.117 594.341V584.592C470.117 584.519 470.083 584.482 470.015 584.482H469.187C469.089 584.434 469.04 584.333 469.04 584.182C469.04 584.041 469.089 583.945 469.187 583.896L471.45 583.948H477.617L479.88 583.896C479.983 583.955 480.034 584.05 480.034 584.182C480.034 584.324 479.983 584.424 479.88 584.482H479.045C479.016 584.482 478.989 584.495 478.965 584.519C478.945 584.539 478.935 584.563 478.935 584.592V594.341C478.935 594.409 478.972 594.443 479.045 594.443H479.88C479.983 594.502 480.034 594.597 480.034 594.729C480.034 594.856 479.983 594.956 479.88 595.029L477.617 594.971L475.369 595.029C475.266 594.966 475.215 594.866 475.215 594.729C475.215 594.587 475.266 594.492 475.369 594.443H476.196C476.265 594.443 476.299 594.409 476.299 594.341V584.739C476.299 584.67 476.265 584.636 476.196 584.636H472.878C472.81 584.636 472.776 584.67 472.776 584.739V594.341C472.776 594.409 472.81 594.443 472.878 594.443H473.706C473.804 594.492 473.852 594.587 473.852 594.729C473.852 594.871 473.804 594.971 473.706 595.029L471.45 594.971L469.187 595.029ZM481.213 595.015C481.116 594.961 481.067 594.861 481.067 594.714C481.067 594.578 481.116 594.482 481.213 594.429H482.041C482.109 594.429 482.143 594.395 482.143 594.326V584.578C482.143 584.504 482.109 584.468 482.041 584.468H481.213C481.116 584.414 481.067 584.319 481.067 584.182C481.067 584.05 481.116 583.95 481.213 583.882L483.447 583.948L485.981 583.882C486.084 583.945 486.135 584.045 486.135 584.182C486.135 584.324 486.084 584.419 485.981 584.468H484.905C484.836 584.468 484.802 584.504 484.802 584.578V588.489L486.194 588.474C487.375 588.474 488.308 588.774 488.992 589.375C489.675 589.971 490.017 590.757 490.017 591.733C490.017 592.69 489.683 593.479 489.014 594.099C488.345 594.719 487.475 595.029 486.406 595.029L483.476 594.956L481.213 595.015ZM484.905 594.443H485.447C485.974 594.443 486.379 594.197 486.663 593.704C486.951 593.21 487.095 592.546 487.095 591.711C487.095 590.881 486.958 590.225 486.684 589.741C486.411 589.258 485.994 589.016 485.432 589.016H484.802V594.341C484.802 594.409 484.836 594.443 484.905 594.443ZM493.232 594.971L490.969 595.029C490.871 594.971 490.823 594.871 490.823 594.729C490.823 594.587 490.871 594.492 490.969 594.443H491.797C491.865 594.443 491.899 594.409 491.899 594.341V584.592C491.899 584.519 491.865 584.482 491.797 584.482H490.969C490.871 584.434 490.823 584.338 490.823 584.197C490.823 584.045 490.871 583.945 490.969 583.896L493.232 583.962L498.638 583.882C498.716 583.882 498.755 583.923 498.755 584.006L498.894 587.229C498.835 587.332 498.74 587.383 498.608 587.383C498.472 587.383 498.381 587.332 498.337 587.229L498.257 586.584C498.184 585.896 497.986 585.386 497.663 585.054C497.341 584.717 496.86 584.541 496.221 584.526L494.661 584.468C494.592 584.468 494.558 584.504 494.558 584.578V589.104L495.334 589.06C496.116 589.016 496.506 588.596 496.506 587.8V587.559C496.555 587.461 496.65 587.412 496.792 587.412C496.934 587.412 497.029 587.461 497.078 587.559L497.019 589.39L497.078 591.279C497.019 591.392 496.924 591.448 496.792 591.448C496.66 591.448 496.565 591.392 496.506 591.279V590.964C496.506 590.168 496.116 589.749 495.334 589.705L494.558 589.661V594.172C494.558 594.246 494.582 594.312 494.631 594.37C494.685 594.429 494.748 594.458 494.822 594.458L496.521 594.399C497.204 594.38 497.715 594.194 498.052 593.843C498.389 593.486 498.579 592.957 498.623 592.253L498.667 591.396C498.721 591.299 498.816 591.25 498.953 591.25C499.089 591.25 499.184 591.299 499.238 591.396L499.128 594.927C499.128 595.005 499.089 595.044 499.011 595.044L493.232 594.971ZM502.798 594.971L500.564 595.029C500.466 594.971 500.417 594.871 500.417 594.729C500.417 594.587 500.466 594.492 500.564 594.443H501.392C501.46 594.443 501.494 594.409 501.494 594.341V584.592C501.494 584.519 501.46 584.482 501.392 584.482H500.564C500.466 584.434 500.417 584.338 500.417 584.197C500.417 584.045 500.466 583.945 500.564 583.896L502.812 583.962L505.786 583.882C506.841 583.882 507.7 584.194 508.364 584.819C509.033 585.439 509.368 586.228 509.368 587.185C509.368 588.157 509.026 588.94 508.342 589.536C507.659 590.127 506.731 590.422 505.559 590.422H504.153V594.341C504.153 594.409 504.187 594.443 504.255 594.443H505.383C505.481 594.492 505.53 594.587 505.53 594.729C505.53 594.871 505.481 594.971 505.383 595.029L502.798 594.971ZM504.153 589.902H504.783C505.159 589.902 505.474 589.783 505.727 589.543C505.981 589.299 506.164 588.979 506.277 588.584C506.389 588.184 506.445 587.717 506.445 587.185C506.445 586.345 506.301 585.684 506.013 585.2C505.725 584.712 505.32 584.468 504.797 584.468H504.255C504.187 584.468 504.153 584.504 504.153 584.578V589.902ZM515.498 595.242C514.79 595.242 514.111 595.1 513.462 594.817C512.817 594.529 512.253 594.136 511.77 593.638C511.291 593.135 510.908 592.522 510.62 591.799C510.332 591.072 510.188 590.293 510.188 589.463C510.188 588.794 510.281 588.157 510.466 587.551C510.652 586.946 510.908 586.411 511.235 585.947C511.567 585.483 511.953 585.081 512.392 584.739C512.837 584.397 513.323 584.138 513.85 583.962C514.382 583.782 514.932 583.691 515.498 583.691C516.211 583.691 516.892 583.833 517.541 584.116C518.191 584.399 518.757 584.79 519.241 585.288C519.724 585.786 520.107 586.399 520.391 587.126C520.679 587.849 520.823 588.628 520.823 589.463C520.823 590.298 520.681 591.077 520.398 591.799C520.12 592.522 519.739 593.135 519.255 593.638C518.777 594.136 518.21 594.529 517.556 594.817C516.907 595.1 516.221 595.242 515.498 595.242ZM515.498 594.67C515.898 594.67 516.238 594.602 516.516 594.465C516.799 594.324 517.029 594.126 517.204 593.872C517.385 593.618 517.527 593.271 517.629 592.832C517.732 592.388 517.8 591.904 517.834 591.382C517.873 590.859 517.893 590.22 517.893 589.463C517.893 588.838 517.878 588.293 517.849 587.83C517.825 587.366 517.778 586.931 517.71 586.526C517.642 586.116 517.549 585.776 517.432 585.508C517.319 585.239 517.175 585.007 516.999 584.812C516.824 584.612 516.611 584.468 516.362 584.38C516.113 584.292 515.825 584.248 515.498 584.248C515.107 584.248 514.773 584.316 514.495 584.453C514.221 584.59 513.994 584.788 513.813 585.046C513.633 585.305 513.491 585.654 513.389 586.094C513.286 586.528 513.213 587.012 513.169 587.544C513.13 588.071 513.11 588.711 513.11 589.463C513.11 590.093 513.122 590.637 513.147 591.096C513.171 591.55 513.215 591.982 513.279 592.393C513.347 592.803 513.437 593.142 513.55 593.411C513.667 593.679 513.813 593.914 513.989 594.114C514.165 594.309 514.377 594.451 514.626 594.539C514.875 594.626 515.166 594.67 515.498 594.67Z" fill="white"/>
<path d="M448.319 620.706C448.739 620.73 449.151 620.806 449.557 620.933C449.967 621.06 450.35 621.238 450.707 621.468C451.068 621.697 451.358 621.998 451.578 622.369C451.803 622.74 451.915 623.155 451.915 623.614C451.915 624.209 451.744 624.744 451.402 625.218C451.061 625.687 450.597 626.05 450.011 626.309C449.43 626.563 448.78 626.69 448.063 626.69C447.535 626.69 447.044 626.612 446.59 626.456C446.136 626.299 445.755 626.092 445.448 625.833C445.145 625.569 444.908 625.271 444.737 624.939C444.566 624.603 444.481 624.256 444.481 623.899C444.481 623.553 444.569 623.282 444.745 623.086C444.925 622.886 445.172 622.786 445.484 622.786C445.782 622.786 446.012 622.862 446.173 623.013C446.334 623.165 446.415 623.37 446.415 623.628C446.415 623.853 446.329 624.102 446.158 624.375C445.987 624.649 445.902 624.869 445.902 625.035C445.902 625.303 446.041 625.535 446.319 625.73C446.598 625.921 446.944 626.016 447.359 626.016C447.965 626.016 448.429 625.784 448.751 625.32C449.073 624.852 449.234 624.236 449.234 623.475C449.234 623.025 449.183 622.645 449.081 622.332C448.978 622.02 448.829 621.783 448.634 621.622C448.439 621.456 448.224 621.338 447.989 621.27C447.76 621.202 447.489 621.167 447.176 621.167C447.079 621.167 446.861 621.185 446.524 621.219C446.188 621.253 446.009 621.27 445.99 621.27C445.887 621.27 445.802 621.229 445.733 621.146C445.665 621.058 445.631 620.936 445.631 620.779C445.631 620.618 445.665 620.494 445.733 620.406C445.802 620.313 445.887 620.267 445.99 620.267C446.009 620.267 446.188 620.289 446.524 620.333C446.861 620.372 447.079 620.391 447.176 620.391C447.728 620.391 448.153 620.164 448.451 619.71C448.753 619.256 448.905 618.677 448.905 617.974C448.905 617.442 448.778 617 448.524 616.648C448.27 616.292 447.931 616.114 447.506 616.114C447.213 616.114 446.954 616.17 446.73 616.282C446.51 616.395 446.4 616.573 446.4 616.817C446.4 616.949 446.466 617.146 446.598 617.41C446.734 617.669 446.803 617.891 446.803 618.077C446.803 618.326 446.72 618.528 446.554 618.685C446.393 618.841 446.166 618.919 445.873 618.919C445.58 618.919 445.34 618.821 445.155 618.626C444.974 618.426 444.884 618.157 444.884 617.82C444.884 617.225 445.196 616.69 445.821 616.216C446.451 615.738 447.232 615.499 448.165 615.499C449.112 615.499 449.908 615.733 450.553 616.202C451.202 616.67 451.527 617.261 451.527 617.974C451.527 618.443 451.371 618.875 451.058 619.271C450.746 619.666 450.35 619.983 449.872 620.223C449.398 620.457 448.88 620.618 448.319 620.706ZM458.631 617.959L454.515 618.033C454.237 618.038 454.017 618.118 453.856 618.274C453.7 618.431 453.614 618.646 453.6 618.919L453.556 619.578C453.502 619.69 453.407 619.747 453.27 619.747C453.133 619.747 453.038 619.69 452.984 619.578L453.08 615.857C453.08 615.77 453.119 615.726 453.197 615.726C453.211 615.726 453.729 615.73 454.75 615.74C455.775 615.745 456.825 615.752 457.899 615.762C458.973 615.767 459.581 615.77 459.723 615.77C459.884 615.77 460.016 615.826 460.118 615.938C460.226 616.045 460.279 616.18 460.279 616.341C460.279 616.38 460.274 616.419 460.265 616.458C460.255 616.497 460.245 616.529 460.235 616.553C460.226 616.573 460.209 616.604 460.184 616.648C460.16 616.688 460.145 616.714 460.14 616.729L456.405 623.357C456.219 623.699 456.126 623.951 456.126 624.112C456.126 624.205 456.158 624.29 456.222 624.368C456.285 624.441 456.363 624.502 456.456 624.551C456.554 624.595 456.659 624.651 456.771 624.72C456.883 624.788 456.986 624.859 457.079 624.932C457.176 625 457.257 625.101 457.32 625.232C457.384 625.359 457.416 625.506 457.416 625.672C457.416 625.965 457.313 626.209 457.108 626.404C456.903 626.595 456.644 626.69 456.332 626.69C455.946 626.69 455.614 626.546 455.335 626.258C455.062 625.965 454.925 625.579 454.925 625.101C454.925 624.627 455.094 624.102 455.431 623.526L458.631 617.959ZM474.164 617.644C474.807 617.681 475.44 617.797 476.062 617.992C476.69 618.186 477.278 618.46 477.825 618.812C478.379 619.163 478.824 619.624 479.161 620.193C479.506 620.762 479.678 621.398 479.678 622.102C479.678 623.015 479.416 623.835 478.892 624.562C478.368 625.28 477.656 625.838 476.758 626.235C475.867 626.624 474.871 626.819 473.771 626.819C472.962 626.819 472.21 626.699 471.513 626.459C470.817 626.22 470.233 625.902 469.761 625.505C469.297 625.101 468.934 624.644 468.672 624.135C468.41 623.618 468.279 623.087 468.279 622.54C468.279 622.008 468.414 621.593 468.683 621.293C468.96 620.986 469.338 620.833 469.817 620.833C470.274 620.833 470.626 620.949 470.873 621.181C471.12 621.413 471.244 621.728 471.244 622.125C471.244 622.469 471.113 622.851 470.851 623.27C470.589 623.689 470.458 624.026 470.458 624.281C470.458 624.693 470.671 625.048 471.098 625.348C471.524 625.64 472.056 625.786 472.692 625.786C473.621 625.786 474.332 625.43 474.826 624.719C475.32 624 475.567 623.057 475.567 621.889C475.567 621.2 475.489 620.616 475.332 620.137C475.174 619.658 474.946 619.294 474.647 619.047C474.347 618.793 474.018 618.613 473.658 618.508C473.306 618.403 472.891 618.351 472.412 618.351C472.262 618.351 471.929 618.377 471.412 618.43C470.896 618.482 470.622 618.508 470.592 618.508C470.435 618.508 470.304 618.445 470.199 618.317C470.094 618.183 470.042 617.995 470.042 617.756C470.042 617.509 470.094 617.318 470.199 617.183C470.304 617.041 470.435 616.97 470.592 616.97C470.622 616.97 470.896 617.003 471.412 617.071C471.929 617.131 472.262 617.161 472.412 617.161C473.258 617.161 473.909 616.812 474.366 616.116C474.83 615.42 475.062 614.533 475.062 613.455C475.062 612.639 474.867 611.961 474.478 611.422C474.089 610.875 473.568 610.602 472.917 610.602C472.468 610.602 472.071 610.688 471.727 610.86C471.39 611.033 471.221 611.306 471.221 611.68C471.221 611.882 471.322 612.186 471.524 612.59C471.734 612.987 471.839 613.327 471.839 613.612C471.839 613.994 471.712 614.304 471.457 614.544C471.21 614.784 470.862 614.903 470.413 614.903C469.963 614.903 469.597 614.754 469.312 614.454C469.035 614.147 468.897 613.735 468.897 613.219C468.897 612.305 469.376 611.486 470.334 610.759C471.3 610.026 472.498 609.659 473.928 609.659C475.38 609.659 476.601 610.018 477.589 610.737C478.585 611.456 479.083 612.361 479.083 613.455C479.083 614.173 478.843 614.836 478.364 615.442C477.885 616.049 477.278 616.535 476.544 616.902C475.818 617.262 475.025 617.509 474.164 617.644ZM483.507 617.037C483.822 616.857 484.271 616.696 484.855 616.554C485.446 616.404 486.087 616.33 486.775 616.33C487.539 616.33 488.265 616.434 488.954 616.644C489.643 616.854 490.268 617.161 490.83 617.565C491.399 617.962 491.848 618.49 492.177 619.148C492.514 619.807 492.683 620.552 492.683 621.383C492.683 622.963 492.102 624.266 490.942 625.292C489.781 626.31 488.329 626.819 486.585 626.819C485.147 626.819 483.93 626.392 482.935 625.539C481.939 624.685 481.441 623.686 481.441 622.54C481.441 622.008 481.576 621.589 481.845 621.282C482.122 620.968 482.5 620.811 482.98 620.811C483.406 620.811 483.751 620.93 484.013 621.17C484.275 621.402 484.406 621.705 484.406 622.08C484.406 622.417 484.264 622.787 483.979 623.191C483.695 623.588 483.552 623.929 483.552 624.213C483.552 624.663 483.743 625.033 484.125 625.325C484.514 625.617 485.012 625.763 485.619 625.763C486.547 625.763 487.273 625.396 487.797 624.663C488.329 623.929 488.595 622.892 488.595 621.552C488.595 620.212 488.333 619.208 487.809 618.542C487.292 617.876 486.581 617.542 485.675 617.542C484.844 617.542 484.114 617.703 483.485 618.025C483.23 618.153 483.069 618.216 483.002 618.216H482.867C482.762 618.216 482.669 618.175 482.586 618.093C482.512 618.01 482.474 617.913 482.474 617.801V610.49C482.474 610.377 482.519 610.273 482.609 610.175C482.699 610.078 482.8 610.029 482.912 610.029H490.291C490.65 610.029 490.841 609.853 490.863 609.501L490.919 608.76C491.002 608.611 491.144 608.536 491.346 608.536C491.556 608.536 491.702 608.611 491.784 608.76L491.672 612.994C491.664 613.129 491.619 613.237 491.537 613.32C491.462 613.395 491.369 613.432 491.256 613.432C491.226 613.432 490.631 613.417 489.471 613.387C488.31 613.35 487.112 613.312 485.877 613.275C484.642 613.237 483.919 613.219 483.71 613.219C483.575 613.219 483.507 613.29 483.507 613.432V617.037ZM504.934 620.706C505.354 620.73 505.767 620.806 506.172 620.933C506.582 621.06 506.965 621.238 507.322 621.468C507.683 621.697 507.974 621.998 508.193 622.369C508.418 622.74 508.53 623.155 508.53 623.614C508.53 624.209 508.359 624.744 508.018 625.218C507.676 625.687 507.212 626.05 506.626 626.309C506.045 626.563 505.396 626.69 504.678 626.69C504.15 626.69 503.66 626.612 503.206 626.456C502.751 626.299 502.371 626.092 502.063 625.833C501.76 625.569 501.523 625.271 501.353 624.939C501.182 624.603 501.096 624.256 501.096 623.899C501.096 623.553 501.184 623.282 501.36 623.086C501.541 622.886 501.787 622.786 502.1 622.786C502.397 622.786 502.627 622.862 502.788 623.013C502.949 623.165 503.03 623.37 503.03 623.628C503.03 623.853 502.944 624.102 502.773 624.375C502.603 624.649 502.517 624.869 502.517 625.035C502.517 625.303 502.656 625.535 502.935 625.73C503.213 625.921 503.56 626.016 503.975 626.016C504.58 626.016 505.044 625.784 505.366 625.32C505.689 624.852 505.85 624.236 505.85 623.475C505.85 623.025 505.798 622.645 505.696 622.332C505.593 622.02 505.444 621.783 505.249 621.622C505.054 621.456 504.839 621.338 504.605 621.27C504.375 621.202 504.104 621.167 503.792 621.167C503.694 621.167 503.477 621.185 503.14 621.219C502.803 621.253 502.625 621.27 502.605 621.27C502.502 621.27 502.417 621.229 502.349 621.146C502.28 621.058 502.246 620.936 502.246 620.779C502.246 620.618 502.28 620.494 502.349 620.406C502.417 620.313 502.502 620.267 502.605 620.267C502.625 620.267 502.803 620.289 503.14 620.333C503.477 620.372 503.694 620.391 503.792 620.391C504.343 620.391 504.768 620.164 505.066 619.71C505.369 619.256 505.52 618.677 505.52 617.974C505.52 617.442 505.393 617 505.139 616.648C504.885 616.292 504.546 616.114 504.121 616.114C503.828 616.114 503.569 616.17 503.345 616.282C503.125 616.395 503.015 616.573 503.015 616.817C503.015 616.949 503.081 617.146 503.213 617.41C503.35 617.669 503.418 617.891 503.418 618.077C503.418 618.326 503.335 618.528 503.169 618.685C503.008 618.841 502.781 618.919 502.488 618.919C502.195 618.919 501.956 618.821 501.77 618.626C501.589 618.426 501.499 618.157 501.499 617.82C501.499 617.225 501.812 616.69 502.437 616.216C503.066 615.738 503.848 615.499 504.78 615.499C505.728 615.499 506.523 615.733 507.168 616.202C507.817 616.67 508.142 617.261 508.142 617.974C508.142 618.443 507.986 618.875 507.673 619.271C507.361 619.666 506.965 619.983 506.487 620.223C506.013 620.457 505.496 620.618 504.934 620.706ZM514.492 626.434L512.09 626.478C511.982 626.409 511.929 626.309 511.929 626.177C511.929 626.041 511.982 625.945 512.09 625.892H513.174C513.203 625.892 513.23 625.879 513.254 625.855C513.279 625.826 513.291 625.794 513.291 625.76V623.76H509.783C509.617 623.76 509.49 623.711 509.402 623.614C509.314 623.516 509.27 623.392 509.27 623.24C509.27 623.128 509.341 622.977 509.482 622.786L514.749 615.74C514.861 615.579 515.02 615.499 515.225 615.499C515.366 615.499 515.486 615.542 515.584 615.63C515.686 615.718 515.737 615.84 515.737 615.997V622.684H517.312C517.39 622.684 517.456 622.71 517.51 622.764C517.568 622.818 517.598 622.886 517.598 622.969V623.475C517.598 623.558 517.568 623.626 517.51 623.68C517.456 623.733 517.39 623.76 517.312 623.76H515.737V625.76C515.737 625.794 515.75 625.826 515.774 625.855C515.803 625.879 515.833 625.892 515.862 625.892H516.807C516.904 625.945 516.953 626.041 516.953 626.177C516.953 626.309 516.904 626.409 516.807 626.478L514.492 626.434ZM513.291 622.684V618.619L510.295 622.684H513.291Z" fill="white"/>
</svg>
