<svg width="70" height="89" viewBox="0 0 70 89" fill="none" xmlns="http://www.w3.org/2000/svg">
<path d="M38.1428 23.8113H31.201C29.111 23.8113 27.2449 22.6917 26.1252 20.9749L19.3327 9.70377C16.9441 5.74768 19.7806 0.746582 24.4084 0.746582H45.0846C49.7125 0.746582 52.5489 5.8223 50.0857 9.77839L43.1439 20.9749C42.0989 22.7663 40.2328 23.8113 38.1428 23.8113Z" fill="#D03616"/>
<path d="M34.7839 21.0493C22.9903 21.0493 12.6149 27.6926 6.49414 37.7694H63.0737C56.9529 27.6926 46.5775 21.0493 34.7839 21.0493Z" fill="#D03616"/>
<path d="M0.671875 58.8188C0.671875 63.7452 1.56759 67.9999 3.1351 71.5827H66.4325C68 67.9999 68.8958 63.7452 68.8958 58.8188C68.8958 57.4005 68.8211 56.057 68.6718 54.7134H0.895805C0.746518 56.057 0.671875 57.4752 0.671875 58.8188Z" fill="#D03616"/>
<path d="M0.895996 54.7134H68.672C68.0749 48.5927 66.1341 42.8452 63.1484 37.9187H6.41959C3.43386 42.8452 1.49314 48.5927 0.895996 54.7134Z" fill="white"/>
<path d="M63.1483 37.9188C63.1483 37.8442 63.0736 37.7695 63.0736 37.7695H6.49408C6.49408 37.8442 6.41943 37.9188 6.41943 37.9188H63.1483Z" fill="#E8E8E8"/>
<path d="M34.784 87.9296C49.1155 87.9296 61.4316 83.1525 66.4327 71.5828H3.13525C8.13635 83.1525 20.4525 87.9296 34.784 87.9296Z" fill="white"/>
</svg>
