<svg width="62" height="77" viewBox="0 0 62 77" fill="none" xmlns="http://www.w3.org/2000/svg">
<path d="M1.47803 72.8186C1.47803 60.7042 1.47803 33.0141 1.47803 11.3026C1.47803 10.6733 2.12169 10.4373 2.37915 10.988L8.04339 21.2144C8.75142 22.6304 10.425 22.6304 11.1974 21.2144L15.7674 12.3253C16.6685 10.516 18.857 10.516 19.7581 12.3253L23.9419 20.3491C24.843 22.1584 27.0315 22.1584 27.9326 20.3491L32.1164 12.3253C33.0176 10.516 35.206 10.516 36.1071 12.3253L40.291 20.3491C41.1921 22.1584 43.3162 22.1584 44.2817 20.3491L50.4609 8.4707C50.4609 8.86403 50.4609 8.86403 50.4609 8.86403C50.4609 9.10002 50.4609 37.8914 50.4609 72.8186C50.4609 74.3919 49.431 75.7291 48.0793 75.7291H3.92394C2.50788 75.7291 1.47803 74.3919 1.47803 72.8186Z" fill="#F39218"/>
<path d="M58.6804 42.5963H34.3569C32.689 42.5963 31.5771 40.9003 32.411 39.4652L42.2794 23.0269C42.4879 22.7008 42.5574 22.3746 42.5574 21.9832V6.8496C42.5574 5.67544 43.5303 4.76221 44.7812 4.76221H48.1865C49.4375 4.76221 50.4104 5.67544 50.4104 6.8496V21.9832C50.4104 22.3746 50.4799 22.7008 50.6884 23.0269L60.5567 39.4652C61.4602 40.9003 60.3483 42.5963 58.6804 42.5963Z" fill="#67B32E"/>
<path d="M50.4106 2.73974C50.4106 3.9139 49.4377 4.82714 48.1868 4.82714H44.7815C43.5305 4.82714 42.5576 3.9139 42.5576 2.73974C42.5576 1.56558 43.5305 0.652344 44.7815 0.652344H48.1868C49.4377 0.652344 50.4106 1.56558 50.4106 2.73974Z" fill="#F39218"/>
<path d="M34.3571 75.8641H58.6806C59.9315 75.8641 60.9045 74.9509 60.9045 73.7767V44.6836C60.9045 43.5094 59.9315 42.5962 58.6806 42.5962H34.3571C33.1062 42.5962 32.1333 43.5094 32.1333 44.6836V73.7767C32.1333 74.9509 33.1062 75.8641 34.3571 75.8641Z" fill="white"/>
<path d="M53.6773 60.2088C53.6773 63.927 50.4805 66.9928 46.4497 66.9928C42.4885 66.9928 39.2222 63.9922 39.2222 60.2088C39.2222 56.4254 46.4497 47.9453 46.4497 47.9453C46.4497 47.9453 53.6773 56.4906 53.6773 60.2088Z" fill="#38B9C7"/>
</svg>
