<svg width="37" height="87" viewBox="0 0 37 87" fill="none" xmlns="http://www.w3.org/2000/svg">
<path d="M35.4352 29.6629C35.4352 29.6629 35.4352 77.9563 35.4352 82.4131C35.4352 84.4588 27.6907 86.1392 18.1197 86.1392C8.84093 86.1392 1.31563 84.6049 0.804199 82.6323C0.804199 80.0021 0.804199 28.7131 0.804199 28.7131C0.804199 14.174 35.4352 11.9822 35.4352 29.6629Z" fill="#38B9C7"/>
<path d="M0.730469 64.6588C0.730469 62.8323 0.730469 53.1151 0.730469 42.4482C1.2419 44.4209 8.7672 45.9551 18.046 45.9551C27.617 45.9551 35.3614 44.2747 35.3614 42.229C35.3614 42.4482 35.3614 42.5943 35.3614 42.5943C35.3614 53.1151 35.3614 62.7592 35.3614 64.6588C35.3614 66.7045 27.617 68.3849 18.046 68.3849C8.7672 68.3849 1.2419 66.8506 0.730469 64.878C0.730469 64.8049 0.730469 64.7318 0.730469 64.6588Z" fill="#23757D"/>
<path d="M18.1189 26.9595C26.5522 26.9595 33.3887 25.0623 33.3887 22.7219C33.3887 20.3816 26.5522 18.4844 18.1189 18.4844C9.68565 18.4844 2.84912 20.3816 2.84912 22.7219C2.84912 25.0623 9.68565 26.9595 18.1189 26.9595Z" fill="#2B8992"/>
<path d="M18.1192 22.0644C24.2121 22.0644 29.1514 20.6905 29.1514 18.9958C29.1514 17.3011 24.2121 15.9272 18.1192 15.9272C12.0262 15.9272 7.08691 17.3011 7.08691 18.9958C7.08691 20.6905 12.0262 22.0644 18.1192 22.0644Z" fill="#2B8992"/>
<path d="M23.5985 0.730469H12.4932V18.119H23.5985V0.730469Z" fill="white"/>
<circle cx="18" cy="9" r="4" fill="#232323"/>
</svg>
