<svg width="88" height="88" viewBox="0 0 88 88" fill="none" xmlns="http://www.w3.org/2000/svg">
<path d="M44.0003 1.52075C20.5559 1.52075 1.521 20.5556 1.521 44.0001C1.521 47.8218 2.03545 51.57 2.99087 55.0976H37.0184V85.8915C39.2967 86.259 41.6485 86.4794 44.0003 86.4794C67.4448 86.4794 86.4797 67.4446 86.4797 44.0001C86.4797 20.5556 67.4448 1.52075 44.0003 1.52075Z" fill="white"/>
<path d="M56.8612 22.7605C60.2301 22.7605 62.9612 20.0294 62.9612 16.6605C62.9612 13.2916 60.2301 10.5605 56.8612 10.5605C53.4923 10.5605 50.7612 13.2916 50.7612 16.6605C50.7612 20.0294 53.4923 22.7605 56.8612 22.7605Z" fill="#FFDE00"/>
<path d="M71.1193 39.076C73.4329 39.076 75.3085 37.2005 75.3085 34.8869C75.3085 32.5733 73.4329 30.6978 71.1193 30.6978C68.8057 30.6978 66.9302 32.5733 66.9302 34.8869C66.9302 37.2005 68.8057 39.076 71.1193 39.076Z" fill="#FFDE00"/>
<path d="M63.035 42.016C64.6585 42.016 65.9747 40.6998 65.9747 39.0762C65.9747 37.4526 64.6585 36.1365 63.035 36.1365C61.4114 36.1365 60.0952 37.4526 60.0952 39.0762C60.0952 40.6998 61.4114 42.016 63.035 42.016Z" fill="#FFDE00"/>
<path d="M52.3787 32.9027C54.0023 32.9027 55.3185 31.5865 55.3185 29.9629C55.3185 28.3394 54.0023 27.0232 52.3787 27.0232C50.7551 27.0232 49.439 28.3394 49.439 29.9629C49.439 31.5865 50.7551 32.9027 52.3787 32.9027Z" fill="#FFDE00"/>
<path d="M74.9407 46.4254C76.5643 46.4254 77.8805 45.1092 77.8805 43.4856C77.8805 41.8621 76.5643 40.5459 74.9407 40.5459C73.3171 40.5459 72.001 41.8621 72.001 43.4856C72.001 45.1092 73.3171 46.4254 74.9407 46.4254Z" fill="#FFDE00"/>
<path d="M57.0819 59.0662C60.532 59.0662 63.3289 56.2693 63.3289 52.8192C63.3289 49.3691 60.532 46.5723 57.0819 46.5723C53.6318 46.5723 50.835 49.3691 50.835 52.8192C50.835 56.2693 53.6318 59.0662 57.0819 59.0662Z" fill="#BE1622"/>
<path d="M53.1128 76.7049C54.6958 76.7049 55.9791 75.4217 55.9791 73.8387C55.9791 72.2557 54.6958 70.9724 53.1128 70.9724C51.5298 70.9724 50.2466 72.2557 50.2466 73.8387C50.2466 75.4217 51.5298 76.7049 53.1128 76.7049Z" fill="#BE1622"/>
<path d="M66.93 70.164C68.7159 70.164 70.1637 68.7162 70.1637 66.9303C70.1637 65.1443 68.7159 63.6965 66.93 63.6965C65.1441 63.6965 63.6963 65.1443 63.6963 66.9303C63.6963 68.7162 65.1441 70.164 66.93 70.164Z" fill="#BE1622"/>
<path d="M68.3262 54.8773C69.9904 54.8773 71.3395 53.5282 71.3395 51.8641C71.3395 50.1999 69.9904 48.8508 68.3262 48.8508C66.6621 48.8508 65.313 50.1999 65.313 51.8641C65.313 53.5282 66.6621 54.8773 68.3262 54.8773Z" fill="#BE1622"/>
<path d="M27.7579 29.9628C32.1821 29.9628 35.7687 26.3762 35.7687 21.952C35.7687 17.5277 32.1821 13.9412 27.7579 13.9412C23.3336 13.9412 19.7471 17.5277 19.7471 21.952C19.7471 26.3762 23.3336 29.9628 27.7579 29.9628Z" fill="#38B9C7"/>
<path d="M35.1806 21.952C37.3724 21.952 39.1492 20.1751 39.1492 17.9833C39.1492 15.7915 37.3724 14.0146 35.1806 14.0146C32.9887 14.0146 31.2119 15.7915 31.2119 17.9833C31.2119 20.1751 32.9887 21.952 35.1806 21.952Z" fill="#38B9C7"/>
<path d="M25.4062 44.5145C27.598 44.5145 29.3748 42.7376 29.3748 40.5458C29.3748 38.354 27.598 36.5771 25.4062 36.5771C23.2143 36.5771 21.4375 38.354 21.4375 40.5458C21.4375 42.7376 23.2143 44.5145 25.4062 44.5145Z" fill="#38B9C7"/>
<path d="M19.8207 47.087C22.0125 47.087 23.7894 45.3101 23.7894 43.1183C23.7894 40.9265 22.0125 39.1497 19.8207 39.1497C17.6289 39.1497 15.8521 40.9265 15.8521 43.1183C15.8521 45.3101 17.6289 47.087 19.8207 47.087Z" fill="#38B9C7"/>
<path d="M9.23708 40.1785C10.6983 40.1785 11.8829 38.994 11.8829 37.5327C11.8829 36.0715 10.6983 34.887 9.23708 34.887C7.77586 34.887 6.59131 36.0715 6.59131 37.5327C6.59131 38.994 7.77586 40.1785 9.23708 40.1785Z" fill="#38B9C7"/>
<path d="M13.7938 34.5194C15.5797 34.5194 17.0275 33.0717 17.0275 31.2857C17.0275 29.4998 15.5797 28.052 13.7938 28.052C12.0078 28.052 10.5601 29.4998 10.5601 31.2857C10.5601 33.0717 12.0078 34.5194 13.7938 34.5194Z" fill="#38B9C7"/>
<path d="M47.6742 76.1168C49.8661 76.1168 51.6429 74.3399 51.6429 72.1481C51.6429 69.9563 49.8661 68.1794 47.6742 68.1794C45.4824 68.1794 43.7056 69.9563 43.7056 72.1481C43.7056 74.3399 45.4824 76.1168 47.6742 76.1168Z" fill="#BE1622"/>
<path d="M57.0819 74.3531C63.2921 74.3531 68.3265 69.3187 68.3265 63.1085C68.3265 56.8984 63.2921 51.864 57.0819 51.864C50.8718 51.864 45.8374 56.8984 45.8374 63.1085C45.8374 69.3187 50.8718 74.3531 57.0819 74.3531Z" fill="#BE1622"/>
<path d="M62.9608 39.0762C69.171 39.0762 74.2054 34.0419 74.2054 27.8317C74.2054 21.6215 69.171 16.5872 62.9608 16.5872C56.7507 16.5872 51.7163 21.6215 51.7163 27.8317C51.7163 34.0419 56.7507 39.0762 62.9608 39.0762Z" fill="#FFDE00"/>
<path d="M23.9359 41.2073C30.1461 41.2073 35.1805 36.173 35.1805 29.9628C35.1805 23.7526 30.1461 18.7183 23.9359 18.7183C17.7258 18.7183 12.6914 23.7526 12.6914 29.9628C12.6914 36.173 17.7258 41.2073 23.9359 41.2073Z" fill="#38B9C7"/>
</svg>
