<svg width="230" height="95" viewBox="0 0 230 95" fill="none" xmlns="http://www.w3.org/2000/svg">
<g opacity="0.56">
<path opacity="0.56" d="M211.444 76.0933H18.2569C8.19695 76.0933 0 63.2765 0 47.5467C0 31.8169 8.19695 19 18.2569 19H211.444C221.504 19 229.701 31.8169 229.701 47.5467C229.701 63.2765 221.504 76.0933 211.444 76.0933Z" fill="#CBCBCB"/>
</g>
<path d="M51.6045 76.5868C51.6045 86.4151 43.6306 94.3891 33.8023 94.3891C23.9739 94.3891 16 86.4151 16 76.5868C16 70.2818 19.1525 64.9041 23.9739 61.7516V9.45743C23.9739 6.86127 25.0866 4.45056 26.7555 2.7816C28.4245 1.11264 30.8352 0 33.4314 0C38.6237 0 42.8888 4.26512 42.8888 9.64289V61.5661C48.2666 64.5332 51.6045 70.2818 51.6045 76.5868Z" fill="white"/>
<path d="M35.1003 69.3546H32.3186C31.206 69.3546 30.2788 68.4274 30.2788 67.3148V8.71563C30.2788 7.60299 31.206 6.67578 32.3186 6.67578H35.1003C36.2129 6.67578 37.1401 7.60299 37.1401 8.71563V67.3148C37.3255 68.4274 36.3983 69.3546 35.1003 69.3546Z" fill="#E30613"/>
<path d="M35.1008 70.0963H32.3192C30.8357 70.0963 29.5376 68.7982 29.5376 67.3147V8.71556C29.5376 7.23204 30.8357 5.93396 32.3192 5.93396H35.1008C36.5843 5.93396 37.8824 7.23204 37.8824 8.71556V67.3147C38.0678 68.7982 36.7698 70.0963 35.1008 70.0963ZM32.3192 7.23204C31.5774 7.23204 30.8357 7.78836 30.8357 8.71556V67.3147C30.8357 68.0564 31.392 68.7982 32.3192 68.7982H35.1008C35.8426 68.7982 36.5843 68.2419 36.5843 67.3147V8.71556C36.5843 7.9738 36.028 7.23204 35.1008 7.23204H32.3192Z" fill="black"/>
<path d="M33.8023 89.3821C40.7666 89.3821 46.4122 83.7364 46.4122 76.7722C46.4122 69.8079 40.7666 64.1622 33.8023 64.1622C26.838 64.1622 21.1924 69.8079 21.1924 76.7722C21.1924 83.7364 26.838 89.3821 33.8023 89.3821Z" fill="#E30613"/>
<path d="M33.8025 89.9385C26.5703 89.9385 20.6362 84.0044 20.6362 76.7722C20.6362 69.54 26.5703 63.606 33.8025 63.606C41.0347 63.606 46.9687 69.54 46.9687 76.7722C46.9687 84.0044 41.0347 89.9385 33.8025 89.9385ZM33.8025 64.904C27.3121 64.904 21.9343 70.2818 21.9343 76.7722C21.9343 83.2626 27.3121 88.6404 33.8025 88.6404C40.2929 88.6404 45.6707 83.2626 45.6707 76.7722C45.6707 70.2818 40.2929 64.904 33.8025 64.904Z" fill="black"/>
<path d="M35.1003 58.7843H32.3186C31.206 58.7843 30.2788 57.8571 30.2788 56.7445V51.5522C30.2788 50.4395 31.206 49.5123 32.3186 49.5123H35.1003C36.2129 49.5123 37.1401 50.4395 37.1401 51.5522V56.7445C37.3255 57.6717 36.3983 58.7843 35.1003 58.7843Z" fill="white"/>
<path d="M35.1008 59.3407H32.3192C30.8357 59.3407 29.5376 58.0427 29.5376 56.5591V51.3668C29.5376 49.8833 30.8357 48.5852 32.3192 48.5852H35.1008C36.5843 48.5852 37.8824 49.8833 37.8824 51.3668V56.5591C38.0678 58.2281 36.7698 59.3407 35.1008 59.3407ZM32.3192 50.0687C31.5774 50.0687 30.8357 50.6251 30.8357 51.5523V56.7446C30.8357 57.4863 31.392 58.2281 32.3192 58.2281H35.1008C35.8426 58.2281 36.5843 57.6718 36.5843 56.7446V51.5523C36.5843 50.8105 36.028 50.0687 35.1008 50.0687H32.3192Z" fill="black"/>
<path d="M35.1003 40.4259H32.3186C31.206 40.4259 30.2788 39.4987 30.2788 38.3861V33.1938C30.2788 32.0811 31.206 31.1539 32.3186 31.1539H35.1003C36.2129 31.1539 37.1401 32.0811 37.1401 33.1938V38.3861C37.3255 39.4987 36.3983 40.4259 35.1003 40.4259Z" fill="white"/>
<path d="M35.1008 41.1676H32.3192C30.8357 41.1676 29.5376 39.8696 29.5376 38.386V33.1937C29.5376 31.7102 30.8357 30.4121 32.3192 30.4121H35.1008C36.5843 30.4121 37.8824 31.7102 37.8824 33.1937V38.386C38.0678 39.8696 36.7698 41.1676 35.1008 41.1676ZM32.3192 31.7102C31.5774 31.7102 30.8357 32.2665 30.8357 33.1937V38.386C30.8357 39.1278 31.392 39.8696 32.3192 39.8696H35.1008C35.8426 39.8696 36.5843 39.3132 36.5843 38.386V33.1937C36.5843 32.452 36.028 31.7102 35.1008 31.7102H32.3192Z" fill="black"/>
<path d="M35.1003 22.6236H32.3186C31.206 22.6236 30.2788 21.6964 30.2788 20.5837V15.206C30.2788 14.0933 31.206 13.1661 32.3186 13.1661H35.1003C36.2129 13.1661 37.1401 14.0933 37.1401 15.206V20.3983C37.3255 21.6964 36.3983 22.6236 35.1003 22.6236Z" fill="white"/>
<path d="M35.1008 23.1799H32.3192C30.8357 23.1799 29.5376 21.8818 29.5376 20.3983V15.2059C29.5376 13.7224 30.8357 12.4243 32.3192 12.4243H35.1008C36.5843 12.4243 37.8824 13.7224 37.8824 15.2059V20.3983C38.0678 22.0672 36.7698 23.1799 35.1008 23.1799ZM32.3192 13.9078C31.5774 13.9078 30.8357 14.4642 30.8357 15.3914V20.5837C30.8357 21.3254 31.392 22.0672 32.3192 22.0672H35.1008C35.8426 22.0672 36.5843 21.5109 36.5843 20.5837V15.2059C36.5843 14.4642 36.028 13.7224 35.1008 13.7224H32.3192V13.9078Z" fill="black"/>
</svg>
