<svg width="54" height="88" viewBox="0 0 54 88" fill="none" xmlns="http://www.w3.org/2000/svg">
<path fill-rule="evenodd" clip-rule="evenodd" d="M0.385305 0.957193C23.1065 -3.85663 45.8738 9.91585 51.956 32.6148C58.2439 56.0815 44.3177 80.2023 20.851 86.4902C13.7922 88.3816 6.6741 88.444 2.86308e-05 86.9679C14.012 77.7395 23.2601 61.867 23.2601 43.8344C23.2601 25.9677 14.1813 10.2214 0.385305 0.957193Z" fill="#FEE97B"/>
<path d="M37.9369 59.4674C38.9042 63.0772 36.762 66.7876 33.1522 67.7548C29.5422 68.7221 25.8319 66.5799 24.8646 62.9702C23.8974 59.3604 26.0396 55.65 29.6495 54.6827C33.2593 53.7155 36.9697 55.8577 37.9369 59.4674Z" fill="#CAC58C"/>
<path d="M34.0708 22.4643C34.4377 23.8335 33.6251 25.2409 32.2559 25.6078C30.8866 25.9747 29.4792 25.1622 29.1123 23.7929C28.7454 22.4237 29.558 21.0163 30.9273 20.6494C32.2965 20.2825 33.7039 21.0951 34.0708 22.4643Z" fill="#CAC58C"/>
<path d="M47.5016 42.3011C48.1973 44.8975 46.6565 47.5663 44.0601 48.262C41.4635 48.9577 38.7947 47.4169 38.099 44.8205C37.4033 42.2241 38.9442 39.5553 41.5407 38.8595C44.1371 38.1638 46.8059 39.7047 47.5016 42.3011Z" fill="#CAC58C"/>
</svg>
