<svg width="37" height="87" viewBox="0 0 37 87" fill="none" xmlns="http://www.w3.org/2000/svg">
<path d="M35.4352 29.6629C35.4352 29.6629 35.4352 77.9563 35.4352 82.4131C35.4352 84.4588 27.6907 86.1392 18.1197 86.1392C8.84093 86.1392 1.31563 84.6049 0.804199 82.6323C0.804199 80.0021 0.804199 28.7131 0.804199 28.7131C0.804199 14.174 35.4352 11.9822 35.4352 29.6629Z" fill="#D03616"/>
<path d="M18.1194 86.8697C9.9365 86.8697 0.803854 85.6277 0.0732422 82.7783V82.6322C0.0732422 80.002 0.0732422 28.7131 0.0732422 28.7131C0.0732422 20.6763 9.64425 16.3657 18.6308 16.3657C23.2336 16.3657 27.5442 17.4617 30.6128 19.5074C34.2658 21.9184 36.1654 25.4253 36.1654 29.6629V82.413C36.1654 85.9199 24.3295 86.8697 18.1194 86.8697ZM1.53446 82.4861C2.04589 83.582 7.74467 85.4085 18.1194 85.4085C28.8593 85.4085 34.7042 83.4358 34.7042 82.413V29.6629C34.7042 25.9367 33.0238 22.8682 29.8091 20.7494C26.9597 18.8498 22.9414 17.8269 18.5577 17.8269C10.3018 17.8269 1.4614 21.6261 1.4614 28.7131C1.53446 28.7131 1.53446 78.7599 1.53446 82.4861Z" fill="#D03616"/>
<path d="M0.730469 64.6593C0.730469 62.8327 0.730469 53.1156 0.730469 42.4487C1.2419 44.4213 8.7672 45.9556 18.046 45.9556C27.617 45.9556 35.3614 44.2752 35.3614 42.2295C35.3614 42.4487 35.3614 42.5948 35.3614 42.5948C35.3614 53.1156 35.3614 62.7597 35.3614 64.6593C35.3614 66.705 27.617 68.3854 18.046 68.3854C8.7672 68.3854 1.2419 66.8511 0.730469 64.8784C0.730469 64.8054 0.730469 64.7323 0.730469 64.6593Z" fill="#9C2D16"/>
<path d="M18.0461 69.1159C9.86326 69.1159 0.730611 67.8739 0 65.0245V64.8784V36.3845L1.46122 42.3025C1.75347 43.3984 7.52531 45.2249 18.0461 45.2249C28.7861 45.2249 34.631 43.2523 34.631 42.2294H36.0922V64.6592C36.1653 68.1661 24.3294 69.1159 18.0461 69.1159ZM1.46122 64.7323C1.97265 65.8282 7.67143 67.6547 18.0461 67.6547C28.7861 67.6547 34.631 65.682 34.631 64.6592V44.129C31.2702 46.1017 22.9412 46.6131 18.0461 46.6131C11.5437 46.6131 4.45673 45.8094 1.46122 44.129V64.7323Z" fill="#9C2D16"/>
<path d="M18.1189 26.9597C26.5522 26.9597 33.3887 25.0625 33.3887 22.7222C33.3887 20.3818 26.5522 18.4846 18.1189 18.4846C9.68565 18.4846 2.84912 20.3818 2.84912 22.7222C2.84912 25.0625 9.68565 26.9597 18.1189 26.9597Z" fill="#9C2D16"/>
<path d="M18.1191 27.6902C10.1554 27.6902 2.11865 26.0098 2.11865 22.7221C2.11865 19.4343 10.1554 17.7539 18.1191 17.7539C26.0827 17.7539 34.1194 19.4343 34.1194 22.7221C34.0464 26.0098 26.0097 27.6902 18.1191 27.6902ZM18.1191 19.2151C9.27866 19.2151 3.57988 21.2609 3.57988 22.7221C3.57988 24.1833 9.27866 26.229 18.1191 26.229C26.9595 26.229 32.6582 24.1833 32.6582 22.7221C32.6582 21.2609 26.9595 19.2151 18.1191 19.2151Z" fill="#9C2D16"/>
<path d="M18.1192 22.0644C24.2121 22.0644 29.1514 20.6905 29.1514 18.9958C29.1514 17.3011 24.2121 15.9272 18.1192 15.9272C12.0262 15.9272 7.08691 17.3011 7.08691 18.9958C7.08691 20.6905 12.0262 22.0644 18.1192 22.0644Z" fill="#70200F"/>
<path d="M18.1193 22.7952C12.4936 22.7952 6.35645 21.6262 6.35645 18.996C6.35645 16.3658 12.4205 15.1968 18.1193 15.1968C23.8181 15.1968 29.8821 16.3658 29.8821 18.996C29.8821 21.6262 23.745 22.7952 18.1193 22.7952ZM18.1193 16.658C11.3246 16.658 7.81767 18.2654 7.81767 18.996C7.81767 19.7266 11.3246 21.3339 18.1193 21.3339C24.914 21.3339 28.4209 19.7266 28.4209 18.996C28.4209 18.2654 24.8409 16.658 18.1193 16.658Z" fill="#70200F"/>
<path d="M23.5985 0.730713H12.4932V18.1193H23.5985V0.730713Z" fill="white"/>
<circle cx="18" cy="10" r="4" fill="black"/>
</svg>
