<svg width="53" height="91" viewBox="0 0 53 91" fill="none" xmlns="http://www.w3.org/2000/svg">
<path d="M52.1477 63.8478C52.1477 78.0277 40.6799 89.4955 26.5 89.4955C12.3202 89.4955 0.774902 78.0277 0.774902 63.8478C0.774902 55.1695 10.3831 39.6724 17.8992 28.9794C17.9767 28.9019 17.9766 28.9019 18.0541 28.8244C17.9766 28.5145 17.8992 28.2046 17.8992 27.8946V25.8025C17.8992 24.0204 19.2939 22.4706 21.0761 22.3157C21.231 22.3157 21.3085 22.3157 21.4635 22.3157H31.6141C31.769 22.3157 31.8465 22.3157 32.0015 22.3157C33.7837 22.4706 35.1784 24.0204 35.1784 25.8025V27.8946C35.1784 28.2046 35.1009 28.5145 35.0234 28.8244C35.1009 28.9019 35.1009 28.9019 35.1784 28.9794C42.5395 39.6724 52.1477 55.1695 52.1477 63.8478Z" fill="#FFE115"/>
<path d="M35.0239 17.8216V19.4488C35.0239 20.8435 33.6291 22.0058 31.847 22.1608C31.7695 22.1608 31.6145 22.1608 31.4595 22.1608H21.309C21.154 22.1608 21.0765 22.1608 20.9215 22.1608C19.1394 22.0058 17.7446 20.8435 17.7446 19.4488V17.8216C17.7446 16.3494 19.2943 15.1096 21.2315 15.1096H31.3821C33.4742 15.1096 35.0239 16.2719 35.0239 17.8216Z" fill="#D02C17"/>
<path d="M35.0239 10.6932V12.3204C35.0239 13.7151 33.6291 14.8774 31.847 15.0324C31.7695 15.0324 31.6145 15.0324 31.4595 15.0324H21.309C21.154 15.0324 21.0765 15.0324 20.9215 15.0324C19.1394 14.8774 17.7446 13.7151 17.7446 12.3204V10.6932C17.7446 9.22099 19.2943 7.98123 21.2315 7.98123H31.3821C33.4742 7.90374 35.0239 9.14351 35.0239 10.6932Z" fill="white"/>
<path d="M32.1565 3.48689V5.11408C32.1565 6.50882 31.2266 7.6711 30.0644 7.82607C29.9869 7.82607 29.9094 7.82607 29.8319 7.82607H23.0907C23.0132 7.82607 22.9357 7.82607 22.8582 7.82607C21.6959 7.6711 20.7661 6.50882 20.7661 5.11408V3.48689C20.7661 2.01467 21.8509 0.774902 23.0907 0.774902H29.8319C31.1492 0.774902 32.1565 2.01467 32.1565 3.48689Z" fill="#D02C17"/>
<path d="M21.3085 57.2619L20.4562 56.4096C19.7588 55.7122 20.1463 54.085 21.3085 52.7678C21.386 52.6903 21.4635 52.6128 21.541 52.5353L28.8246 45.2517C28.9021 45.1742 28.9796 45.0967 29.0571 45.0192C30.3743 43.857 32.0015 43.392 32.6989 44.1669L33.5512 45.0192C34.3261 45.7941 33.7837 47.4988 32.3889 48.8935L25.1053 56.1771C23.8655 57.5719 22.0834 58.0368 21.3085 57.2619Z" fill="#D02C17"/>
<path d="M20.1464 73.1462L19.2941 72.2939C18.5967 71.5965 18.9841 69.9693 20.1464 68.6521C20.2239 68.5746 20.3014 68.4971 20.3789 68.4196L27.6625 61.136C27.74 61.0585 27.8175 60.981 27.895 60.9035C29.2122 59.7412 30.8394 59.2763 31.5368 60.0512L32.3891 60.9035C33.164 61.6784 32.6216 63.383 31.2268 64.7778L23.9432 72.0614C22.626 73.3787 20.8438 73.9211 20.1464 73.1462Z" fill="#D02C17"/>
<path d="M22.5482 63.6153L21.6958 62.7629C20.9984 62.0656 21.0759 60.8258 21.8508 59.896C21.9283 59.8185 21.9283 59.741 22.0058 59.741L26.8099 54.9369C26.8873 54.8594 26.9648 54.8594 26.9648 54.7819C27.8946 54.0071 29.1344 53.9296 29.8318 54.627L30.6841 55.4793C31.459 56.2542 31.304 57.6489 30.3742 58.5012L25.5701 63.3053C24.6403 64.2351 23.2455 64.3126 22.5482 63.6153Z" fill="white"/>
</svg>
