<svg width="90" height="90" viewBox="0 0 90 90" fill="none" xmlns="http://www.w3.org/2000/svg">
<path d="M44.9998 67.3748C57.357 67.3748 67.3745 57.3573 67.3745 45C67.3745 32.6428 57.357 22.6252 44.9998 22.6252C32.6425 22.6252 22.625 32.6428 22.625 45C22.625 57.3573 32.6425 67.3748 44.9998 67.3748Z" fill="#F9C321"/>
<path d="M47.0875 2.33774V22.5418C47.0875 23.3767 46.4196 24.0446 45.5847 24.0446H44.3324C43.4975 24.0446 42.8296 23.3767 42.8296 22.5418V2.33774C42.8296 1.50286 43.4975 0.834961 44.3324 0.834961H45.5847C46.4196 0.834961 47.0875 1.50286 47.0875 2.33774Z" fill="#F9C321"/>
<path d="M25.4638 7.01305L35.5658 24.5455C35.9833 25.2134 35.7328 26.1318 34.9814 26.5492L33.8961 27.2171C33.2282 27.6346 32.3098 27.3841 31.8924 26.6327L21.7903 9.10025C21.4564 8.34886 21.7069 7.51398 22.3748 7.09654L23.4601 6.42863C24.2115 6.01119 25.1299 6.26166 25.4638 7.01305Z" fill="#F9C321"/>
<path d="M9.10014 21.7904L26.6326 31.8924C27.3005 32.3099 27.551 33.2282 27.217 33.8961L26.5491 35.065C26.1317 35.7329 25.2133 35.9833 24.5454 35.6494L7.01294 25.5474C6.34504 25.1299 6.09457 24.2115 6.42853 23.5436L7.09643 22.4583C7.51387 21.7069 8.34875 21.4564 9.10014 21.7904Z" fill="#F9C321"/>
<path d="M2.33774 42.9131H22.6253C23.4602 42.9131 24.1281 43.581 24.1281 44.4159V45.6682C24.1281 46.5031 23.4602 47.171 22.6253 47.171H2.33774C1.50286 47.171 0.834961 46.5031 0.834961 45.6682V44.4159C0.834961 43.581 1.50286 42.9131 2.33774 42.9131Z" fill="#F9C321"/>
<path d="M7.01305 64.5361L24.5455 54.434C25.2134 54.0166 26.1318 54.267 26.5492 55.0184L27.2171 56.1038C27.6346 56.7717 27.3841 57.69 26.6327 58.1075L9.10025 68.2095C8.34886 68.627 7.51398 68.3765 7.09654 67.6251L6.42863 66.5398C6.01119 65.8719 6.26166 64.9535 7.01305 64.5361Z" fill="#F9C321"/>
<path d="M21.7906 80.8999L31.8927 63.3674C32.3101 62.6995 33.2285 62.4491 33.8964 62.783L35.0652 63.4509C35.7331 63.8684 35.9836 64.7867 35.6496 65.4546L25.5476 82.9871C25.1302 83.655 24.2118 83.9055 23.5439 83.5715L22.4585 82.9036C21.7072 82.5697 21.4567 81.6513 21.7906 80.8999Z" fill="#F9C321"/>
<path d="M42.9131 87.6624V67.3748C42.9131 66.54 43.581 65.8721 44.4159 65.8721H45.6682C46.5031 65.8721 47.171 66.54 47.171 67.3748V87.6624C47.171 88.4973 46.5031 89.1652 45.6682 89.1652H44.4159C43.581 89.1652 42.9131 88.4973 42.9131 87.6624Z" fill="#F9C321"/>
<path d="M64.5361 83.0707L54.434 65.5382C54.0166 64.8703 54.267 63.952 55.0184 63.5345L56.1038 62.8666C56.7717 62.4492 57.69 62.6996 58.1075 63.451L68.2095 80.9835C68.627 81.6514 68.3765 82.5698 67.6251 82.9872L66.5398 83.6551C65.8719 83.9891 64.9535 83.7386 64.5361 83.0707Z" fill="#F9C321"/>
<path d="M80.8999 68.2099L63.3674 58.1079C62.6995 57.6904 62.4491 56.772 62.783 56.1041L63.4509 55.0188C63.8684 54.3509 64.7867 54.1004 65.4546 54.4344L82.9871 64.5364C83.655 64.9539 83.9055 65.8722 83.5715 66.5401L82.9871 67.6255C82.5697 68.3769 81.6513 68.6273 80.8999 68.2099Z" fill="#F9C321"/>
<path d="M87.6624 47.0875H67.4584C66.6235 47.0875 65.9556 46.4196 65.9556 45.5847V44.3324C65.9556 43.4975 66.6235 42.8296 67.4584 42.8296H87.6624C88.4973 42.8296 89.1652 43.4975 89.1652 44.3324V45.5847C89.1652 46.4196 88.4973 47.0875 87.6624 47.0875Z" fill="#F9C321"/>
<path d="M83.0707 25.4639L65.5382 35.566C64.8703 35.9834 63.952 35.7329 63.5345 34.9815L62.8666 33.8962C62.4492 33.2283 62.6996 32.3099 63.451 31.8925L80.9835 21.7905C81.6514 21.373 82.5698 21.6235 82.9872 22.3749L83.6551 23.4602C83.9891 24.2116 83.7386 25.13 83.0707 25.4639Z" fill="#F9C321"/>
<path d="M68.2099 9.10038L58.1079 26.6328C57.6904 27.3008 56.772 27.5512 56.1041 27.2173L55.0188 26.5494C54.3509 26.1319 54.1004 25.2136 54.4344 24.5457L64.5364 7.01319C64.9539 6.34528 65.8722 6.09482 66.5401 6.42877L67.6255 7.09667C68.3769 7.51411 68.6273 8.34899 68.2099 9.10038Z" fill="#F9C321"/>
</svg>
