<svg width="119" height="80" viewBox="0 0 119 80" fill="none" xmlns="http://www.w3.org/2000/svg">
<path d="M57.9266 66.1845C57.9266 74.0781 47.2399 78.207 29.9955 78.207C12.7511 78.207 1.21436 73.7137 1.21436 65.8201C1.21436 57.9266 13.1154 53.9191 30.3598 53.9191C47.6043 53.7977 57.9266 58.1695 57.9266 66.1845Z" fill="#E2C83E"/>
<path d="M29.9956 79.2999C11.2939 79.2999 0 74.1995 0 65.6987C0 57.3194 11.051 52.5833 30.3599 52.5833C48.5758 52.5833 59.141 57.5623 59.141 66.1845C59.141 74.6853 48.8187 79.2999 29.9956 79.2999ZM30.3599 55.012C12.8726 55.012 2.42879 59.0196 2.42879 65.6987C2.42879 72.6208 12.994 76.8712 29.9956 76.8712C46.9971 76.8712 56.7122 72.9851 56.7122 66.063C56.7122 59.141 46.8757 55.012 30.3599 55.012Z" fill="black"/>
<path d="M29.6315 67.6418C40.5638 67.6418 49.4262 65.8476 49.4262 63.6343C49.4262 61.421 40.5638 59.6268 29.6315 59.6268C18.6993 59.6268 9.83691 61.421 9.83691 63.6343C9.83691 65.8476 18.6993 67.6418 29.6315 67.6418Z" fill="#BD9725"/>
<path d="M29.6316 68.8561C27.4457 68.8561 8.62256 68.7347 8.62256 63.6342C8.62256 58.5338 27.4457 58.4124 29.6316 58.4124C31.8175 58.4124 50.6406 58.5338 50.6406 63.6342C50.5192 68.7347 31.6961 68.8561 29.6316 68.8561ZM11.1728 63.6342C12.2657 64.7272 18.8235 66.4273 29.6316 66.4273C40.4397 66.4273 46.9975 64.7272 48.0904 63.6342C46.9975 62.5413 40.4397 60.8411 29.6316 60.8411C18.8235 60.8411 12.2657 62.5413 11.1728 63.6342Z" fill="black"/>
<path d="M57.9266 49.0615C57.9266 56.9551 47.2399 61.084 29.9955 61.084C12.7511 61.084 1.21436 56.5908 1.21436 48.6972C1.21436 40.8036 13.1154 36.7961 30.3598 36.7961C47.6043 36.6747 57.9266 41.1679 57.9266 49.0615Z" fill="#E2C83E"/>
<path d="M29.9956 62.2985C11.2939 62.2985 0 57.198 0 48.6973C0 40.318 11.051 35.5818 30.3599 35.5818C48.5758 35.5818 59.141 40.5608 59.141 49.183C59.141 57.5624 48.8187 62.2985 29.9956 62.2985ZM30.3599 37.8891C12.8726 37.8891 2.42879 41.8967 2.42879 48.5758C2.42879 55.4979 12.994 59.7482 29.9956 59.7482C46.9971 59.7482 56.7122 55.8622 56.7122 48.9401C56.7122 42.1395 46.8757 37.8891 30.3599 37.8891Z" fill="black"/>
<path d="M29.6315 50.6402C40.5638 50.6402 49.4262 48.846 49.4262 46.6327C49.4262 44.4194 40.5638 42.6252 29.6315 42.6252C18.6993 42.6252 9.83691 44.4194 9.83691 46.6327C9.83691 48.846 18.6993 50.6402 29.6315 50.6402Z" fill="#BD9725"/>
<path d="M29.6316 51.8547C27.4457 51.8547 8.62256 51.7332 8.62256 46.6328C8.62256 41.5323 27.4457 41.4109 29.6316 41.4109C31.8175 41.4109 50.6406 41.5323 50.6406 46.6328C50.5192 51.7332 31.6961 51.8547 29.6316 51.8547ZM11.1728 46.6328C12.2657 47.7257 18.8235 49.4259 29.6316 49.4259C40.4397 49.4259 46.9975 47.7257 48.0904 46.6328C46.9975 45.5398 40.4397 43.8397 29.6316 43.8397C18.8235 43.8397 12.1443 45.5398 11.1728 46.6328Z" fill="black"/>
<path d="M57.9266 30.6027C57.9266 38.4963 47.2399 42.6253 29.9955 42.6253C12.7511 42.6253 1.21436 38.132 1.21436 30.2384C1.21436 22.3448 13.1154 18.3374 30.3598 18.3374C47.6043 18.2159 57.9266 22.7092 57.9266 30.6027Z" fill="#E2C83E"/>
<path d="M29.9956 43.8396C11.2939 43.8396 0 38.7391 0 30.2384C0 21.8591 11.051 17.1229 30.3599 17.1229C48.5758 17.1229 59.141 22.1019 59.141 30.7241C59.141 39.1035 48.8187 43.8396 29.9956 43.8396ZM30.3599 19.4303C12.8726 19.4303 2.42879 23.4378 2.42879 30.1169C2.42879 37.039 12.994 41.2894 29.9956 41.2894C46.9971 41.2894 56.7122 37.4033 56.7122 30.4813C56.7122 23.6807 46.8757 19.4303 30.3599 19.4303Z" fill="black"/>
<path d="M29.6315 32.1814C40.5638 32.1814 49.4262 30.3872 49.4262 28.1739C49.4262 25.9606 40.5638 24.1664 29.6315 24.1664C18.6993 24.1664 9.83691 25.9606 9.83691 28.1739C9.83691 30.3872 18.6993 32.1814 29.6315 32.1814Z" fill="#BD9725"/>
<path d="M29.6316 33.3958C27.4457 33.3958 8.62256 33.2744 8.62256 28.1739C8.62256 23.0735 27.4457 22.952 29.6316 22.952C31.8175 22.952 50.6406 23.0735 50.6406 28.1739C50.5192 33.2744 31.6961 33.3958 29.6316 33.3958ZM11.1728 28.1739C12.2657 29.2669 18.8235 30.967 29.6316 30.967C40.4397 30.967 46.9975 29.2669 48.0904 28.1739C46.9975 27.081 40.4397 25.3808 29.6316 25.3808C18.8235 25.3808 12.1443 27.081 11.1728 28.1739Z" fill="black"/>
<path d="M57.9266 13.6012C57.9266 21.4948 47.2399 25.6237 29.9955 25.6237C12.7511 25.6237 1.21436 21.1305 1.21436 13.2369C1.21436 5.34333 13.1154 1.33584 30.3598 1.33584C47.6043 1.2144 57.9266 5.58619 57.9266 13.6012Z" fill="#E2C83E"/>
<path d="M29.9956 26.7167C11.2939 26.7167 0 21.6162 0 13.1155C0 4.73613 11.051 0 30.3599 0C48.5758 0 59.141 4.979 59.141 13.6012C59.141 22.102 48.8187 26.7167 29.9956 26.7167ZM30.3599 2.42879C12.8726 2.42879 2.42879 6.43628 2.42879 13.1155C2.42879 20.0375 12.994 24.2879 29.9956 24.2879C46.9971 24.2879 56.7122 20.4018 56.7122 13.4798C56.7122 6.55774 46.8757 2.42879 30.3599 2.42879Z" fill="black"/>
<path d="M29.6315 15.0586C40.5638 15.0586 49.4262 13.2644 49.4262 11.0511C49.4262 8.83782 40.5638 7.04358 29.6315 7.04358C18.6993 7.04358 9.83691 8.83782 9.83691 11.0511C9.83691 13.2644 18.6993 15.0586 29.6315 15.0586Z" fill="#BD9725"/>
<path d="M29.6316 16.3944C27.4457 16.3944 8.62256 16.2729 8.62256 11.1724C8.62256 6.07199 27.4457 5.95056 29.6316 5.95056C31.8175 5.95056 50.6406 6.07199 50.6406 11.1724C50.5192 16.1515 31.6961 16.3944 29.6316 16.3944ZM11.1728 11.051C12.2657 12.144 18.8235 13.8441 29.6316 13.8441C40.4397 13.8441 46.9975 12.144 48.0904 11.051C46.9975 9.95808 40.4397 8.25791 29.6316 8.25791C18.8235 8.25791 12.2657 10.0795 11.1728 11.051Z" fill="black"/>
<path d="M117.432 66.1845C117.432 74.078 106.745 78.207 89.5009 78.207C72.2565 78.207 60.7197 73.7137 60.7197 65.8201C60.7197 57.9266 72.6208 53.9191 89.8652 53.9191C107.11 53.9191 117.432 58.1695 117.432 66.1845Z" fill="#E2C83E"/>
<path d="M89.6225 79.2999C70.9208 79.2999 59.627 74.1995 59.627 65.6987C59.627 57.3194 70.6779 52.5833 89.9868 52.5833C108.203 52.5833 118.768 57.5623 118.768 66.1845C118.647 74.6853 108.324 79.2999 89.6225 79.2999ZM89.9868 55.012C72.4995 55.012 62.0557 59.0196 62.0557 65.6987C62.0557 72.6208 72.621 76.8712 89.6225 76.8712C106.624 76.8712 116.339 72.9851 116.339 66.063C116.218 59.141 106.381 55.012 89.9868 55.012Z" fill="black"/>
<path d="M89.1369 67.6418C100.069 67.6418 108.932 65.8476 108.932 63.6343C108.932 61.421 100.069 59.6268 89.1369 59.6268C78.2046 59.6268 69.3423 61.421 69.3423 63.6343C69.3423 65.8476 78.2046 67.6418 89.1369 67.6418Z" fill="#BD9725"/>
<path d="M89.137 68.8561C86.951 68.8561 68.1279 68.7347 68.1279 63.6342C68.1279 58.5338 86.951 58.4124 89.137 58.4124C91.3229 58.4124 110.146 58.5338 110.146 63.6342C110.146 68.7347 91.3229 68.8561 89.137 68.8561ZM70.6781 63.6342C71.7711 64.7272 78.3288 66.4273 89.137 66.4273C99.9451 66.4273 106.503 64.7272 107.596 63.6342C106.503 62.5413 99.9451 60.8411 89.137 60.8411C78.3288 60.8411 71.7711 62.5413 70.6781 63.6342Z" fill="black"/>
<path d="M117.432 49.0615C117.432 56.9551 106.745 61.084 89.5009 61.084C72.2565 61.084 60.7197 56.5908 60.7197 48.6972C60.7197 40.8037 72.6208 36.7961 89.8652 36.7961C107.11 36.7961 117.432 41.168 117.432 49.0615Z" fill="#E2C83E"/>
<path d="M89.6225 62.2985C70.9208 62.2985 59.627 57.198 59.627 48.6973C59.627 40.318 70.6779 35.5818 89.9868 35.5818C108.203 35.5818 118.768 40.5608 118.768 49.183C118.647 57.5624 108.324 62.2985 89.6225 62.2985ZM89.9868 37.8891C72.4995 37.8891 62.0557 41.8967 62.0557 48.5758C62.0557 55.4979 72.621 59.7482 89.6225 59.7482C106.624 59.7482 116.339 55.8622 116.339 48.9401C116.218 42.1395 106.381 37.8891 89.9868 37.8891Z" fill="black"/>
<path d="M89.1369 50.6402C100.069 50.6402 108.932 48.846 108.932 46.6327C108.932 44.4194 100.069 42.6252 89.1369 42.6252C78.2046 42.6252 69.3423 44.4194 69.3423 46.6327C69.3423 48.846 78.2046 50.6402 89.1369 50.6402Z" fill="#BD9725"/>
<path d="M89.137 51.8547C86.951 51.8547 68.1279 51.7332 68.1279 46.6328C68.1279 41.5323 86.951 41.4109 89.137 41.4109C91.3229 41.4109 110.146 41.5323 110.146 46.6328C110.146 51.7332 91.3229 51.8547 89.137 51.8547ZM70.6781 46.6328C71.7711 47.7257 78.3288 49.4259 89.137 49.4259C99.9451 49.4259 106.503 47.7257 107.596 46.6328C106.503 45.5398 99.9451 43.8397 89.137 43.8397C78.3288 43.8397 71.7711 45.5398 70.6781 46.6328Z" fill="black"/>
</svg>
