<svg width="45" height="62" viewBox="0 0 45 62" fill="none" xmlns="http://www.w3.org/2000/svg">
<path d="M1.40918 22.5534C1.40918 10.7482 10.988 1.16943 22.7932 1.16943C34.5984 1.16943 44.1771 10.7482 44.1771 22.5534C44.1771 34.3586 22.7932 61.3345 22.7932 61.3345C22.7932 61.3345 1.40918 34.3586 1.40918 22.5534Z" fill="white"/>
<path d="M22.7932 37.1552C31.0001 37.1552 37.6532 30.5021 37.6532 22.2951C37.6532 14.0881 31.0001 7.43506 22.7932 7.43506C14.5862 7.43506 7.93311 14.0881 7.93311 22.2951C7.93311 30.5021 14.5862 37.1552 22.7932 37.1552Z" fill="#E30613"/>
<path d="M28.7476 27.7316C28.7476 31.0453 26.0552 33.6859 22.7932 33.6859C19.4795 33.6859 16.8389 30.9935 16.8389 27.7316C16.8389 24.4696 22.7932 16.9619 22.7932 16.9619C22.7932 16.9619 28.7476 24.4696 28.7476 27.7316Z" fill="#38B9C7"/>
<path d="M22.7929 15.3045C24.1083 15.3045 25.1746 14.2382 25.1746 12.9228C25.1746 11.6074 24.1083 10.541 22.7929 10.541C21.4775 10.541 20.4111 11.6074 20.4111 12.9228C20.4111 14.2382 21.4775 15.3045 22.7929 15.3045Z" fill="#38B9C7"/>
</svg>
