<svg width="42" height="62" viewBox="0 0 42 62" fill="none" xmlns="http://www.w3.org/2000/svg">
<g filter="url(#filter0_f)">
<rect x="34.2378" y="6.83008" width="48.3019" height="28.7983" rx="1" transform="rotate(90 34.2378 6.83008)" fill="#A3A3A3"/>
</g>
<g opacity="0.53" filter="url(#filter1_f)">
<rect x="35.3452" y="6.83008" width="48.3019" height="28.7983" rx="1" transform="rotate(90 35.3452 6.83008)" fill="#ECECEC"/>
</g>
<g opacity="0.43" filter="url(#filter2_f)">
<rect x="33.1299" y="6.83008" width="48.3019" height="27.6906" rx="1" transform="rotate(90 33.1299 6.83008)" fill="#747474"/>
</g>
<rect opacity="0.96" x="36.4529" y="6.83008" width="48.3019" height="31.085" rx="1" transform="rotate(90 36.4529 6.83008)" fill="#ECECEC"/>
<g filter="url(#filter3_f)">
<path fill-rule="evenodd" clip-rule="evenodd" d="M20.6037 25.6982C24.3551 25.6982 27.3962 22.6571 27.3962 18.9057C27.3962 15.1544 24.3551 12.1133 20.6037 12.1133C16.8524 12.1133 13.8113 15.1544 13.8113 18.9057C13.8113 22.6571 16.8524 25.6982 20.6037 25.6982ZM20.6038 22.9813C22.8546 22.9813 24.6793 21.1566 24.6793 18.9058C24.6793 16.655 22.8546 14.8303 20.6038 14.8303C18.353 14.8303 16.5283 16.655 16.5283 18.9058C16.5283 21.1566 18.353 22.9813 20.6038 22.9813Z" fill="#F8F8F8"/>
</g>
<g filter="url(#filter4_f)">
<path fill-rule="evenodd" clip-rule="evenodd" d="M20.6037 27.2075C24.3551 27.2075 27.3962 24.1664 27.3962 20.415C27.3962 16.6636 24.3551 13.6226 20.6037 13.6226C16.8524 13.6226 13.8113 16.6636 13.8113 20.415C13.8113 24.1664 16.8524 27.2075 20.6037 27.2075ZM20.6038 24.4906C22.8546 24.4906 24.6793 22.6659 24.6793 20.4151C24.6793 18.1643 22.8546 16.3396 20.6038 16.3396C18.353 16.3396 16.5283 18.1643 16.5283 20.4151C16.5283 22.6659 18.353 24.4906 20.6038 24.4906Z" fill="white"/>
</g>
<g opacity="0.86" filter="url(#filter5_f)">
<path fill-rule="evenodd" clip-rule="evenodd" d="M20.6037 27.2075C24.3551 27.2075 27.3962 24.1664 27.3962 20.415C27.3962 16.6636 24.3551 13.6226 20.6037 13.6226C16.8524 13.6226 13.8113 16.6636 13.8113 20.415C13.8113 24.1664 16.8524 27.2075 20.6037 27.2075ZM20.6038 24.4906C22.8546 24.4906 24.6793 22.6659 24.6793 20.4151C24.6793 18.1643 22.8546 16.3396 20.6038 16.3396C18.353 16.3396 16.5283 18.1643 16.5283 20.4151C16.5283 22.6659 18.353 24.4906 20.6038 24.4906Z" fill="#DEDEDE"/>
</g>
<g opacity="0.79" filter="url(#filter6_f)">
<path fill-rule="evenodd" clip-rule="evenodd" d="M20.6037 25.6982C24.3551 25.6982 27.3962 22.6571 27.3962 18.9057C27.3962 15.1544 24.3551 12.1133 20.6037 12.1133C16.8524 12.1133 13.8113 15.1544 13.8113 18.9057C13.8113 22.6571 16.8524 25.6982 20.6037 25.6982ZM20.6038 22.9813C22.8546 22.9813 24.6793 21.1566 24.6793 18.9058C24.6793 16.655 22.8546 14.8303 20.6038 14.8303C18.353 14.8303 16.5283 16.655 16.5283 18.9058C16.5283 21.1566 18.353 22.9813 20.6038 22.9813Z" fill="white"/>
</g>
<path fill-rule="evenodd" clip-rule="evenodd" d="M20.6037 25.6982C24.3551 25.6982 27.3962 22.6571 27.3962 18.9057C27.3962 15.1544 24.3551 12.1133 20.6037 12.1133C16.8524 12.1133 13.8113 15.1544 13.8113 18.9057C13.8113 22.6571 16.8524 25.6982 20.6037 25.6982ZM20.6038 22.9813C22.8546 22.9813 24.6793 21.1566 24.6793 18.9058C24.6793 16.655 22.8546 14.8303 20.6038 14.8303C18.353 14.8303 16.5283 16.655 16.5283 18.9058C16.5283 21.1566 18.353 22.9813 20.6038 22.9813Z" fill="black" fill-opacity="0.21"/>
<defs>
<filter id="filter0_f" x="0.439453" y="1.83008" width="38.7983" height="58.3019" filterUnits="userSpaceOnUse" color-interpolation-filters="sRGB">
<feFlood flood-opacity="0" result="BackgroundImageFix"/>
<feBlend mode="normal" in="SourceGraphic" in2="BackgroundImageFix" result="shape"/>
<feGaussianBlur stdDeviation="2.5" result="effect1_foregroundBlur"/>
</filter>
<filter id="filter1_f" x="0.546875" y="0.830078" width="40.7983" height="60.3019" filterUnits="userSpaceOnUse" color-interpolation-filters="sRGB">
<feFlood flood-opacity="0" result="BackgroundImageFix"/>
<feBlend mode="normal" in="SourceGraphic" in2="BackgroundImageFix" result="shape"/>
<feGaussianBlur stdDeviation="3" result="effect1_foregroundBlur"/>
</filter>
<filter id="filter2_f" x="3.43921" y="4.83008" width="31.6906" height="52.3019" filterUnits="userSpaceOnUse" color-interpolation-filters="sRGB">
<feFlood flood-opacity="0" result="BackgroundImageFix"/>
<feBlend mode="normal" in="SourceGraphic" in2="BackgroundImageFix" result="shape"/>
<feGaussianBlur stdDeviation="1" result="effect1_foregroundBlur"/>
</filter>
<filter id="filter3_f" x="9.81128" y="8.11328" width="21.5849" height="21.5849" filterUnits="userSpaceOnUse" color-interpolation-filters="sRGB">
<feFlood flood-opacity="0" result="BackgroundImageFix"/>
<feBlend mode="normal" in="SourceGraphic" in2="BackgroundImageFix" result="shape"/>
<feGaussianBlur stdDeviation="2" result="effect1_foregroundBlur"/>
</filter>
<filter id="filter4_f" x="4.81128" y="4.62256" width="31.5849" height="31.5849" filterUnits="userSpaceOnUse" color-interpolation-filters="sRGB">
<feFlood flood-opacity="0" result="BackgroundImageFix"/>
<feBlend mode="normal" in="SourceGraphic" in2="BackgroundImageFix" result="shape"/>
<feGaussianBlur stdDeviation="4.5" result="effect1_foregroundBlur"/>
</filter>
<filter id="filter5_f" x="12.8113" y="12.6226" width="15.5849" height="15.5849" filterUnits="userSpaceOnUse" color-interpolation-filters="sRGB">
<feFlood flood-opacity="0" result="BackgroundImageFix"/>
<feBlend mode="normal" in="SourceGraphic" in2="BackgroundImageFix" result="shape"/>
<feGaussianBlur stdDeviation="0.5" result="effect1_foregroundBlur"/>
</filter>
<filter id="filter6_f" x="12.8113" y="11.1133" width="15.5849" height="15.5849" filterUnits="userSpaceOnUse" color-interpolation-filters="sRGB">
<feFlood flood-opacity="0" result="BackgroundImageFix"/>
<feBlend mode="normal" in="SourceGraphic" in2="BackgroundImageFix" result="shape"/>
<feGaussianBlur stdDeviation="0.5" result="effect1_foregroundBlur"/>
</filter>
</defs>
</svg>
