<svg width="439" height="468" viewBox="0 0 439 468" fill="none" xmlns="http://www.w3.org/2000/svg">
<circle cx="265.5" cy="202.5" r="265.5" fill="#FEE97B"/>
<path d="M361.344 79.6895C374.237 79.6895 384.689 69.2377 384.689 56.3448C384.689 43.4519 374.237 33 361.344 33C348.451 33 338 43.4519 338 56.3448C338 69.2377 348.451 79.6895 361.344 79.6895Z" fill="#CAC58C"/>
<path d="M303.344 171.689C316.237 171.689 326.689 161.238 326.689 148.345C326.689 135.452 316.237 125 303.344 125C290.451 125 280 135.452 280 148.345C280 161.238 290.451 171.689 303.344 171.689Z" fill="#CAC58C"/>
<path d="M115.844 96.6894C125.148 96.6894 132.689 89.1478 132.689 79.8447C132.689 70.5416 125.148 63 115.844 63C106.541 63 99 70.5416 99 79.8447C99 89.1478 106.541 96.6894 115.844 96.6894Z" fill="#CAC58C"/>
<path d="M276.844 413.689C286.148 413.689 293.689 406.148 293.689 396.845C293.689 387.542 286.148 380 276.844 380C267.541 380 260 387.542 260 396.845C260 406.148 267.541 413.689 276.844 413.689Z" fill="#CAC58C"/>
<path d="M387.746 283.493C407.488 283.493 423.492 267.489 423.492 247.747C423.492 228.004 407.488 212 387.746 212C368.004 212 352 228.004 352 247.747C352 267.489 368.004 283.493 387.746 283.493Z" fill="#CAC58C"/>
</svg>
