<svg width="532" height="533" viewBox="0 0 532 533" fill="none" xmlns="http://www.w3.org/2000/svg">
<path d="M9.71708 197.784C-28.234 339.419 55.8187 485.002 197.454 522.953C339.089 560.904 484.673 476.852 522.624 335.216C560.575 193.581 476.522 47.9977 334.887 10.0467C193.252 -27.9044 47.6681 56.1483 9.71708 197.784Z" fill="#FEE97B"/>
<path d="M113.415 359.854C107.577 381.642 120.507 404.036 142.294 409.874C164.082 415.712 186.477 402.783 192.314 380.995C198.152 359.208 185.223 336.814 163.435 330.976C141.648 325.138 119.253 338.067 113.415 359.854Z" fill="#CAC58C"/>
<path d="M374.659 410.046C372.276 418.942 377.554 428.085 386.45 430.469C395.346 432.852 404.489 427.573 406.873 418.678C409.256 409.782 403.977 400.639 395.081 398.255C386.186 395.872 377.043 401.151 374.659 410.046Z" fill="#CAC58C"/>
<path d="M118.666 136.519C116.451 144.783 121.356 153.278 129.62 155.492C137.884 157.707 146.379 152.802 148.593 144.538C150.807 136.274 145.903 127.78 137.639 125.565C129.375 123.351 120.88 128.255 118.666 136.519Z" fill="#CAC58C"/>
<path d="M332.009 42.9635C329.795 51.2276 334.699 59.7221 342.963 61.9365C351.228 64.1509 359.722 59.2467 361.937 50.9825C364.151 42.7184 359.247 34.224 350.982 32.0095C342.718 29.7951 334.224 34.6994 332.009 42.9635Z" fill="#CAC58C"/>
<path d="M37.6031 256.246C33.4042 271.917 42.7039 288.025 58.3748 292.224C74.0465 296.423 90.1541 287.123 94.3531 271.452C98.5521 255.781 89.2524 239.674 73.5807 235.474C57.9098 231.275 41.8021 240.575 37.6031 256.246Z" fill="#CAC58C"/>
<path d="M210.603 184.375C206.404 200.045 215.704 216.153 231.375 220.352C247.046 224.551 263.154 215.252 267.353 199.581C271.552 183.91 262.252 167.802 246.581 163.603C230.91 159.404 214.802 168.704 210.603 184.375Z" fill="#CAC58C"/>
</svg>
