<svg width="83" height="84" viewBox="0 0 83 84" fill="none" xmlns="http://www.w3.org/2000/svg">
<path d="M53.6026 40.5743C64.8069 40.5743 73.8897 31.4914 73.8897 20.2872C73.8897 9.08287 64.8069 0 53.6026 0C42.3983 0 33.3154 9.08287 33.3154 20.2872C33.3154 31.4914 42.3983 40.5743 53.6026 40.5743Z" fill="#38B9C7"/>
<path d="M72.4009 20.2872C77.9516 20.2872 82.4514 15.7874 82.4514 10.2367C82.4514 4.68593 77.9516 0.186157 72.4009 0.186157C66.8501 0.186157 62.3503 4.68593 62.3503 10.2367C62.3503 15.7874 66.8501 20.2872 72.4009 20.2872Z" fill="#38B9C7"/>
<path d="M47.6467 77.4262C53.1974 77.4262 57.6972 72.9265 57.6972 67.3757C57.6972 61.825 53.1974 57.3252 47.6467 57.3252C42.096 57.3252 37.5962 61.825 37.5962 67.3757C37.5962 72.9265 42.096 77.4262 47.6467 77.4262Z" fill="#38B9C7"/>
<path d="M33.3154 83.9405C38.8662 83.9405 43.3659 79.4407 43.3659 73.89C43.3659 68.3393 38.8662 63.8395 33.3154 63.8395C27.7647 63.8395 23.2649 68.3393 23.2649 73.89C23.2649 79.4407 27.7647 83.9405 33.3154 83.9405Z" fill="#38B9C7"/>
<path d="M6.70036 66.4451C10.4009 66.4451 13.4007 63.4453 13.4007 59.7448C13.4007 56.0443 10.4009 53.0444 6.70036 53.0444C2.99986 53.0444 0 56.0443 0 59.7448C0 63.4453 2.99986 66.4451 6.70036 66.4451Z" fill="#38B9C7"/>
<path d="M18.0538 52.1137C22.5767 52.1137 26.2431 48.4473 26.2431 43.9244C26.2431 39.4016 22.5767 35.7351 18.0538 35.7351C13.531 35.7351 9.8645 39.4016 9.8645 43.9244C9.8645 48.4473 13.531 52.1137 18.0538 52.1137Z" fill="#38B9C7"/>
<path d="M43.9245 69.0508C59.6516 69.0508 72.4009 56.3015 72.4009 40.5744C72.4009 24.8472 59.6516 12.0979 43.9245 12.0979C28.1974 12.0979 15.448 24.8472 15.448 40.5744C15.448 56.3015 28.1974 69.0508 43.9245 69.0508Z" fill="#38B9C7"/>
</svg>
