<svg width="512" height="907" viewBox="0 0 512 907" fill="none" xmlns="http://www.w3.org/2000/svg">
<g opacity="0.6">
<path d="M46.7695 263.119H0.000244141V279.825H46.7695V263.119Z" fill="#1A565C" fill-opacity="0.6"/>
<path d="M84.8539 208.996H38.0847V226.389H84.8539V208.996Z" fill="#1A565C" fill-opacity="0.6"/>
<path d="M122.939 156.769H76.1697V174.163H122.939V156.769Z" fill="#1A565C" fill-opacity="0.6"/>
<path d="M160.978 104.498H114.209V121.892H160.978V104.498Z" fill="#1A565C" fill-opacity="0.6"/>
<path d="M199.063 52.2715H152.294V69.6652H199.063V52.2715Z" fill="#1A565C" fill-opacity="0.6"/>
<path d="M237.148 0H190.379V17.3938H237.148V0Z" fill="#1A565C" fill-opacity="0.6"/>
<path d="M464.932 279.825H511.701V263.143H464.932V279.825Z" fill="#1A565C" fill-opacity="0.6"/>
<path d="M426.824 226.405H473.593V209.011H426.824V226.405Z" fill="#1A565C" fill-opacity="0.6"/>
<path d="M388.761 174.141H435.531V156.747H388.761V174.141Z" fill="#1A565C" fill-opacity="0.6"/>
<path d="M350.698 121.922H397.468V104.528H350.698V121.922Z" fill="#1A565C" fill-opacity="0.6"/>
<path d="M312.636 69.6572H359.405V52.2634H312.636V69.6572Z" fill="#1A565C" fill-opacity="0.6"/>
<path d="M274.528 17.4382H321.297V0.0444336H274.528V17.4382Z" fill="#1A565C" fill-opacity="0.6"/>
<path fill-rule="evenodd" clip-rule="evenodd" d="M69.0002 704.825V841.81H443.2V704.825H454V852.825H58.0002V704.825H69.0002Z" fill="#1A565C" fill-opacity="0.6"/>
<path fill-rule="evenodd" clip-rule="evenodd" d="M194 126.159H318.341V238.201H194V126.159ZM212.333 140.213H298.454V227.227H212.333V140.213Z" fill="#1A565C" fill-opacity="0.6"/>
<path fill-rule="evenodd" clip-rule="evenodd" d="M291.241 301.671H411.602V420.942H291.241V301.671ZM309.264 315.951H392.671V408.748H309.264V315.951Z" fill="#1A565C" fill-opacity="0.6"/>
<path fill-rule="evenodd" clip-rule="evenodd" d="M97.9221 301.671H218.283V420.942H97.9221V301.671ZM116.99 315.951H200.397V408.748H116.99V315.951Z" fill="#1A565C" fill-opacity="0.6"/>
<path fill-rule="evenodd" clip-rule="evenodd" d="M291.241 454.2H411.602V573.29H291.241V454.2ZM310.264 467.299H393.671V560.096H310.264V467.299Z" fill="#1A565C" fill-opacity="0.6"/>
<path fill-rule="evenodd" clip-rule="evenodd" d="M97.9221 454.2H218.283V573.29H97.9221V454.2ZM116.99 467.299H200.397V560.096H116.99V467.299Z" fill="#1A565C" fill-opacity="0.6"/>
<rect y="280" width="18" height="627" fill="#1A565C" fill-opacity="0.6"/>
<rect x="494" y="280" width="18" height="627" fill="#1A565C" fill-opacity="0.6"/>
</g>
</svg>
