<svg width="512" height="908" viewBox="0 0 512 908" fill="none" xmlns="http://www.w3.org/2000/svg">
<path d="M46.7693 263.294H0V280H46.7693V263.294Z" fill="#B67777"/>
<path d="M84.8537 209.171H38.0845V226.564H84.8537V209.171Z" fill="#B67777"/>
<path d="M122.939 156.944H76.1694V174.338H122.939V156.944Z" fill="#B67777"/>
<path d="M160.978 104.673H114.209V122.067H160.978V104.673Z" fill="#B67777"/>
<path d="M199.063 52.4465H152.294V69.8402H199.063V52.4465Z" fill="#B67777"/>
<path d="M237.148 0.175049H190.379V17.5688H237.148V0.175049Z" fill="#B67777"/>
<path d="M464.932 280L511.701 280L511.701 263.318L464.932 263.318L464.932 280Z" fill="#B67777"/>
<path d="M426.824 226.58L473.593 226.58L473.593 209.186L426.824 209.186L426.824 226.58Z" fill="#B67777"/>
<path d="M388.761 174.316L435.531 174.316L435.531 156.922L388.761 156.922L388.761 174.316Z" fill="#B67777"/>
<path d="M350.698 122.097L397.468 122.097L397.468 104.703L350.698 104.703L350.698 122.097Z" fill="#B67777"/>
<path d="M312.636 69.8323L359.405 69.8323L359.405 52.4385L312.636 52.4385L312.636 69.8323Z" fill="#B67777"/>
<path d="M274.528 17.6133L321.297 17.6133L321.297 0.219566L274.528 0.219566L274.528 17.6133Z" fill="#B67777"/>
<path fill-rule="evenodd" clip-rule="evenodd" d="M69 705V841.985H443.2V705H454V853H58V705H69Z" fill="#A73737"/>
<path fill-rule="evenodd" clip-rule="evenodd" d="M194 126.334H318.341V238.376H194V126.334ZM212.333 140.388H298.454V227.402H212.333V140.388Z" fill="#A73737"/>
<path fill-rule="evenodd" clip-rule="evenodd" d="M291.241 301.846H411.602V421.117H291.241V301.846ZM309.264 316.126H392.671V408.923H309.264V316.126Z" fill="#A73737"/>
<path fill-rule="evenodd" clip-rule="evenodd" d="M97.9219 301.846H218.283V421.117H97.9219V301.846ZM116.99 316.126H200.397V408.923H116.99V316.126Z" fill="#A73737"/>
<path fill-rule="evenodd" clip-rule="evenodd" d="M291.241 454.375H411.602V573.465H291.241V454.375ZM310.264 467.474H393.671V560.271H310.264V467.474Z" fill="#A73737"/>
<path fill-rule="evenodd" clip-rule="evenodd" d="M97.9219 454.375H218.283V573.465H97.9219V454.375ZM116.99 467.474H200.397V560.271H116.99V467.474Z" fill="#A73737"/>
<g style="mix-blend-mode:darken" opacity="0.6">
<path d="M511.73 907.366L511.73 280H494L494 907.366H511.73Z" fill="#962E2E"/>
</g>
<g style="mix-blend-mode:darken" opacity="0.6">
<path d="M17.7305 907.366L17.7305 280H-0.000244141L-0.000244141 907.366H17.7305Z" fill="#962E2E"/>
</g>
</svg>
