<svg width="62" height="214" viewBox="0 0 62 214" fill="none" xmlns="http://www.w3.org/2000/svg">
<g opacity="0.56">
<path opacity="0.56" d="M4.42238 196.991L4.42239 17.0089C4.42239 7.63665 16.337 -1.65507e-06 30.9595 -1.06709e-06C45.582 -4.791e-07 57.4966 7.63666 57.4966 17.0089L57.4966 196.991C57.4966 206.363 45.5819 214 30.9595 214C16.337 214 4.42238 206.363 4.42238 196.991Z" fill="black"/>
<path opacity="0.56" d="M2.31661e-05 195.555L3.20007e-05 18.4453C3.25119e-05 8.19792 13.76 -1.84471e-06 30.96 -1.18588e-06C48.1599 -5.2706e-07 61.9199 8.19792 61.9199 18.4453L61.9199 195.555C61.9199 205.802 48.1599 214 30.9599 214C13.76 214 2.26549e-05 205.802 2.31661e-05 195.555ZM56.1866 18.4453C56.1866 10.0766 45.0066 3.4158 30.96 3.4158C16.9133 3.4158 5.73336 10.0766 5.73336 18.4453L5.73335 195.555C5.73335 203.923 16.9133 210.584 30.9599 210.584C45.0066 210.584 56.1866 203.923 56.1866 195.555L56.1866 18.4453Z" fill="black"/>
</g>
<path d="M21.6051 193.016L21.6051 20.9863C21.6051 17.894 26.1798 15.2899 31.6121 15.2899C37.0445 15.2899 41.6191 17.894 41.6191 20.9863L41.6191 193.016C41.6191 196.108 37.0445 198.712 31.6121 198.712C25.8938 198.712 21.6051 196.271 21.6051 193.016Z" fill="white"/>
</svg>
