<svg width="179" height="164" viewBox="0 0 179 164" fill="none" xmlns="http://www.w3.org/2000/svg">
<path d="M151.271 12.8758L145.384 25.6094L155.233 30.1633L161.12 17.4297L151.271 12.8758Z" fill="white"/>
<rect x="116" y="39.3193" width="26" height="26" rx="5" fill="black"/>
<path d="M129 163.32H0V125.642C0 109.345 13.4281 96.0381 29.8737 96.0381H99.0509C115.572 96.0381 128.925 109.345 128.925 125.642V163.32H129Z" fill="black"/>
<path d="M98.2207 79.591C98.2207 104.635 86.9804 124.894 66.5365 124.894C46.0927 124.894 36.3611 104.635 36.3611 79.591C36.3611 54.5473 28.0629 34.2881 66.5365 34.2881C103.501 34.2881 98.2207 54.5473 98.2207 79.591Z" fill="black"/>
<path d="M50.468 70.6208C53.1761 70.6208 55.3715 68.4452 55.3715 65.7616C55.3715 63.0779 53.1761 60.9023 50.468 60.9023C47.7598 60.9023 45.5645 63.0779 45.5645 65.7616C45.5645 68.4452 47.7598 70.6208 50.468 70.6208Z" fill="black"/>
<path d="M83.2092 70.6208C85.9173 70.6208 88.1127 68.4452 88.1127 65.7616C88.1127 63.0779 85.9173 60.9023 83.2092 60.9023C80.501 60.9023 78.3057 63.0779 78.3057 65.7616C78.3057 68.4452 80.501 70.6208 83.2092 70.6208Z" fill="black"/>
<path d="M74.6839 91.5522H58.8418L62.9909 67.6299H70.5348L74.6839 91.5522Z" fill="black"/>
<path d="M78.4561 94.7666C74.0052 94.7666 69.9315 96.3365 66.7631 99.0278C63.5947 96.4113 59.521 94.7666 55.0701 94.7666C45.0368 94.7666 36.9648 102.766 36.9648 112.708C36.9648 115.101 37.4175 117.343 38.2473 119.362C40.8877 112.783 47.4508 108.073 55.0701 108.073C57.0315 108.073 58.9175 108.372 60.728 108.97C62.9912 109.718 65.028 110.839 66.7631 112.335C68.4982 110.839 70.535 109.718 72.7982 108.97C74.6087 108.372 76.4947 108.073 78.4561 108.073C86.0754 108.073 92.5631 112.708 95.2789 119.362C96.1087 117.269 96.5613 115.026 96.5613 112.708C96.5613 102.766 88.4894 94.7666 78.4561 94.7666Z" fill="black"/>
<path d="M93.167 25.0186H40.36C33.0424 25.0186 27.1582 30.8496 27.1582 38.1011C27.1582 45.3525 33.0424 51.1836 40.36 51.1836H93.167C100.485 51.1836 106.369 45.3525 106.369 38.1011C106.369 30.8496 100.485 25.0186 93.167 25.0186Z" fill="black"/>
<path d="M82.6057 9.31934H50.9215C43.6039 9.31934 37.7197 15.1504 37.7197 22.4019C37.7197 29.6533 43.6039 35.4844 50.9215 35.4844H82.6057C89.9232 35.4844 95.8074 29.6533 95.8074 22.4019C95.8074 15.1504 89.9232 9.31934 82.6057 9.31934Z" fill="black"/>
<path d="M57.6351 59.4062H43.3018V63.1441H57.6351V59.4062Z" fill="black"/>
<path d="M90.5267 52.6787H76.1934V56.4166H90.5267V52.6787Z" fill="black"/>
<path d="M143.615 6.61024C143.538 6.65231 143.481 6.67951 143.403 6.72158C140.755 13.9849 140.649 21.7049 142.769 28.7536C144.916 35.8595 149.309 42.2792 155.633 46.8849L168.51 22.8818C168.139 22.3845 167.864 21.8302 167.669 21.2165C167.613 20.9954 167.556 20.7743 167.517 20.5557C167.448 20.1732 167.434 19.7808 167.434 19.4083L155.525 13.0093L143.615 6.61024Z" fill="black"/>
<path d="M143.483 6.53819C143.459 6.5878 143.431 6.6548 143.424 6.70693C138.828 9.03997 135.653 13.9383 133.65 18.7047C131.619 23.5381 130.04 28.6853 126.708 32.7093C124.749 35.087 122.26 36.9621 120.16 39.2129C118.065 41.4289 116.264 44.3085 116.211 47.3701L107.875 47.4762C107.146 45.5256 104.957 43.7361 102.942 43.196C100.929 42.6384 98.8109 42.5625 96.8129 42.0249C94.7976 41.4847 93.3601 41.3653 92.6138 39.4122L143.483 6.53819Z" fill="black"/>
<path d="M143.423 6.70697C140.775 13.9703 140.668 21.6902 142.788 28.739C144.935 35.8448 149.328 42.2646 155.652 46.8703L116.213 47.3528C116.264 44.3085 118.082 41.4314 120.162 39.1955C122.262 36.9447 124.751 35.0696 126.71 32.6919C130.045 28.6506 131.624 23.5034 133.652 18.6874C135.649 13.9557 138.827 9.04001 143.423 6.70697Z" fill="black"/>
<path d="M107.858 47.4744L79.5443 47.8287L92.5793 39.4078C93.3255 41.361 94.7631 41.4804 96.7784 42.0205C98.7937 42.5607 100.912 42.6366 102.907 43.1916C104.94 43.7343 107.129 45.5238 107.858 47.4744Z" fill="black"/>
<rect x="110" y="42.5039" width="8" height="26" rx="4" transform="rotate(-10.8347 110 42.5039)" fill="black"/>
<rect x="113" y="53.3193" width="30" height="101" rx="15" fill="black"/>
<path d="M177.538 18.5899C178.483 21.7152 176.703 25.0282 173.578 25.973C171.124 26.7045 168.562 25.7708 167.115 23.8342C166.708 23.2902 166.408 22.684 166.195 22.0127C166.133 21.7709 166.071 21.529 166.028 21.2899C165.952 20.8715 165.937 20.4423 165.938 20.0349C166.04 17.5852 167.679 15.3774 170.155 14.6297C173.28 13.6849 176.596 15.4457 177.538 18.5899Z" fill="black"/>
<rect x="77.0986" y="34.0117" width="9.24362" height="25.5214" transform="rotate(-11.3063 77.0986 34.0117)" fill="black"/>
</svg>
