<svg width="15" height="20" viewBox="0 0 15 20" fill="none" xmlns="http://www.w3.org/2000/svg">
<path d="M11.52 19.1207C11.3 18.5807 11.04 17.9707 10.74 17.2907C10.44 16.6107 10.12 15.9107 9.78 15.1907C9.44 14.4707 9.07 13.7507 8.67 13.0307C8.29 12.3107 7.89 11.6407 7.47 11.0207C6.77 12.1407 6.07 13.4307 5.37 14.8907C4.67 16.3307 4.02 17.7407 3.42 19.1207H0.75C1.41 17.6407 2.18 16.0407 3.06 14.3207C3.94 12.5807 4.88 10.9107 5.88 9.31073L1.05 0.550727H3.78L7.41 7.66073L11.31 0.550727H13.98L9.06 9.22073C10.02 10.7807 10.95 12.4007 11.85 14.0807C12.75 15.7607 13.55 17.4407 14.25 19.1207H11.52Z" fill="#DFD5D5"/>
</svg>
